<svg width="160" height="160" fill="none" xmlns="http://www.w3.org/2000/svg"><g clip-path="url(#clip0_524_441)"><path d="M56.4 159.18h103.33V0H0v102.78l56.4 56.4z" fill="#231F20"/><path d="M57.28 156.2h99.46V3H3v98.93l54.28 54.27z" fill="#E5E5E5"/><path d="M45.14 62.6h-15.5v15.5h15.5V62.6zm0 16.99h-15.5v15.5h15.5v-15.5zM113.1 2.98H97.6v7.15h15.5V2.98zm-67.96 93.6h-15.5v15.5h15.5v-15.5zm16.99 16.99h-15.5v15.5h15.5v-15.5zM113.1 45.6H97.6v15.5h15.5V45.6zm0-16.99H97.6v15.5h15.5v-15.5zm0-16.99H97.6v15.5h15.5v-15.5zM79.12 28.61h-15.5v15.5h15.5v-15.5zm16.99-16.99h-15.5v15.5h15.5v-15.5zM62.13 28.61h-15.5v15.5h15.5v-15.5zm50.97 101.95H97.6v15.5h15.5v-15.5zm17-50.97h-15.5v15.5h15.5v-15.5zm0-33.99h-15.5v15.5h15.5V45.6zm0 17h-15.5v15.5h15.5V62.6zm-50.98 50.97h-15.5v15.5h15.5v-15.5zM130.1 11.62h-15.5v15.5h15.5v-15.5zm0 16.99h-15.5v15.5h15.5v-15.5zm0-25.63h-15.5v7.15h15.5V2.98zM96.11 130.56h-15.5v15.5h15.5v-15.5zm33.99 0h-15.5v15.5h15.5v-15.5zm0-16.99h-15.5v15.5h15.5v-15.5zm0-16.99h-15.5v15.5h15.5v-15.5zM45.14 45.6h-15.5v15.5h15.5V45.6zm33.98 17h-15.5v15.5h15.5V62.6zm16.99 33.98h-15.5v15.5h15.5v-15.5zM79.12 79.59h-15.5v15.5h15.5v-15.5zm16.99 0h-15.5v15.5h15.5v-15.5zm0-33.99h-15.5v15.5h15.5V45.6zm0 17h-15.5v15.5h15.5V62.6zm-64.47 67.96l13.5 13.49v-13.49h-13.5zm13.5-118.94h-15.5v15.5h15.5v-15.5zM113.1 62.6H97.6v15.5h15.5V62.6zM45.14 28.61h-15.5v15.5h15.5v-15.5zm-15.5 84.96v15l.51.51h15v-15.5l-15.51-.01zm-14.99 0l13.49 13.49v-13.49H14.65zm98.45 0H97.6v15.5h15.5v-15.5zm-16.99 0h-15.5v15.5h15.5v-15.5zM79.12 96.58h-15.5v15.5h15.5v-15.5zm33.98-16.99H97.6v15.5h15.5v-15.5zM96.11 28.61h-15.5v15.5h15.5v-15.5zm16.99 67.97H97.6v15.5h15.5v-15.5zM62.13 45.6h-15.5v15.5h15.5V45.6zm16.99 0h-15.5v15.5h15.5V45.6zM62.13 96.58h-15.5v15.5h15.5v-15.5zm0-16.99h-15.5v15.5h15.5v-15.5zm0-16.99h-15.5v15.5h15.5V62.6zm-50.98 0H2.99v15.5h8.16V62.6zM96.11 2.98h-15.5v7.15h15.5V2.98zM11.15 45.6H2.99v15.5h8.16V45.6zm0 33.99H2.99v15.5h8.16v-15.5zm0 16.99H3v5.33l8.16 8.16-.01-13.49zm135.94-84.96h-15.5v15.5h15.5v-15.5zm0-8.64h-15.5v7.15h15.5V2.98zM62.13 147.55H48.64l8.64 8.65h4.85v-8.65zM11.15 2.98H2.99v7.15h8.16V2.98zm67.97 0h-15.5v7.15h15.5V2.98zm-67.97 8.64H2.99v15.5h8.16v-15.5zm67.97 135.93h-15.5v8.64h15.5v-8.64zm67.97-118.94h-15.5v15.5h15.5v-15.5zm9.65 0h-8.16v15.5h8.16v-15.5zm0 33.99h-8.16v15.5h8.16V62.6zm0-50.98h-8.16v15.5h8.16v-15.5zm0-8.64h-8.16v7.15h8.16V2.98zm0 42.62h-8.16v15.5h8.16V45.6zm0 33.99h-8.16v15.5h8.16v-15.5zm0 67.96h-8.16v8.64h8.16v-8.64zm0-16.99h-8.16v15.5h8.16v-15.5zm0-33.98h-8.16v15.5h8.16v-15.5zm0 16.99h-8.16v15.5h8.16v-15.5zM11.15 28.61H2.99v15.5h8.16v-15.5zm17 0h-15.5v15.5h15.5v-15.5zm0 16.99h-15.5v15.5h15.5V45.6zm0 33.99h-15.5v15.5h15.5v-15.5zm0-67.97h-15.5v15.5h15.5v-15.5zm0 50.98h-15.5v15.5h15.5V62.6zM62.13 2.98h-15.5v7.15h15.5V2.98zm16.99 8.64h-15.5v15.5h15.5v-15.5zm-16.99 0h-15.5v15.5h15.5v-15.5zM13.16 112.07h15V96.58H12.65v15l.51.49zM28.15 2.98h-15.5v7.15h15.5V2.98zm16.99 0h-15.5v7.15h15.5V2.98zm101.95 144.57h-15.5v8.64h15.5v-8.64zm0-50.97h-15.5v15.5h15.5v-15.5zm0 16.99h-15.5v15.5h15.5v-15.5zm0-50.97h-15.5v15.5h15.5V62.6zm0 67.96h-15.5v15.5h15.5v-15.5zm0-50.97h-15.5v15.5h15.5v-15.5zm-84.96 50.97h-15.5v15l.51.51h15l-.01-15.51zm16.99 0h-15.5v15.5h15.5v-15.5zm16.99 16.99h-15.5v8.64h15.5v-8.64zm33.99 0h-15.5v8.64h15.5v-8.64zm-17 0H97.6v8.64h15.5v-8.64zM147.09 45.6h-15.5v15.5h15.5V45.6z" fill="#fff"/><path d="M57.28 156.2v-54.29H3l54.28 54.29z" fill="#FFCE06"/><path d="M36.75 124.13v-20.58h4.14l.91 2.64h.3a6.077 6.077 0 0 1 1.54-1.68 6.695 6.695 0 0 1 2.1-1 9.607 9.607 0 0 1 2.58-.34 6.86 6.86 0 0 1 5.27 1.94 7.911 7.911 0 0 1 1.81 5.6v13.42h-5.46v-12a5.13 5.13 0 0 0-.91-3.33 3.197 3.197 0 0 0-2.6-1.07 3.399 3.399 0 0 0-3.22 1.8 10.251 10.251 0 0 0-1 4.94v9.69l-5.46-.03zm28.94.37a6.449 6.449 0 0 1-4.88-1.71 6.378 6.378 0 0 1-1.64-4.62 6.62 6.62 0 0 1 1-3.77 5.722 5.722 0 0 1 2.9-2.18 14.526 14.526 0 0 1 4.67-.79l4.52-.12v-.9a2.443 2.443 0 0 0-1-2.15 5.382 5.382 0 0 0-3.09-.72c-.945.005-1.887.109-2.81.31a19.324 19.324 0 0 0-3.15.94l-1.8-3.79a16.133 16.133 0 0 1 3.75-1.35 18.171 18.171 0 0 1 4.17-.46 11 11 0 0 1 6.74 1.81 6.401 6.401 0 0 1 2.37 5.45v13.72H73.3l-.87-2.61h-.15a8.984 8.984 0 0 1-2 1.76 7.638 7.638 0 0 1-2.21.94c-.78.176-1.58.257-2.38.24zm1.92-4.29a5.79 5.79 0 0 0 2.34-.47 4.002 4.002 0 0 0 1.67-1.36c.423-.613.64-1.345.62-2.09v-1.7l-3.12.08a9.06 9.06 0 0 0-2.55.37c-.602.168-1.146.5-1.57.96a2.54 2.54 0 0 0-.53 1.66 2.118 2.118 0 0 0 .91 1.94 4 4 0 0 0 2.23.61zm13.83 3.92v-3.4l5.35-1.13v-11.53l-4.33-.64v-3.88h8.48l.79 3.47H92a8.212 8.212 0 0 1 2.49-2.79 6.48 6.48 0 0 1 3.8-1.06c.542.008 1.083.048 1.62.12.689.073 1.363.249 2 .52l-1.47 5.09a9.846 9.846 0 0 0-1.31-.34 8.888 8.888 0 0 0-1.66-.15 5.114 5.114 0 0 0-2.89.77 4.784 4.784 0 0 0-1.71 2.1 7.39 7.39 0 0 0-.57 3v5.35l5.39 1.13v3.4l-16.25-.03zm23.14 0v-20.58h4.14l.91 2.64h.3c.4-.654.923-1.225 1.54-1.68a6.751 6.751 0 0 1 2.09-1 9.68 9.68 0 0 1 2.59-.34 6.862 6.862 0 0 1 5.27 1.94 7.912 7.912 0 0 1 1.81 5.6v13.42h-5.46v-12a5.125 5.125 0 0 0-.91-3.33 3.186 3.186 0 0 0-2.6-1.07 3.398 3.398 0 0 0-3.22 1.8 10.255 10.255 0 0 0-1 4.94v9.69l-5.46-.03zm33.76.37a13.774 13.774 0 0 1-6.14-1.24 8.73 8.73 0 0 1-3.87-3.66 11.94 11.94 0 0 1-1.33-5.88 12.724 12.724 0 0 1 1.13-5.57 8.344 8.344 0 0 1 3.31-3.68 10.228 10.228 0 0 1 5.28-1.3 9.99 9.99 0 0 1 4.94 1.15 7.697 7.697 0 0 1 3.11 3.28 11.307 11.307 0 0 1 1.07 5.11v2.71h-13.53c.022.924.345 1.816.92 2.54.6.72 1.39 1.257 2.28 1.55a9.307 9.307 0 0 0 3.13.51 14.468 14.468 0 0 0 3.11-.36 26.42 26.42 0 0 0 3.49-1V123a12.498 12.498 0 0 1-3.41 1.15c-1.151.22-2.319.337-3.49.35zm2.6-12.81a4.577 4.577 0 0 0-.55-2.32 3.915 3.915 0 0 0-1.45-1.49 4.097 4.097 0 0 0-2.11-.52 4.288 4.288 0 0 0-3 1.11 4.7 4.7 0 0 0-1.44 3.22h8.55zm-104-12.31V70.74h5.46V85.45c0 .45 0 .92-.09 1.38-.09.46-.1.94-.17 1.46h.07c.36-.52.74-1.06 1.17-1.62.43-.56.87-1.1 1.32-1.65l5.24-6.18h6.33l-7.54 8.55 8 12h-5.89l-5.54-8.56-2.9 2.22v6.33h-5.46zm29.16.38a6.67 6.67 0 0 1-5.1-1.94 7.87 7.87 0 0 1-1.83-5.6V78.81h5.46v12a6.181 6.181 0 0 0 .72 3.24A2.8 2.8 0 0 0 68 95.24a4.07 4.07 0 0 0 2.75-.83A4.39 4.39 0 0 0 72 92.05c.256-1.169.377-2.363.36-3.56v-9.68h5.46v20.57h-4.14l-.91-2.64h-.3a5.72 5.72 0 0 1-1.56 1.62 7.153 7.153 0 0 1-2.19 1 9.272 9.272 0 0 1-2.62.4zm16.06-.38V96l6.78-1.13V75.26l-5.47-1.13v-3.39H94.4v24.12l6.22 1.14v3.39l-18.46-.01zm22.6 0V96l6.86-1.13V83.33l-5.84-.64v-3.88h11.31v16l6.14 1.19v3.39l-18.47-.01zm9.61-22.91a3.42 3.42 0 0 1-2.45-.79 3.821 3.821 0 0 1 0-4.73 4.341 4.341 0 0 1 5 0 3.108 3.108 0 0 1 .83 2.34 3.184 3.184 0 0 1-.85 2.37 3.539 3.539 0 0 1-2.53.81z" fill="#231F20"/><path d="M114.49 76.83c2.071 0 3.75-1.553 3.75-3.47 0-1.916-1.679-3.47-3.75-3.47-2.071 0-3.75 1.554-3.75 3.47 0 1.917 1.679 3.47 3.75 3.47z" fill="#FFCE06"/><path d="M43.08 41.79a6.45 6.45 0 0 1-4.88-1.71 6.41 6.41 0 0 1-1.64-4.62 6.62 6.62 0 0 1 1-3.77 5.77 5.77 0 0 1 2.9-2.18 14.517 14.517 0 0 1 4.67-.79l4.52-.12v-.9a2.46 2.46 0 0 0-1-2.15 5.39 5.39 0 0 0-3.09-.71c-.944.006-1.886.107-2.81.3a19.358 19.358 0 0 0-3.15.94l-1.8-3.81a16.116 16.116 0 0 1 3.75-1.35 18.755 18.755 0 0 1 4.17-.46 11 11 0 0 1 6.74 1.79 6.4 6.4 0 0 1 2.37 5.45v13.72h-4.14l-.87-2.6h-.15a8.906 8.906 0 0 1-2 1.75 7.632 7.632 0 0 1-2.21.94c-.78.19-1.578.283-2.38.28zM45 37.5a5.79 5.79 0 0 0 2.34-.5A4 4 0 0 0 49 35.67a3.51 3.51 0 0 0 .62-2.09v-1.7l-3.11.12a9.059 9.059 0 0 0-2.55.37 3.29 3.29 0 0 0-1.56 1 2.49 2.49 0 0 0-.53 1.63 2.12 2.12 0 0 0 .91 1.94 4 4 0 0 0 2.22.56zm13.83 3.92V38l5.35-1.14v-11.5l-4.33-.64v-3.88h8.48l.79 3.47h.26a8.208 8.208 0 0 1 2.49-2.79 6.48 6.48 0 0 1 3.8-1.06c.542.008 1.083.048 1.62.12a6.73 6.73 0 0 1 2 .53l-1.47 5.08a9.565 9.565 0 0 0-1.32-.34 8.799 8.799 0 0 0-1.65-.15 4.999 4.999 0 0 0-2.89.78 4.7 4.7 0 0 0-1.71 2.09 7.418 7.418 0 0 0-.57 3v5.35L75 38v3.39l-16.17.03zm33.84.37A12.421 12.421 0 0 1 87 40.63a7.39 7.39 0 0 1-3.34-3.49 13.59 13.59 0 0 1-1.09-5.75 14.13 14.13 0 0 1 1.15-6 7.93 7.93 0 0 1 3.45-3.67 11.91 11.91 0 0 1 5.73-1.25c1.1.008 2.196.105 3.28.29 1.155.189 2.28.525 3.35 1l-1.58 4.33a12.417 12.417 0 0 0-2.75-.79 13.479 13.479 0 0 0-2-.19 5.459 5.459 0 0 0-2.83.68 4.119 4.119 0 0 0-1.69 2 8.827 8.827 0 0 0-.57 3.39 8.25 8.25 0 0 0 .6 3.4 4.08 4.08 0 0 0 1.76 1.94 5.85 5.85 0 0 0 2.8.62 10.645 10.645 0 0 0 2.59-.36 11.184 11.184 0 0 0 3-1.34v4.9c-.975.513-2.014.893-3.09 1.13-1.02.21-2.059.318-3.1.32zm11.91-.37V12.78H110v8.27c0 .82 0 1.63-.09 2.43h.3a7.8 7.8 0 0 1 1.43-1.66 5.412 5.412 0 0 1 1.88-1 8.798 8.798 0 0 1 2.53-.34 7.002 7.002 0 0 1 5.31 1.95 7.796 7.796 0 0 1 1.87 5.57v13.42h-5.46v-12c0-1.69-.32-2.84-1-3.47a3.441 3.441 0 0 0-2.56-.94 3.89 3.89 0 0 0-2.37.69 4.117 4.117 0 0 0-1.4 2.19 13.656 13.656 0 0 0-.45 3.86v9.69l-5.41-.02zm22.79 0V38l6.86-1.14v-11.5l-5.84-.64v-3.88h11.31v16.05l6.14 1.11v3.39l-18.47.03zM137 18.51a3.42 3.42 0 0 1-2.45-.8 3.103 3.103 0 0 1-.82-2.37 3.135 3.135 0 0 1 .82-2.35 4.29 4.29 0 0 1 5 0 3.059 3.059 0 0 1 .82 2.33 3.218 3.218 0 0 1-.84 2.38 3.54 3.54 0 0 1-2.53.81z" fill="#231F20"/><path d="M137.03 18.69c2.071 0 3.75-1.554 3.75-3.47 0-1.916-1.679-3.47-3.75-3.47-2.071 0-3.75 1.554-3.75 3.47 0 1.916 1.679 3.47 3.75 3.47z" fill="#FFCE06"/><path d="M37.69 66.16l-2.9-20.57h5l.94 10.62c0 .53.1 1 .15 1.55.05.55.12 1.05.12 1.64l.18 2.09h.15c.11-.81.19-1.49.27-2.06.08-.57.16-1.1.24-1.62.08-.52.2-1.07.32-1.67l1.51-7.54h4.67l1.51 7.57c.1.48.2 1 .3 1.55.1.55.2 1.14.3 1.75.1.61.21 1.29.31 2h.15c.07-.73.13-1.4.18-2 .05-.6.11-1.19.16-1.73s.08-1.05.11-1.53l.94-10.62h4.9l-2.9 20.57h-6.21l-1.43-8c-.15-.83-.27-1.51-.34-2.05-.07-.54-.16-1.13-.26-1.75h-.16c-.1.65-.18 1.24-.26 1.77-.08.53-.19 1.2-.34 2l-1.47 8-6.14.03zm28.41.38A6.667 6.667 0 0 1 61 64.6a7.87 7.87 0 0 1-1.83-5.6V45.59h5.46v12a6.18 6.18 0 0 0 .72 3.24A2.8 2.8 0 0 0 68 62a4.07 4.07 0 0 0 2.75-.83A4.389 4.389 0 0 0 72 58.83c.256-1.17.377-2.364.36-3.56v-9.68h5.46v20.57h-4.14l-.91-2.64h-.3a5.718 5.718 0 0 1-1.56 1.62 7.148 7.148 0 0 1-2.19 1 9.265 9.265 0 0 1-2.62.4zm14.9-.38V45.59h3.69l.6 2.56h.3a6.001 6.001 0 0 1 .89-1.66 3.14 3.14 0 0 1 1.22-1 4.191 4.191 0 0 1 1.7-.32 3.41 3.41 0 0 1 2.52.87 4.57 4.57 0 0 1 1.17 2.52h.19a6.78 6.78 0 0 1 1.62-2.52 3.63 3.63 0 0 1 2.56-.87 3.262 3.262 0 0 1 2.45.85 4.73 4.73 0 0 1 1.13 2.54c.219 1.382.32 2.78.3 4.18v13.42h-4.68V51.69a4.09 4.09 0 0 0-.11-1.07 1.21 1.21 0 0 0-.39-.66 1.37 1.37 0 0 0-.85-.23 1.59 1.59 0 0 0-1 .3 1.71 1.71 0 0 0-.53 1 9.078 9.078 0 0 0-.15 1.83v13.3h-4.8V51.69c.008-.36-.032-.72-.12-1.07a1.12 1.12 0 0 0-.41-.62 1.43 1.43 0 0 0-.87-.23 1.61 1.61 0 0 0-1 .3 1.67 1.67 0 0 0-.52 1 9.001 9.001 0 0 0-.15 1.85v13.3L81 66.16z" fill="#231F20"/></g><defs><clipPath id="clip0_524_441"><path fill="#fff" d="M0 0H159.73V159.18H0z"/></clipPath></defs></svg>