<svg xmlns="http://www.w3.org/2000/svg" viewBox="0 0 133.27 88.84"><path d="M27.25,48.13a8.58,8.58,0,0,1,4.53,1.63c4.89,2.92,7.31,4.45,9.42,5a24.81,24.81,0,0,0,7.12.68,19.54,19.54,0,0,0,8.6-2.36,22.61,22.61,0,0,0,4.63-2.87,7.24,7.24,0,0,1,5.56-2,8.42,8.42,0,0,1,4.85,2A31.13,31.13,0,0,0,78.28,54a24.52,24.52,0,0,0,9.59,1.45,21.59,21.59,0,0,0,7.88-2,23.58,23.58,0,0,0,5.2-3.27,8.24,8.24,0,0,1,2.37-1.49,7.43,7.43,0,0,1,4.59-.39c1.4.34,2,.68,3.83,2.21a24.45,24.45,0,0,0,6.93,3.81c2.87.95,7.57,1.42,9.31.94a7,7,0,0,0,4.57-3.72,6.47,6.47,0,0,0,.72-3.44,6.48,6.48,0,0,0-.72-3.45,6.79,6.79,0,0,0-3.18-3.19,8.21,8.21,0,0,0-3.55-.77,7,7,0,0,1-3-.64,7.67,7.67,0,0,1-.75-1.62A62,62,0,0,0,114,23.77a52.88,52.88,0,0,0-5.53-6.32A57.53,57.53,0,0,0,76.64.86a65.33,65.33,0,0,0-13-.79,60.59,60.59,0,0,0-18.8,4.06A59.48,59.48,0,0,0,17.19,27a64.87,64.87,0,0,0-6.14,12.53,1,1,0,0,1-.48.64,9.35,9.35,0,0,1-3.13.57,8.14,8.14,0,0,0-3.5.77A6.76,6.76,0,0,0,.75,44.68,8.26,8.26,0,0,0,1,52.12a8.76,8.76,0,0,0,2.38,2.36,7.72,7.72,0,0,0,3,1,24.33,24.33,0,0,0,5.57-.33c2.51-.5,7.27-3.48,8.41-4.21a18.84,18.84,0,0,1,3.09-1.81A9,9,0,0,1,27.25,48.13ZM45,14.89A4,4,0,0,1,48.1,18c.11.89-.17,1.59-2.32,5.87-2.25,4.51-2.48,4.84-3.61,5.38a2.83,2.83,0,0,1-1.49.26,2.88,2.88,0,0,1-1.52-.27,3.59,3.59,0,0,1-2-4.16c.09-.33,1.07-2.39,2.16-4.57,2.07-4.12,2.45-4.72,3.3-5.26A3.11,3.11,0,0,1,45,14.89Zm23.12.22A3.53,3.53,0,0,1,70.06,17l.25.62v9.15l-.25.62a3.5,3.5,0,0,1-1.89,1.89,3.7,3.7,0,0,1-4.92-1.9L63,26.77V17.62l.24-.61A3.72,3.72,0,0,1,68.15,15.11Zm22.22,0c1.09.52,1.4,1,3.66,5.5s2.43,5,2.17,6.12a3.92,3.92,0,0,1-3.66,2.79,2.84,2.84,0,0,1-2.38-.93c-.48-.48-.78-1-2.65-4.75-2.23-4.48-2.42-5-2.29-6a3.9,3.9,0,0,1,3-3A3.46,3.46,0,0,1,90.37,15.15Z"/><path d="M22.88,58.53a33.84,33.84,0,0,1-4,2,37.11,37.11,0,0,1-4.61,1.49,2.87,2.87,0,0,0-.8.24c0,.18,7.2,21.64,7.44,22.17a8.07,8.07,0,0,0,2.69,3.22,9.56,9.56,0,0,0,2.42,1c.85.21,80.45.21,81.29,0a9.79,9.79,0,0,0,2.43-1,7.9,7.9,0,0,0,2.67-3.2c.23-.53,7.45-22,7.45-22.18a5.67,5.67,0,0,0-1.1-.34,28.85,28.85,0,0,1-8.09-3.32,8.41,8.41,0,0,0-.94-.52L106.36,68h0a14.44,14.44,0,0,1-13.69,9.81h-52A14.46,14.46,0,0,1,27,68v0c-1.84-5.4-3.36-9.82-3.39-9.81A4.53,4.53,0,0,0,22.88,58.53Z"/></svg>