<svg xmlns="http://www.w3.org/2000/svg" viewBox="0 0 1968.4 1188.9"><defs><style>.aa{fill:#e5e5e5!important;}.b{fill:#fff!important;}</style></defs><rect class="aa" y="558.9" width="1200" height="630"/><polygon class="b" points="742.77 867.75 806.48 867.75 806.48 804.03 806.48 804.03 806.48 804.03 742.77 804.03 742.77 867.74 742.77 867.74 742.77 867.75"/><polygon class="b" points="806.48 873.9 806.48 873.89 742.77 873.89 742.77 937.61 742.77 937.61 742.77 937.61 806.48 937.61 806.48 873.9 806.48 873.9"/><rect class="b" x="1022.22" y="558.92" width="63.71" height="29.38"/><rect class="b" x="1022.22" y="734.17" width="63.71" height="63.71"/><rect class="b" x="1022.22" y="664.31" width="63.71" height="63.71"/><rect class="b" x="1022.22" y="594.45" width="63.71" height="63.71"/><rect class="b" x="952.35" y="594.45" width="63.71" height="63.71"/><polygon class="b" points="812.63 728.02 876.34 728.02 876.34 664.31 876.34 664.31 876.34 664.31 812.63 664.31 812.63 728.02 812.63 728.02 812.63 728.02"/><rect class="b" x="1022.22" y="1083.48" width="63.71" height="63.71"/><rect class="b" x="1092.08" y="873.9" width="63.71" height="63.71"/><rect class="b" x="1092.08" y="734.17" width="63.71" height="63.71"/><rect class="b" x="1092.08" y="804.03" width="63.71" height="63.71"/><rect class="b" x="1092.08" y="594.45" width="63.71" height="63.71"/><rect class="b" x="1092.08" y="664.31" width="63.71" height="63.71"/><rect class="b" x="1092.08" y="558.92" width="63.71" height="29.38"/><rect class="b" x="952.35" y="1083.48" width="63.71" height="63.71"/><rect class="b" x="1092.08" y="1083.48" width="63.71" height="63.71"/><rect class="b" x="1092.08" y="1013.62" width="63.71" height="63.71"/><rect class="b" x="1092.08" y="943.76" width="63.71" height="63.71"/><polygon class="b" points="742.77 797.88 806.48 797.88 806.48 734.17 806.48 734.17 806.48 734.17 742.77 734.17 742.77 797.88 742.77 797.88 742.77 797.88"/><rect class="b" x="952.35" y="943.76" width="63.71" height="63.71"/><rect class="b" x="952.35" y="873.9" width="63.71" height="63.71"/><rect class="b" x="952.35" y="734.17" width="63.71" height="63.71"/><rect class="b" x="952.35" y="804.03" width="63.71" height="63.71"/><polygon class="b" points="742.77 658.16 806.48 658.16 806.48 594.45 806.48 594.45 806.48 594.44 742.77 594.44 742.77 658.16 742.77 658.16 742.77 658.16"/><rect class="b" x="1022.22" y="804.03" width="63.71" height="63.71"/><polygon class="b" points="742.77 728.02 806.48 728.02 806.48 664.31 806.48 664.31 806.48 664.31 742.77 664.31 742.77 728.02 742.77 728.02 742.77 728.02"/><rect class="b" x="1022.22" y="1013.62" width="63.71" height="63.71"/><rect class="b" x="952.35" y="1013.62" width="63.71" height="63.71"/><rect class="b" x="1022.22" y="873.9" width="63.71" height="63.71"/><rect class="b" x="952.35" y="664.31" width="63.71" height="63.71"/><rect class="b" x="1022.22" y="943.76" width="63.71" height="63.71"/><polygon class="b" points="812.63 797.88 876.34 797.88 876.34 734.17 876.34 734.17 876.34 734.17 812.63 734.17 812.63 797.88 812.63 797.88 812.63 797.88"/><polygon class="b" points="876.34 873.9 876.34 873.89 812.63 873.89 812.63 937.61 812.63 937.61 812.63 937.61 876.34 937.61 876.34 873.9 876.34 873.9"/><polygon class="b" points="812.63 867.75 876.34 867.75 876.34 804.03 876.34 804.03 876.34 804.03 812.63 804.03 812.63 867.74 812.63 867.74 812.63 867.75"/><rect class="b" x="952.35" y="558.92" width="63.71" height="29.38"/><rect class="b" x="1161.94" y="594.45" width="38.06" height="63.71"/><rect class="b" x="1161.94" y="558.92" width="38.06" height="29.38"/><rect class="b" x="1161.94" y="664.31" width="38.06" height="63.71"/><polygon class="b" points="812.63 588.3 876.34 588.3 876.34 558.92 876.34 558.92 876.34 558.91 812.63 558.91 812.63 588.29 812.63 588.29 812.63 588.3"/><polygon class="b" points="812.63 658.16 876.34 658.16 876.34 594.45 876.34 594.45 876.34 594.44 812.63 594.44 812.63 658.16 812.63 658.16 812.63 658.16"/><polygon class="b" points="742.77 588.3 806.48 588.3 806.48 558.92 806.48 558.92 806.48 558.91 742.77 558.91 742.77 588.29 742.77 588.29 742.77 588.3"/><rect class="b" x="1161.94" y="1153.35" width="38.06" height="35.54"/><rect class="b" x="1161.94" y="943.76" width="38.06" height="63.71"/><rect class="b" x="1161.94" y="1013.62" width="38.06" height="63.71"/><rect class="b" x="1161.94" y="804.03" width="38.06" height="63.71"/><rect class="b" x="1161.94" y="1083.48" width="38.06" height="63.71"/><rect class="b" x="1161.94" y="873.9" width="38.06" height="63.71"/><rect class="b" x="952.35" y="1153.35" width="63.71" height="35.54"/><rect class="b" x="1092.08" y="1153.35" width="63.71" height="35.54"/><rect class="b" x="1022.22" y="1153.35" width="63.71" height="35.54"/><rect class="b" x="1161.94" y="734.17" width="38.06" height="63.71"/><polygon class="b" points="457.17 804.03 393.45 804.03 393.45 867.74 393.52 867.74 393.52 867.75 457.23 867.75 457.23 804.03 457.17 804.03 457.17 804.03"/><polygon class="b" points="457.17 873.89 393.45 873.89 393.46 937.61 393.52 937.61 393.52 937.61 457.23 937.61 457.23 873.89 457.17 873.89 457.17 873.89"/><polygon class="b" points="736.62 558.91 672.9 558.91 672.9 588.29 672.9 588.29 672.9 588.3 736.62 588.3 736.62 558.92 736.62 558.92 736.62 558.91"/><polygon class="b" points="457.17 943.75 393.46 943.75 393.46 1007.47 393.52 1007.47 393.52 1007.47 457.23 1007.47 457.23 943.76 457.17 943.76 457.17 943.75"/><polygon class="b" points="527.03 1013.62 463.32 1013.62 463.32 1077.33 463.38 1077.33 463.38 1077.33 527.1 1077.33 527.1 1013.62 527.03 1013.62 527.03 1013.62"/><polygon class="b" points="736.62 734.17 672.9 734.17 672.9 797.88 672.9 797.88 672.9 797.88 736.62 797.88 736.62 734.17 736.62 734.17 736.62 734.17"/><polygon class="b" points="736.62 664.31 672.9 664.31 672.9 728.02 672.9 728.02 672.9 728.02 736.62 728.02 736.62 664.31 736.62 664.31 736.62 664.31"/><polygon class="b" points="736.62 594.44 672.9 594.44 672.9 658.16 672.9 658.16 672.9 658.16 736.62 658.16 736.62 594.45 736.62 594.45 736.62 594.44"/><polygon class="b" points="533.18 728.02 533.25 728.02 533.25 728.02 566.8 728.02 566.8 728.02 596.89 728.02 596.89 664.31 533.18 664.31 533.18 728.02"/><polygon class="b" points="666.75 594.44 603.04 594.44 603.04 658.16 633.2 658.16 633.2 658.16 666.76 658.16 666.76 594.45 666.75 594.45 666.75 594.44"/><polygon class="b" points="527.03 664.31 463.32 664.31 463.32 728.02 463.38 728.02 463.38 728.02 527.1 728.02 527.1 664.31 527.03 664.31 527.03 664.31"/><rect class="b" x="672.9" y="1083.48" width="63.71" height="63.71"/><polygon class="b" points="533.18 1077.33 533.25 1077.33 533.25 1077.33 566.8 1077.33 566.8 1077.33 596.89 1077.33 596.89 1013.62 533.18 1013.62 533.18 1077.33"/><rect class="b" x="603.04" y="1083.48" width="63.71" height="63.71"/><polygon class="b" points="806.48 1083.48 742.77 1083.48 742.77 1147.19 806.48 1147.19 806.48 1138.95 806.48 1138.95 806.48 1083.48 806.48 1083.48 806.48 1083.48"/><polygon class="b" points="806.48 1013.62 742.77 1013.62 742.77 1077.33 744.86 1077.33 744.86 1077.33 806.48 1077.33 806.48 1013.62 806.48 1013.62 806.48 1013.62"/><polygon class="b" points="806.48 943.75 742.77 943.75 742.77 1007.47 742.77 1007.47 742.77 1007.47 806.48 1007.47 806.48 943.76 806.48 943.76 806.48 943.75"/><polygon class="b" points="457.17 734.17 393.45 734.17 393.45 797.88 393.52 797.88 393.52 797.88 457.23 797.88 457.23 734.17 457.17 734.17 457.17 734.17"/><polygon class="b" points="533.18 867.74 533.25 867.74 533.25 867.75 566.8 867.75 566.8 867.74 596.89 867.74 596.89 804.03 533.18 804.03 533.18 867.74"/><polygon class="b" points="666.75 943.75 603.04 943.75 603.04 1007.47 666.75 1007.47 666.75 999.23 666.76 999.23 666.76 943.76 666.75 943.76 666.75 943.75"/><polygon class="b" points="533.18 937.61 533.25 937.61 533.25 937.61 566.8 937.61 566.8 937.61 596.89 937.61 596.89 873.89 533.18 873.89 533.18 937.61"/><polygon class="b" points="666.75 873.89 603.04 873.89 603.04 937.61 633.2 937.61 633.2 937.61 666.76 937.61 666.76 873.9 666.75 873.9 666.75 873.89"/><polygon class="b" points="666.75 734.17 603.04 734.17 603.04 797.88 633.2 797.88 633.2 797.88 666.76 797.88 666.76 734.17 666.75 734.17 666.75 734.17"/><polygon class="b" points="666.75 804.03 603.04 804.03 603.04 867.74 633.2 867.74 633.2 867.75 666.76 867.75 666.76 804.03 666.75 804.03 666.75 804.03"/><polygon class="b" points="457.17 1083.48 401.7 1083.48 401.7 1083.48 393.52 1083.48 393.52 1147.19 457.23 1147.19 457.23 1083.48 457.17 1083.48 457.17 1083.48"/><polygon class="b" points="457.17 594.44 393.45 594.44 393.45 658.16 393.52 658.16 393.52 658.16 457.23 658.16 457.23 594.45 457.17 594.45 457.17 594.44"/><polygon class="b" points="736.62 804.03 672.9 804.03 672.9 867.74 672.9 867.74 672.9 867.75 736.62 867.75 736.62 804.03 736.62 804.03 736.62 804.03"/><polygon class="b" points="457.17 664.31 393.45 664.31 393.45 728.02 393.52 728.02 393.52 728.02 457.23 728.02 457.23 664.31 457.17 664.31 457.17 664.31"/><path class="b" d="M457.17,1013.62H393.46v61.61l.06.07v2h63.71v-63.71Z"/><polygon class="b" points="387.31 1013.62 331.84 1013.62 331.84 1013.62 323.66 1013.62 323.66 1077.33 387.37 1077.33 387.37 1013.62 387.31 1013.62 387.31 1013.62"/><polygon class="b" points="736.62 1013.62 672.9 1013.62 672.9 1077.33 736.62 1077.33 736.62 1069.09 736.62 1069.09 736.62 1013.62 736.62 1013.62 736.62 1013.62"/><rect class="b" x="603.04" y="1013.62" width="63.71" height="63.71"/><polygon class="b" points="533.18 1007.47 533.25 1007.47 533.25 1007.47 566.8 1007.47 566.8 1007.47 596.89 1007.47 596.89 943.75 533.18 943.75 533.18 1007.47"/><polygon class="b" points="736.62 873.89 672.9 873.89 672.9 937.61 672.91 937.61 672.91 937.61 736.62 937.61 736.62 873.9 736.62 873.9 736.62 873.89"/><polygon class="b" points="666.75 664.31 603.04 664.31 603.04 728.02 633.2 728.02 633.2 728.02 666.76 728.02 666.76 664.31 666.75 664.31 666.75 664.31"/><polygon class="b" points="736.62 943.75 672.9 943.75 672.9 1007.47 675 1007.47 675 1007.47 736.62 1007.47 736.62 943.76 736.62 943.76 736.62 943.75"/><polygon class="b" points="527.03 734.17 463.32 734.17 463.32 797.88 463.38 797.88 463.38 797.88 527.1 797.88 527.1 734.17 527.03 734.17 527.03 734.17"/><polygon class="b" points="533.18 797.88 533.25 797.88 533.25 797.88 566.8 797.88 566.8 797.88 596.89 797.88 596.89 734.17 533.18 734.17 533.18 797.88"/><polygon class="b" points="527.03 943.75 463.32 943.75 463.32 1007.47 463.38 1007.47 463.38 1007.47 527.1 1007.47 527.1 943.76 527.03 943.76 527.03 943.75"/><polygon class="b" points="527.03 873.89 463.32 873.89 463.32 937.61 463.38 937.61 463.38 937.61 527.1 937.61 527.1 873.89 527.03 873.89 527.03 873.89"/><polygon class="b" points="527.03 804.03 463.32 804.03 463.32 867.74 463.38 867.74 463.38 867.75 527.1 867.75 527.1 804.03 527.03 804.03 527.03 804.03"/><polygon class="b" points="666.75 558.91 603.04 558.91 603.04 588.29 633.2 588.29 633.2 588.3 666.76 588.3 666.76 558.92 666.75 558.92 666.75 558.91"/><polygon class="b" points="317.44 873.89 283.89 873.89 283.89 873.89 253.8 873.89 253.8 937.61 317.51 937.61 317.51 873.89 317.44 873.89 317.44 873.89"/><polygon class="b" points="317.44 943.75 283.89 943.75 283.89 943.76 253.8 943.76 253.8 1007.47 317.51 1007.47 317.51 943.76 317.44 943.76 317.44 943.75"/><polygon class="b" points="527.03 1153.34 471.56 1153.34 471.57 1153.34 463.38 1153.34 463.38 1188.88 527.1 1188.88 527.1 1153.34 527.03 1153.34 527.03 1153.34"/><polygon class="b" points="533.18 588.29 533.25 588.29 533.25 588.3 566.8 588.3 566.8 588.29 596.89 588.29 596.89 558.91 533.18 558.91 533.18 588.29"/><polygon class="b" points="533.18 1188.88 533.25 1188.88 533.25 1188.88 566.8 1188.88 566.8 1188.88 596.89 1188.88 596.89 1153.34 533.18 1153.34 533.18 1188.88"/><polygon class="b" points="916.05 664.31 882.49 664.31 882.49 728.02 882.49 728.02 882.49 728.02 946.21 728.02 946.21 664.31 916.05 664.31 916.05 664.31"/><polygon class="b" points="916.05 804.03 882.49 804.03 882.49 867.74 882.49 867.74 882.49 867.75 946.21 867.75 946.21 804.03 916.05 804.03 916.05 804.03"/><polygon class="b" points="916.05 594.44 882.49 594.44 882.49 658.16 882.49 658.16 882.49 658.16 946.21 658.16 946.21 594.45 916.05 594.45 916.05 594.44"/><polygon class="b" points="916.05 558.91 882.49 558.91 882.49 588.29 882.49 588.29 882.49 588.3 946.21 588.3 946.21 558.92 916.05 558.92 916.05 558.91"/><polygon class="b" points="916.05 734.17 882.49 734.17 882.49 797.88 882.49 797.88 882.49 797.88 946.21 797.88 946.21 734.17 916.05 734.17 916.05 734.17"/><polygon class="b" points="916.05 873.89 882.49 873.89 882.49 937.61 882.49 937.61 882.49 937.61 946.2 937.61 946.21 873.9 916.05 873.9 916.05 873.89"/><polygon class="b" points="916.05 1153.34 882.49 1153.34 882.49 1188.88 882.49 1188.88 882.49 1188.88 946.2 1188.88 946.2 1153.35 916.05 1153.35 916.05 1153.34"/><polygon class="b" points="916.05 1083.48 882.49 1083.48 882.49 1147.19 882.49 1147.19 882.49 1147.2 946.2 1147.2 946.2 1083.48 916.05 1083.48 916.05 1083.48"/><polygon class="b" points="916.05 943.75 882.49 943.75 882.49 1007.47 882.49 1007.47 882.49 1007.47 946.2 1007.47 946.2 943.76 916.05 943.76 916.05 943.75"/><polygon class="b" points="916.05 1013.62 882.49 1013.62 882.49 1077.33 882.49 1077.33 882.49 1077.33 946.2 1077.33 946.2 1013.62 916.05 1013.62 916.05 1013.62"/><polygon class="b" points="387.31 664.31 323.59 664.31 323.59 728.02 323.66 728.02 323.66 728.02 387.37 728.02 387.37 664.31 387.31 664.31 387.31 664.31"/><polygon class="b" points="387.31 734.17 323.59 734.17 323.59 797.88 323.66 797.88 323.66 797.88 387.37 797.88 387.37 734.17 387.31 734.17 387.31 734.17"/><polygon class="b" points="387.31 873.89 323.59 873.89 323.59 937.61 323.66 937.61 323.66 937.61 387.37 937.61 387.37 873.89 387.31 873.89 387.31 873.89"/><polygon class="b" points="387.31 594.44 323.59 594.44 323.59 658.16 323.66 658.16 323.66 658.16 387.37 658.16 387.37 594.45 387.31 594.45 387.31 594.44"/><polygon class="b" points="387.31 804.03 323.59 804.03 323.59 867.74 323.66 867.74 323.66 867.75 387.37 867.75 387.37 804.03 387.31 804.03 387.31 804.03"/><polygon class="b" points="527.03 558.91 463.32 558.91 463.32 588.29 463.38 588.29 463.38 588.3 527.1 588.3 527.1 558.92 527.03 558.92 527.03 558.91"/><polygon class="b" points="533.18 658.16 533.25 658.16 533.25 658.16 566.8 658.16 566.8 658.16 596.89 658.16 596.89 594.44 533.18 594.44 533.18 658.16"/><polygon class="b" points="527.03 594.44 463.32 594.44 463.32 658.16 463.38 658.16 463.38 658.16 527.1 658.16 527.1 594.45 527.03 594.45 527.03 594.44"/><path class="b" d="M387.31,943.75H323.59v61.62l.07.07v2h63.71V943.76h-.06Z"/><polygon class="b" points="387.31 558.91 323.59 558.91 323.59 588.29 323.66 588.29 323.66 588.3 387.37 588.3 387.37 558.92 387.31 558.92 387.31 558.91"/><polygon class="b" points="457.17 558.91 393.45 558.91 393.45 588.29 393.52 588.29 393.52 588.3 457.23 588.3 457.23 558.92 457.17 558.92 457.17 558.91"/><polygon class="b" points="876.34 1153.34 812.63 1153.34 812.63 1188.88 856.41 1188.88 856.41 1188.88 876.34 1188.88 876.34 1153.35 876.34 1153.35 876.34 1153.34"/><polygon class="b" points="876.34 943.75 812.63 943.75 812.63 1007.47 812.63 1007.47 812.63 1007.47 876.34 1007.47 876.34 943.76 876.34 943.76 876.34 943.75"/><polygon class="b" points="876.34 1013.62 812.63 1013.62 812.63 1077.33 812.63 1077.33 812.63 1077.33 876.34 1077.33 876.34 1013.62 876.34 1013.62 876.34 1013.62"/><polygon class="b" points="876.34 1083.48 812.63 1083.48 812.63 1147.19 814.72 1147.19 814.73 1147.2 876.34 1147.2 876.34 1083.48 876.34 1083.48 876.34 1083.48"/><path class="b" d="M527,1083.48H463.32v61.62l.06.06v2h63.71v-63.71Z"/><polygon class="b" points="533.18 1147.19 533.25 1147.19 533.25 1147.19 566.8 1147.19 566.8 1147.19 596.89 1147.19 596.89 1083.48 533.18 1083.48 533.18 1147.19"/><rect class="b" x="603.04" y="1153.34" width="63.71" height="35.54"/><rect class="b" x="742.77" y="1153.34" width="63.71" height="35.54"/><rect class="b" x="672.9" y="1153.34" width="63.71" height="35.54"/><polygon class="b" points="317.51 594.45 317.44 594.45 317.44 594.44 283.89 594.44 283.89 594.45 253.8 594.45 253.8 658.16 317.51 658.16 317.51 594.45"/><rect class="b" x="323.66" y="1083.48" width="63.71" height="63.71"/><rect class="b" x="253.8" y="1083.48" width="63.71" height="63.71"/><polygon class="b" points="317.51 734.17 317.44 734.17 317.44 734.17 283.89 734.17 283.89 734.17 253.8 734.17 253.8 797.88 317.51 797.88 317.51 734.17"/><polygon class="b" points="317.51 804.03 317.44 804.03 317.44 804.03 283.89 804.03 283.89 804.03 253.8 804.03 253.8 867.75 317.51 867.75 317.51 804.03"/><rect class="b" x="253.8" y="1013.62" width="63.71" height="63.71"/><polygon class="b" points="317.51 664.31 317.44 664.31 317.44 664.31 283.89 664.31 283.89 664.31 253.8 664.31 253.8 728.02 317.51 728.02 317.51 664.31"/><polygon class="b" points="317.51 558.92 317.44 558.92 317.44 558.91 283.89 558.91 283.89 558.92 253.8 558.92 253.8 588.3 317.51 588.3 317.51 558.92"/><rect class="b" x="253.8" y="1153.34" width="63.71" height="35.54"/><rect class="b" x="393.52" y="1153.34" width="63.71" height="35.54"/><rect class="b" x="323.66" y="1153.34" width="63.71" height="35.54"/><polygon class="b" points="0.04 558.92 0 558.92 0 588.3 0.04 588.3 38.09 588.3 38.13 588.3 38.13 558.92 38.09 558.92 0.04 558.92"/><polygon class="b" points="0.04 734.17 0 734.17 0 797.88 0.04 797.88 38.09 797.88 38.13 797.88 38.13 734.17 38.09 734.17 0.04 734.17"/><polygon class="b" points="0.04 664.31 0 664.31 0 728.02 0.04 728.02 38.09 728.02 38.13 728.02 38.13 664.31 38.09 664.31 0.04 664.31"/><polygon class="b" points="0.04 594.45 0 594.45 0 658.16 0.04 658.16 38.09 658.16 38.13 658.16 38.13 594.45 38.09 594.45 0.04 594.45"/><rect class="b" x="0.04" y="1083.48" width="38.09" height="63.71"/><polygon class="b" points="44.28 873.89 44.21 873.89 44.21 937.61 44.28 937.61 107.92 937.61 107.99 937.61 107.99 873.89 107.92 873.89 44.28 873.89"/><polygon class="b" points="44.28 734.17 44.21 734.17 44.21 797.88 44.28 797.88 107.92 797.88 107.99 797.88 107.99 734.17 107.92 734.17 44.28 734.17"/><polygon class="b" points="44.28 804.03 44.21 804.03 44.21 867.75 44.28 867.75 107.92 867.75 107.99 867.75 107.99 804.03 107.92 804.03 44.28 804.03"/><polygon class="b" points="44.28 594.45 44.21 594.45 44.21 658.16 44.28 658.16 107.92 658.16 107.99 658.16 107.99 594.45 107.92 594.45 44.28 594.45"/><polygon class="b" points="44.28 664.31 44.21 664.31 44.21 728.02 44.28 728.02 107.92 728.02 107.99 728.02 107.99 664.31 107.92 664.31 44.28 664.31"/><polygon class="b" points="44.28 558.92 44.21 558.92 44.21 588.3 44.28 588.3 107.92 588.3 107.99 588.3 107.99 558.92 107.92 558.92 44.28 558.92"/><polygon class="b" points="52.45 1083.48 44.28 1083.48 44.28 1147.19 107.99 1147.19 107.99 1083.48 107.92 1083.48 52.45 1083.48"/><path class="b" d="M44.28,1013.62h-.07v61.61l.07.07v2H108v-63.71H44.28Z"/><polygon class="b" points="44.28 943.76 44.21 943.76 44.21 1007.47 44.28 1007.47 107.92 1007.47 107.99 1007.47 107.99 943.76 107.92 943.76 44.28 943.76"/><polygon class="b" points="0.04 804.03 0 804.03 0 867.75 0.04 867.75 38.09 867.75 38.13 867.75 38.13 804.03 38.09 804.03 0.04 804.03"/><polygon class="b" points="4.93 1013.62 0.04 1013.62 0.04 1077.33 38.13 1077.33 38.13 1013.62 38.09 1013.62 4.93 1013.62"/><polygon class="b" points="0.04 873.89 0 873.89 0 937.61 0.04 937.61 38.09 937.61 38.13 937.61 38.13 873.89 38.09 873.89 0.04 873.89"/><path class="b" d="M0,943.76H0v61.61l0,.07v2H38.13V943.76H0Z"/><polygon class="b" points="114.14 594.45 114.07 594.45 114.07 658.16 114.14 658.16 177.78 658.16 177.85 658.16 177.85 594.45 177.78 594.45 114.14 594.45"/><polygon class="b" points="114.14 558.92 114.07 558.92 114.07 588.3 114.14 588.3 177.78 588.3 177.85 588.3 177.85 558.92 177.78 558.92 114.14 558.92"/><polygon class="b" points="114.14 664.31 114.07 664.31 114.07 728.02 114.14 728.02 177.78 728.02 177.85 728.02 177.85 664.31 177.78 664.31 114.14 664.31"/><polygon class="b" points="184 664.31 183.93 664.31 183.93 728.02 184 728.02 217.56 728.02 247.65 728.02 247.65 664.31 217.56 664.31 184 664.31"/><polygon class="b" points="184 804.03 183.93 804.03 183.93 867.75 184 867.75 217.56 867.75 247.65 867.75 247.65 804.03 217.56 804.03 184 804.03"/><polygon class="b" points="184 594.45 183.93 594.45 183.93 658.16 184 658.16 217.56 658.16 247.65 658.16 247.65 594.45 217.56 594.45 184 594.45"/><polygon class="b" points="184 558.92 183.93 558.92 183.93 588.3 184 588.3 217.56 588.3 247.65 588.3 247.65 558.92 217.56 558.92 184 558.92"/><polygon class="b" points="184 734.17 183.93 734.17 183.93 797.88 184 797.88 217.56 797.88 247.65 797.88 247.65 734.17 217.56 734.17 184 734.17"/><polygon class="b" points="184 873.89 183.93 873.89 183.93 937.61 184 937.61 217.56 937.61 247.65 937.61 247.65 873.89 217.56 873.89 184 873.89"/><polygon class="b" points="184 1153.34 183.93 1153.34 183.93 1188.88 184 1188.88 217.56 1188.88 247.65 1188.88 247.65 1153.34 217.56 1153.34 184 1153.34"/><polygon class="b" points="184 1083.48 183.93 1083.48 183.93 1147.19 184 1147.19 217.56 1147.19 247.65 1147.19 247.65 1083.48 217.56 1083.48 184 1083.48"/><polygon class="b" points="184 943.76 183.93 943.76 183.93 1007.47 184 1007.47 217.56 1007.47 247.65 1007.47 247.65 943.76 217.56 943.76 184 943.76"/><polygon class="b" points="184 1013.62 183.93 1013.62 183.93 1077.33 184 1077.33 217.56 1077.33 247.65 1077.33 247.65 1013.62 217.56 1013.62 184 1013.62"/><polygon class="b" points="122.32 1153.34 114.14 1153.34 114.14 1188.88 157.86 1188.88 177.78 1188.88 177.85 1188.88 177.85 1153.34 177.78 1153.34 122.32 1153.34"/><polygon class="b" points="114.14 943.76 114.07 943.76 114.07 1007.47 114.14 1007.47 177.78 1007.47 177.85 1007.47 177.85 943.76 177.78 943.76 114.14 943.76"/><polygon class="b" points="114.14 1013.62 114.07 1013.62 114.07 1077.33 114.14 1077.33 177.78 1077.33 177.85 1077.33 177.85 1013.62 177.78 1013.62 114.14 1013.62"/><polygon class="b" points="114.14 804.03 114.07 804.03 114.07 867.75 114.14 867.75 177.78 867.75 177.85 867.75 177.85 804.03 177.78 804.03 114.14 804.03"/><path class="b" d="M114.14,1083.48h-.07v61.62l.07.07v2h63.71v-63.71H114.14Z"/><polygon class="b" points="114.14 873.89 114.07 873.89 114.07 937.61 114.14 937.61 177.78 937.61 177.85 937.61 177.85 873.89 177.78 873.89 114.14 873.89"/><rect class="b" x="44.28" y="1153.34" width="63.71" height="35.54"/><rect class="b" x="0.04" y="1153.34" width="38.09" height="35.54"/><polygon class="b" points="114.14 734.17 114.07 734.17 114.07 797.88 114.14 797.88 177.78 797.88 177.85 797.88 177.85 734.17 177.78 734.17 114.14 734.17"/><rect class="aa" width="1200" height="630"/><polygon class="b" points="742.77 308.85 806.48 308.85 806.48 245.14 806.48 245.14 806.48 245.13 742.77 245.13 742.77 308.84 742.77 308.84 742.77 308.85"/><polygon class="b" points="806.48 315 806.48 314.99 742.77 314.99 742.77 378.71 742.77 378.71 742.77 378.71 806.48 378.71 806.48 315 806.48 315"/><rect class="b" x="1022.22" y="0.02" width="63.71" height="29.38"/><rect class="b" x="1022.22" y="175.27" width="63.71" height="63.71"/><rect class="b" x="1022.22" y="105.41" width="63.71" height="63.71"/><rect class="b" x="1022.22" y="35.55" width="63.71" height="63.71"/><rect class="b" x="952.35" y="35.55" width="63.71" height="63.71"/><polygon class="b" points="812.63 169.12 876.34 169.12 876.34 105.41 876.34 105.41 876.34 105.41 812.63 105.41 812.63 169.12 812.63 169.12 812.63 169.12"/><rect class="b" x="1022.22" y="524.58" width="63.71" height="63.71"/><rect class="b" x="1092.08" y="315" width="63.71" height="63.71"/><rect class="b" x="1092.08" y="175.27" width="63.71" height="63.71"/><rect class="b" x="1092.08" y="245.14" width="63.71" height="63.71"/><rect class="b" x="1092.08" y="35.55" width="63.71" height="63.71"/><rect class="b" x="1092.08" y="105.41" width="63.71" height="63.71"/><rect class="b" x="1092.08" y="0.02" width="63.71" height="29.38"/><rect class="b" x="952.35" y="524.58" width="63.71" height="63.71"/><rect class="b" x="1092.08" y="524.58" width="63.71" height="63.71"/><rect class="b" x="1092.08" y="454.72" width="63.71" height="63.71"/><rect class="b" x="1092.08" y="384.86" width="63.71" height="63.71"/><polygon class="b" points="742.77 238.99 806.48 238.99 806.48 175.27 806.48 175.27 806.48 175.27 742.77 175.27 742.77 238.98 742.77 238.98 742.77 238.99"/><rect class="b" x="952.35" y="384.86" width="63.71" height="63.71"/><rect class="b" x="952.35" y="315" width="63.71" height="63.71"/><rect class="b" x="952.35" y="175.27" width="63.71" height="63.71"/><rect class="b" x="952.35" y="245.14" width="63.71" height="63.71"/><polygon class="b" points="742.77 99.26 806.48 99.26 806.48 35.55 806.48 35.55 806.48 35.54 742.77 35.54 742.77 99.26 742.77 99.26 742.77 99.26"/><rect class="b" x="1022.22" y="245.14" width="63.71" height="63.71"/><polygon class="b" points="742.77 169.12 806.48 169.12 806.48 105.41 806.48 105.41 806.48 105.41 742.77 105.41 742.77 169.12 742.77 169.12 742.77 169.12"/><rect class="b" x="1022.22" y="454.72" width="63.71" height="63.71"/><rect class="b" x="952.35" y="454.72" width="63.71" height="63.71"/><rect class="b" x="1022.22" y="315" width="63.71" height="63.71"/><rect class="b" x="952.35" y="105.41" width="63.71" height="63.71"/><rect class="b" x="1022.22" y="384.86" width="63.71" height="63.71"/><polygon class="b" points="812.63 238.99 876.34 238.99 876.34 175.27 876.34 175.27 876.34 175.27 812.63 175.27 812.63 238.98 812.63 238.98 812.63 238.99"/><polygon class="b" points="876.34 315 876.34 314.99 812.63 314.99 812.63 378.71 812.63 378.71 812.63 378.71 876.34 378.71 876.34 315 876.34 315"/><polygon class="b" points="812.63 308.85 876.34 308.85 876.34 245.14 876.34 245.14 876.34 245.13 812.63 245.13 812.63 308.84 812.63 308.84 812.63 308.85"/><rect class="b" x="952.35" y="0.02" width="63.71" height="29.38"/><rect class="b" x="1161.94" y="35.55" width="38.06" height="63.71"/><rect class="b" x="1161.94" y="0.02" width="38.06" height="29.38"/><rect class="b" x="1161.94" y="105.41" width="38.06" height="63.71"/><polygon class="b" points="812.63 29.4 876.34 29.4 876.34 0.02 876.34 0.02 876.34 0.02 812.63 0.02 812.63 29.39 812.63 29.39 812.63 29.4"/><polygon class="b" points="812.63 99.26 876.34 99.26 876.34 35.55 876.34 35.55 876.34 35.54 812.63 35.54 812.63 99.26 812.63 99.26 812.63 99.26"/><polygon class="b" points="742.77 29.4 806.48 29.4 806.48 0.02 806.48 0.02 806.48 0.02 742.77 0.02 742.77 29.39 742.77 29.39 742.77 29.4"/><rect class="b" x="1161.94" y="594.45" width="38.06" height="35.54"/><rect class="b" x="1161.94" y="384.86" width="38.06" height="63.71"/><rect class="b" x="1161.94" y="454.72" width="38.06" height="63.71"/><rect class="b" x="1161.94" y="245.14" width="38.06" height="63.71"/><rect class="b" x="1161.94" y="524.58" width="38.06" height="63.71"/><rect class="b" x="1161.94" y="315" width="38.06" height="63.71"/><rect class="b" x="952.35" y="594.45" width="63.71" height="35.54"/><rect class="b" x="1092.08" y="594.45" width="63.71" height="35.54"/><rect class="b" x="1022.22" y="594.45" width="63.71" height="35.54"/><rect class="b" x="1161.94" y="175.27" width="38.06" height="63.71"/><polygon class="b" points="457.17 245.13 393.46 245.13 393.45 308.84 393.52 308.84 393.52 308.85 457.23 308.85 457.23 245.13 457.17 245.13 457.17 245.13"/><polygon class="b" points="457.17 314.99 393.45 314.99 393.46 378.71 393.52 378.71 393.52 378.71 457.23 378.71 457.23 315 457.17 315 457.17 314.99"/><polygon class="b" points="736.62 0.02 672.9 0.02 672.9 29.39 672.9 29.39 672.9 29.4 736.62 29.4 736.62 0.02 736.62 0.02 736.62 0.02"/><polygon class="b" points="457.17 384.86 393.46 384.86 393.46 448.57 393.52 448.57 393.52 448.57 457.23 448.57 457.23 384.86 457.17 384.86 457.17 384.86"/><polygon class="b" points="527.03 454.72 463.32 454.72 463.32 518.43 463.38 518.43 463.38 518.43 527.1 518.43 527.1 454.72 527.03 454.72 527.03 454.72"/><polygon class="b" points="736.62 175.27 672.9 175.27 672.9 238.98 672.9 238.98 672.9 238.99 736.62 238.99 736.62 175.27 736.62 175.27 736.62 175.27"/><polygon class="b" points="736.62 105.41 672.9 105.41 672.9 169.12 672.9 169.12 672.9 169.12 736.62 169.12 736.62 105.41 736.62 105.41 736.62 105.41"/><polygon class="b" points="736.62 35.54 672.9 35.54 672.9 99.26 672.9 99.26 672.9 99.26 736.62 99.26 736.62 35.55 736.62 35.55 736.62 35.54"/><polygon class="b" points="533.18 169.12 533.25 169.12 533.25 169.12 566.8 169.12 566.8 169.12 596.89 169.12 596.89 105.41 533.18 105.41 533.18 169.12"/><polygon class="b" points="666.75 35.54 603.04 35.54 603.04 99.26 633.2 99.26 633.2 99.26 666.76 99.26 666.76 35.55 666.75 35.55 666.75 35.54"/><polygon class="b" points="527.03 105.41 463.32 105.41 463.32 169.12 463.38 169.12 463.38 169.12 527.1 169.12 527.1 105.41 527.03 105.41 527.03 105.41"/><rect class="b" x="672.9" y="524.58" width="63.71" height="63.71"/><polygon class="b" points="533.18 518.43 533.25 518.43 533.25 518.43 566.8 518.43 566.8 518.43 596.89 518.43 596.89 454.72 533.18 454.72 533.18 518.43"/><rect class="b" x="603.04" y="524.58" width="63.71" height="63.71"/><polygon class="b" points="806.48 524.58 742.77 524.58 742.77 588.29 806.48 588.29 806.48 580.05 806.48 580.05 806.48 524.59 806.48 524.59 806.48 524.58"/><polygon class="b" points="806.48 454.72 742.77 454.72 742.77 518.43 744.86 518.43 744.86 518.43 806.48 518.43 806.48 454.72 806.48 454.72 806.48 454.72"/><polygon class="b" points="806.48 384.86 742.77 384.86 742.77 448.57 742.77 448.57 742.77 448.57 806.48 448.57 806.48 384.86 806.48 384.86 806.48 384.86"/><polygon class="b" points="457.17 175.27 393.46 175.27 393.46 238.98 393.52 238.98 393.52 238.98 457.23 238.98 457.23 175.27 457.17 175.27 457.17 175.27"/><polygon class="b" points="533.18 308.84 533.25 308.84 533.25 308.85 566.8 308.85 566.8 308.84 596.89 308.84 596.89 245.13 533.18 245.13 533.18 308.84"/><polygon class="b" points="666.75 384.86 603.04 384.86 603.04 448.57 666.75 448.57 666.75 440.33 666.76 440.33 666.76 384.86 666.75 384.86 666.75 384.86"/><polygon class="b" points="533.18 378.71 533.25 378.71 533.25 378.71 566.8 378.71 566.8 378.71 596.89 378.71 596.89 314.99 533.18 314.99 533.18 378.71"/><polygon class="b" points="666.75 314.99 603.04 314.99 603.04 378.71 633.2 378.71 633.2 378.71 666.76 378.71 666.76 315 666.75 315 666.75 314.99"/><polygon class="b" points="666.75 175.27 603.04 175.27 603.04 238.98 633.2 238.98 633.2 238.99 666.76 238.99 666.76 175.27 666.75 175.27 666.75 175.27"/><polygon class="b" points="666.75 245.13 603.04 245.13 603.04 308.84 633.2 308.84 633.2 308.85 666.76 308.85 666.76 245.14 666.75 245.14 666.75 245.13"/><polygon class="b" points="457.17 524.58 401.7 524.58 401.7 524.58 393.52 524.58 393.52 588.29 457.23 588.29 457.23 524.58 457.17 524.58 457.17 524.58"/><polygon class="b" points="457.17 35.54 393.46 35.54 393.46 99.26 393.52 99.26 393.52 99.26 457.23 99.26 457.23 35.55 457.17 35.55 457.17 35.54"/><polygon class="b" points="736.62 245.13 672.9 245.13 672.9 308.84 672.9 308.84 672.9 308.85 736.62 308.85 736.62 245.14 736.62 245.14 736.62 245.13"/><polygon class="b" points="457.17 105.41 393.46 105.41 393.46 169.12 393.52 169.12 393.52 169.12 457.23 169.12 457.23 105.41 457.17 105.41 457.17 105.41"/><path class="b" d="M457.17,454.72H393.46v61.61l.06.07v2h63.71V454.72Z"/><polygon class="b" points="387.31 454.72 331.84 454.72 331.84 454.72 323.66 454.72 323.66 518.43 387.37 518.43 387.37 454.72 387.31 454.72 387.31 454.72"/><polygon class="b" points="736.62 454.72 672.9 454.72 672.9 518.43 736.62 518.43 736.62 510.19 736.62 510.19 736.62 454.72 736.62 454.72 736.62 454.72"/><rect class="b" x="603.04" y="454.72" width="63.71" height="63.71"/><polygon class="b" points="533.18 448.57 533.25 448.57 533.25 448.57 566.8 448.57 566.8 448.57 596.89 448.57 596.89 384.86 533.18 384.86 533.18 448.57"/><polygon class="b" points="736.62 314.99 672.9 314.99 672.9 378.71 672.91 378.71 672.91 378.71 736.62 378.71 736.62 315 736.62 315 736.62 314.99"/><polygon class="b" points="666.75 105.41 603.04 105.41 603.04 169.12 633.2 169.12 633.2 169.12 666.76 169.12 666.76 105.41 666.75 105.41 666.75 105.41"/><polygon class="b" points="736.62 384.86 672.9 384.86 672.9 448.57 675 448.57 675 448.57 736.62 448.57 736.62 384.86 736.62 384.86 736.62 384.86"/><polygon class="b" points="527.03 175.27 463.32 175.27 463.32 238.98 463.38 238.98 463.38 238.98 527.1 238.98 527.1 175.27 527.03 175.27 527.03 175.27"/><polygon class="b" points="533.18 238.98 533.25 238.98 533.25 238.98 566.8 238.98 566.8 238.98 596.89 238.98 596.89 175.27 533.18 175.27 533.18 238.98"/><polygon class="b" points="527.03 384.86 463.32 384.86 463.32 448.57 463.38 448.57 463.38 448.57 527.1 448.57 527.1 384.86 527.03 384.86 527.03 384.86"/><polygon class="b" points="527.03 314.99 463.32 314.99 463.32 378.71 463.38 378.71 463.38 378.71 527.1 378.71 527.1 315 527.03 315 527.03 314.99"/><polygon class="b" points="527.03 245.13 463.32 245.13 463.32 308.84 463.38 308.84 463.38 308.85 527.1 308.85 527.1 245.13 527.03 245.13 527.03 245.13"/><polygon class="b" points="666.75 0.02 603.04 0.02 603.04 29.39 633.2 29.39 633.2 29.4 666.76 29.4 666.76 0.02 666.75 0.02 666.75 0.02"/><polygon class="b" points="317.44 314.99 283.89 314.99 283.89 315 253.8 315 253.8 378.71 317.51 378.71 317.51 315 317.44 315 317.44 314.99"/><polygon class="b" points="317.44 384.86 283.89 384.86 283.89 384.86 253.8 384.86 253.8 448.57 317.51 448.57 317.51 384.86 317.44 384.86 317.44 384.86"/><polygon class="b" points="527.03 594.44 471.56 594.44 471.57 594.44 463.38 594.44 463.38 629.98 527.1 629.98 527.1 594.44 527.03 594.44 527.03 594.44"/><polygon class="b" points="533.18 29.39 533.25 29.39 533.25 29.4 566.8 29.4 566.8 29.39 596.89 29.39 596.89 0.02 533.18 0.01 533.18 29.39"/><polygon class="b" points="533.18 629.98 533.25 629.98 533.25 629.98 566.8 629.98 566.8 629.98 596.89 629.98 596.89 594.44 533.18 594.44 533.18 629.98"/><polygon class="b" points="916.05 105.41 882.49 105.41 882.49 169.12 882.49 169.12 882.49 169.12 946.21 169.12 946.21 105.41 916.05 105.41 916.05 105.41"/><polygon class="b" points="916.05 245.13 882.49 245.13 882.49 308.84 882.49 308.84 882.49 308.85 946.21 308.85 946.21 245.14 916.05 245.14 916.05 245.13"/><polygon class="b" points="916.05 35.54 882.49 35.54 882.49 99.26 882.49 99.26 882.49 99.26 946.21 99.26 946.21 35.55 916.05 35.55 916.05 35.54"/><polygon class="b" points="916.05 0.02 882.49 0.02 882.49 29.39 882.49 29.39 882.49 29.4 946.21 29.4 946.21 0.02 916.05 0.02 916.05 0.02"/><polygon class="b" points="916.05 175.27 882.49 175.27 882.49 238.98 882.49 238.98 882.49 238.99 946.21 238.99 946.21 175.27 916.05 175.27 916.05 175.27"/><polygon class="b" points="916.05 314.99 882.49 314.99 882.49 378.71 882.49 378.71 882.49 378.71 946.21 378.71 946.21 315 916.05 315 916.05 314.99"/><polygon class="b" points="916.05 594.44 882.49 594.44 882.49 629.98 882.49 629.98 882.49 629.99 946.21 629.99 946.21 594.45 916.05 594.45 916.05 594.44"/><polygon class="b" points="916.05 524.58 882.49 524.58 882.49 588.29 882.49 588.29 882.49 588.3 946.21 588.3 946.21 524.59 916.05 524.59 916.05 524.58"/><polygon class="b" points="916.05 384.86 882.49 384.86 882.49 448.57 882.49 448.57 882.49 448.57 946.21 448.57 946.21 384.86 916.05 384.86 916.05 384.86"/><polygon class="b" points="916.05 454.72 882.49 454.72 882.49 518.43 882.49 518.43 882.49 518.43 946.21 518.43 946.21 454.72 916.05 454.72 916.05 454.72"/><polygon class="b" points="387.31 105.41 323.59 105.41 323.59 169.12 323.66 169.12 323.66 169.12 387.37 169.12 387.37 105.41 387.31 105.41 387.31 105.41"/><polygon class="b" points="387.31 175.27 323.59 175.27 323.59 238.98 323.66 238.98 323.66 238.98 387.37 238.98 387.37 175.27 387.31 175.27 387.31 175.27"/><polygon class="b" points="387.31 314.99 323.59 314.99 323.59 378.71 323.66 378.71 323.66 378.71 387.37 378.71 387.37 315 387.31 315 387.31 314.99"/><polygon class="b" points="387.31 35.54 323.59 35.54 323.59 99.26 323.66 99.26 323.66 99.26 387.37 99.26 387.37 35.55 387.31 35.55 387.31 35.54"/><polygon class="b" points="387.31 245.13 323.59 245.13 323.59 308.84 323.66 308.84 323.66 308.85 387.37 308.85 387.37 245.13 387.31 245.13 387.31 245.13"/><polygon class="b" points="527.03 0.01 463.32 0.01 463.32 29.39 463.38 29.39 463.38 29.4 527.1 29.4 527.1 0.02 527.03 0.02 527.03 0.01"/><polygon class="b" points="533.18 99.26 533.25 99.26 533.25 99.26 566.8 99.26 566.8 99.26 596.89 99.26 596.89 35.54 533.18 35.54 533.18 99.26"/><polygon class="b" points="527.03 35.54 463.32 35.54 463.32 99.26 463.38 99.26 463.38 99.26 527.1 99.26 527.1 35.55 527.03 35.55 527.03 35.54"/><path class="b" d="M387.31,384.86H323.59v61.61l.07.07v2h63.71V384.86Z"/><polygon class="b" points="387.31 0.01 323.59 0.01 323.59 29.39 323.66 29.39 323.66 29.4 387.37 29.4 387.37 0.02 387.31 0.02 387.31 0.01"/><polygon class="b" points="457.17 0.01 393.46 0.01 393.46 29.39 393.52 29.39 393.52 29.4 457.23 29.4 457.23 0.02 457.17 0.02 457.17 0.01"/><polygon class="b" points="876.34 594.44 812.63 594.44 812.63 629.98 856.41 629.98 856.41 629.99 876.34 629.99 876.34 594.45 876.34 594.45 876.34 594.44"/><polygon class="b" points="876.34 384.86 812.63 384.86 812.63 448.57 812.63 448.57 812.63 448.57 876.34 448.57 876.34 384.86 876.34 384.86 876.34 384.86"/><polygon class="b" points="876.34 454.72 812.63 454.72 812.63 518.43 812.63 518.43 812.63 518.43 876.34 518.43 876.34 454.72 876.34 454.72 876.34 454.72"/><polygon class="b" points="876.34 524.58 812.63 524.58 812.63 588.29 814.72 588.29 814.73 588.3 876.34 588.3 876.34 524.59 876.34 524.59 876.34 524.58"/><path class="b" d="M527,524.58H463.32V586.2l.06.06v2H527.1V524.58Z"/><polygon class="b" points="533.18 588.29 533.25 588.29 533.25 588.29 566.8 588.29 566.8 588.29 596.89 588.29 596.89 524.58 533.18 524.58 533.18 588.29"/><rect class="b" x="603.04" y="594.44" width="63.71" height="35.54"/><rect class="b" x="742.77" y="594.44" width="63.71" height="35.54"/><rect class="b" x="672.9" y="594.44" width="63.71" height="35.54"/><polygon class="b" points="317.51 35.55 317.44 35.55 317.44 35.54 283.89 35.54 283.89 35.55 253.8 35.55 253.8 99.26 317.51 99.26 317.51 35.55"/><rect class="b" x="323.66" y="524.58" width="63.71" height="63.71"/><rect class="b" x="253.8" y="524.58" width="63.71" height="63.71"/><polygon class="b" points="317.51 175.27 317.44 175.27 317.44 175.27 283.89 175.27 283.89 175.27 253.8 175.27 253.8 238.98 317.51 238.98 317.51 175.27"/><polygon class="b" points="317.51 245.13 317.44 245.13 317.44 245.13 283.89 245.13 283.89 245.13 253.8 245.13 253.8 308.85 317.51 308.85 317.51 245.13"/><rect class="b" x="253.8" y="454.72" width="63.71" height="63.71"/><polygon class="b" points="317.51 105.41 317.44 105.41 317.44 105.41 283.89 105.41 283.89 105.41 253.8 105.41 253.8 169.12 317.51 169.12 317.51 105.41"/><polygon class="b" points="317.51 0.02 317.44 0.02 317.44 0.01 283.89 0.01 283.89 0.02 253.8 0.02 253.8 29.4 317.51 29.4 317.51 0.02"/><rect class="b" x="253.8" y="594.44" width="63.71" height="35.54"/><rect class="b" x="393.52" y="594.44" width="63.71" height="35.54"/><rect class="b" x="323.66" y="594.44" width="63.71" height="35.54"/><polygon class="b" points="0.04 0.02 0 0.02 0 29.4 0.04 29.4 38.09 29.4 38.13 29.4 38.13 0.02 38.09 0.02 0.04 0.02"/><polygon class="b" points="0.04 175.27 0 175.27 0 238.98 0.04 238.98 38.09 238.98 38.13 238.98 38.13 175.27 38.09 175.27 0.04 175.27"/><polygon class="b" points="0.04 105.41 0 105.41 0 169.12 0.04 169.12 38.09 169.12 38.13 169.12 38.13 105.41 38.09 105.41 0.04 105.41"/><polygon class="b" points="0.04 35.55 0 35.55 0 99.26 0.04 99.26 38.09 99.26 38.13 99.26 38.13 35.55 38.09 35.55 0.04 35.55"/><rect class="b" x="0.04" y="524.58" width="38.09" height="63.71"/><polygon class="b" points="44.28 315 44.21 315 44.21 378.71 44.28 378.71 107.92 378.71 107.99 378.71 107.99 315 107.92 315 44.28 315"/><polygon class="b" points="44.28 175.27 44.21 175.27 44.21 238.98 44.28 238.98 107.92 238.98 107.99 238.98 107.99 175.27 107.92 175.27 44.28 175.27"/><polygon class="b" points="44.28 245.13 44.21 245.13 44.21 308.85 44.28 308.85 107.92 308.85 107.99 308.85 107.99 245.13 107.92 245.13 44.28 245.13"/><polygon class="b" points="44.28 35.55 44.21 35.55 44.21 99.26 44.28 99.26 107.92 99.26 107.99 99.26 107.99 35.55 107.92 35.55 44.28 35.55"/><polygon class="b" points="44.28 105.41 44.21 105.41 44.21 169.12 44.28 169.12 107.92 169.12 107.99 169.12 107.99 105.41 107.92 105.41 44.28 105.41"/><polygon class="b" points="44.28 0.02 44.21 0.02 44.21 29.4 44.28 29.4 107.92 29.4 107.99 29.4 107.99 0.02 107.92 0.02 44.28 0.02"/><polygon class="b" points="52.45 524.58 44.28 524.58 44.28 588.29 107.99 588.29 107.99 524.58 107.92 524.58 52.45 524.58"/><path class="b" d="M44.28,454.72h-.07v61.62l.07.07v2H108V454.72H44.28Z"/><polygon class="b" points="44.28 384.86 44.21 384.86 44.21 448.57 44.28 448.57 107.92 448.57 107.99 448.57 107.99 384.86 107.92 384.86 44.28 384.86"/><polygon class="b" points="0.04 245.13 0 245.13 0 308.85 0.04 308.85 38.09 308.85 38.13 308.85 38.13 245.13 38.09 245.13 0.04 245.13"/><polygon class="b" points="4.93 454.72 0.04 454.72 0.04 518.43 38.13 518.43 38.13 454.72 38.09 454.72 4.93 454.72"/><polygon class="b" points="0.04 315 0 315 0 378.71 0.04 378.71 38.09 378.71 38.13 378.71 38.13 315 38.09 315 0.04 315"/><path class="b" d="M0,384.86H0v61.61l0,.07v2H38.13V384.86H0Z"/><polygon class="b" points="114.14 35.55 114.07 35.55 114.07 99.26 114.14 99.26 177.78 99.26 177.85 99.26 177.85 35.55 177.78 35.55 114.14 35.55"/><polygon class="b" points="114.14 0.02 114.07 0.02 114.07 29.4 114.14 29.4 177.78 29.4 177.85 29.4 177.85 0.02 177.78 0.02 114.14 0.02"/><polygon class="b" points="114.14 105.41 114.07 105.41 114.07 169.12 114.14 169.12 177.78 169.12 177.85 169.12 177.85 105.41 177.78 105.41 114.14 105.41"/><polygon class="b" points="184 105.41 183.93 105.41 183.93 169.12 184 169.12 217.56 169.12 247.65 169.12 247.65 105.41 217.56 105.41 184 105.41"/><polygon class="b" points="184 245.13 183.93 245.13 183.93 308.85 184 308.85 217.56 308.85 247.65 308.85 247.65 245.13 217.56 245.13 184 245.13"/><polygon class="b" points="184 35.55 183.93 35.55 183.93 99.26 184 99.26 217.56 99.26 247.65 99.26 247.65 35.55 217.56 35.55 184 35.55"/><polygon class="b" points="184 0.02 183.93 0.02 183.93 29.4 184 29.4 217.56 29.4 247.65 29.4 247.65 0.02 217.56 0.02 184 0.02"/><polygon class="b" points="184 175.27 183.93 175.27 183.93 238.98 184 238.98 217.56 238.98 247.65 238.98 247.65 175.27 217.56 175.27 184 175.27"/><polygon class="b" points="184 315 183.93 315 183.93 378.71 184 378.71 217.56 378.71 247.65 378.71 247.65 315 217.56 315 184 315"/><polygon class="b" points="184 594.44 183.93 594.44 183.93 629.98 184 629.98 217.56 629.98 247.65 629.98 247.65 594.44 217.56 594.44 184 594.44"/><polygon class="b" points="184 524.58 183.93 524.58 183.93 588.29 184 588.29 217.56 588.29 247.65 588.29 247.65 524.58 217.56 524.58 184 524.58"/><polygon class="b" points="184 384.86 183.93 384.86 183.93 448.57 184 448.57 217.56 448.57 247.65 448.57 247.65 384.86 217.56 384.86 184 384.86"/><polygon class="b" points="184 454.72 183.93 454.72 183.93 518.43 184 518.43 217.56 518.43 247.65 518.43 247.65 454.72 217.56 454.72 184 454.72"/><polygon class="b" points="122.32 594.44 114.14 594.44 114.14 629.98 157.86 629.98 177.78 629.98 177.85 629.98 177.85 594.44 177.78 594.44 122.32 594.44"/><polygon class="b" points="114.14 384.86 114.07 384.86 114.07 448.57 114.14 448.57 177.78 448.57 177.85 448.57 177.85 384.86 177.78 384.86 114.14 384.86"/><polygon class="b" points="114.14 454.72 114.07 454.72 114.07 518.43 114.14 518.43 177.78 518.43 177.85 518.43 177.85 454.72 177.78 454.72 114.14 454.72"/><polygon class="b" points="114.14 245.13 114.07 245.13 114.07 308.85 114.14 308.85 177.78 308.85 177.85 308.85 177.85 245.13 177.78 245.13 114.14 245.13"/><path class="b" d="M114.14,524.58h-.07V586.2l.07.07v2h63.71V524.58H114.14Z"/><polygon class="b" points="114.14 315 114.07 315 114.07 378.71 114.14 378.71 177.78 378.71 177.85 378.71 177.85 315 177.78 315 114.14 315"/><rect class="b" x="44.28" y="594.44" width="63.71" height="35.54"/><rect class="b" x="0.04" y="594.44" width="38.09" height="35.54"/><polygon class="b" points="114.14 175.27 114.07 175.27 114.07 238.98 114.14 238.98 177.78 238.98 177.85 238.98 177.85 175.27 177.78 175.27 114.14 175.27"/><rect class="aa" x="768.4" y="558.9" width="1200" height="630"/><polygon class="b" points="1511.17 867.75 1574.88 867.75 1574.88 804.03 1574.88 804.03 1574.88 804.03 1511.17 804.03 1511.17 867.74 1511.17 867.74 1511.17 867.75"/><polygon class="b" points="1574.88 873.9 1574.88 873.89 1511.17 873.89 1511.17 937.61 1511.17 937.61 1511.17 937.61 1574.88 937.61 1574.88 873.9 1574.88 873.9"/><rect class="b" x="1790.62" y="558.92" width="63.71" height="29.38"/><rect class="b" x="1790.62" y="734.17" width="63.71" height="63.71"/><rect class="b" x="1790.62" y="664.31" width="63.71" height="63.71"/><rect class="b" x="1790.62" y="594.45" width="63.71" height="63.71"/><rect class="b" x="1720.76" y="594.45" width="63.71" height="63.71"/><polygon class="b" points="1581.03 728.02 1644.75 728.02 1644.75 664.31 1644.75 664.31 1644.75 664.31 1581.03 664.31 1581.03 728.02 1581.03 728.02 1581.03 728.02"/><rect class="b" x="1790.62" y="1083.48" width="63.71" height="63.71"/><rect class="b" x="1860.48" y="873.9" width="63.71" height="63.71"/><rect class="b" x="1860.48" y="734.17" width="63.71" height="63.71"/><rect class="b" x="1860.48" y="804.04" width="63.71" height="63.71"/><rect class="b" x="1860.48" y="594.45" width="63.71" height="63.71"/><rect class="b" x="1860.48" y="664.31" width="63.71" height="63.71"/><rect class="b" x="1860.48" y="558.92" width="63.71" height="29.38"/><rect class="b" x="1720.76" y="1083.48" width="63.71" height="63.71"/><rect class="b" x="1860.48" y="1083.48" width="63.71" height="63.71"/><rect class="b" x="1860.48" y="1013.62" width="63.71" height="63.71"/><rect class="b" x="1860.48" y="943.76" width="63.71" height="63.71"/><polygon class="b" points="1511.17 797.88 1574.88 797.88 1574.88 734.17 1574.88 734.17 1574.88 734.17 1511.17 734.17 1511.17 797.88 1511.17 797.88 1511.17 797.88"/><rect class="b" x="1720.76" y="943.76" width="63.71" height="63.71"/><rect class="b" x="1720.76" y="873.9" width="63.71" height="63.71"/><rect class="b" x="1720.76" y="734.17" width="63.71" height="63.71"/><rect class="b" x="1720.76" y="804.04" width="63.71" height="63.71"/><polygon class="b" points="1511.17 658.16 1574.88 658.16 1574.88 594.45 1574.88 594.45 1574.88 594.44 1511.17 594.44 1511.17 658.16 1511.17 658.16 1511.17 658.16"/><rect class="b" x="1790.62" y="804.04" width="63.71" height="63.71"/><polygon class="b" points="1511.17 728.02 1574.88 728.02 1574.88 664.31 1574.88 664.31 1574.88 664.31 1511.17 664.31 1511.17 728.02 1511.17 728.02 1511.17 728.02"/><rect class="b" x="1790.62" y="1013.62" width="63.71" height="63.71"/><rect class="b" x="1720.76" y="1013.62" width="63.71" height="63.71"/><rect class="b" x="1790.62" y="873.9" width="63.71" height="63.71"/><rect class="b" x="1720.76" y="664.31" width="63.71" height="63.71"/><rect class="b" x="1790.62" y="943.76" width="63.71" height="63.71"/><polygon class="b" points="1581.03 797.88 1644.75 797.88 1644.75 734.17 1644.75 734.17 1644.75 734.17 1581.03 734.17 1581.03 797.88 1581.03 797.88 1581.03 797.88"/><polygon class="b" points="1644.75 873.9 1644.75 873.89 1581.03 873.89 1581.03 937.61 1581.04 937.61 1581.04 937.61 1644.75 937.61 1644.75 873.9 1644.75 873.9"/><polygon class="b" points="1581.03 867.75 1644.75 867.75 1644.75 804.03 1644.75 804.03 1644.75 804.03 1581.03 804.03 1581.03 867.74 1581.03 867.74 1581.03 867.75"/><rect class="b" x="1720.76" y="558.92" width="63.71" height="29.38"/><rect class="b" x="1930.35" y="594.45" width="38.06" height="63.71"/><rect class="b" x="1930.35" y="558.92" width="38.06" height="29.38"/><rect class="b" x="1930.35" y="664.31" width="38.06" height="63.71"/><polygon class="b" points="1581.03 588.3 1644.75 588.3 1644.75 558.92 1644.75 558.92 1644.75 558.91 1581.03 558.91 1581.03 588.29 1581.03 588.29 1581.03 588.3"/><polygon class="b" points="1581.03 658.16 1644.75 658.16 1644.75 594.45 1644.75 594.45 1644.75 594.44 1581.03 594.44 1581.03 658.16 1581.03 658.16 1581.03 658.16"/><polygon class="b" points="1511.17 588.3 1574.88 588.3 1574.88 558.92 1574.88 558.92 1574.88 558.91 1511.17 558.91 1511.17 588.29 1511.17 588.29 1511.17 588.3"/><rect class="b" x="1930.35" y="1153.35" width="38.06" height="35.54"/><rect class="b" x="1930.35" y="943.76" width="38.06" height="63.71"/><rect class="b" x="1930.35" y="1013.62" width="38.06" height="63.71"/><rect class="b" x="1930.35" y="804.04" width="38.06" height="63.71"/><rect class="b" x="1930.35" y="1083.48" width="38.06" height="63.71"/><rect class="b" x="1930.35" y="873.9" width="38.06" height="63.71"/><rect class="b" x="1720.76" y="1153.35" width="63.71" height="35.54"/><rect class="b" x="1860.48" y="1153.35" width="63.71" height="35.54"/><rect class="b" x="1790.62" y="1153.35" width="63.71" height="35.54"/><rect class="b" x="1930.35" y="734.17" width="38.06" height="63.71"/><polygon class="b" points="1225.57 804.03 1161.86 804.03 1161.86 867.74 1161.92 867.74 1161.92 867.75 1225.64 867.75 1225.64 804.03 1225.57 804.03 1225.57 804.03"/><polygon class="b" points="1225.57 873.89 1161.86 873.89 1161.86 937.61 1161.92 937.61 1161.92 937.61 1225.64 937.61 1225.64 873.89 1225.57 873.89 1225.57 873.89"/><polygon class="b" points="1505.02 558.91 1441.31 558.91 1441.31 588.29 1441.31 588.29 1441.31 588.3 1505.02 588.3 1505.02 558.92 1505.02 558.92 1505.02 558.91"/><polygon class="b" points="1225.57 943.75 1161.86 943.75 1161.86 1007.47 1161.92 1007.47 1161.92 1007.47 1225.64 1007.47 1225.64 943.76 1225.57 943.76 1225.57 943.75"/><polygon class="b" points="1295.43 1013.62 1231.72 1013.62 1231.72 1077.33 1231.79 1077.33 1231.79 1077.33 1295.5 1077.33 1295.5 1013.62 1295.43 1013.62 1295.43 1013.62"/><polygon class="b" points="1505.02 734.17 1441.31 734.17 1441.31 797.88 1441.31 797.88 1441.31 797.88 1505.02 797.88 1505.02 734.17 1505.02 734.17 1505.02 734.17"/><polygon class="b" points="1505.02 664.31 1441.31 664.31 1441.31 728.02 1441.31 728.02 1441.31 728.02 1505.02 728.02 1505.02 664.31 1505.02 664.31 1505.02 664.31"/><polygon class="b" points="1505.02 594.44 1441.31 594.44 1441.31 658.16 1441.31 658.16 1441.31 658.16 1505.02 658.16 1505.02 594.45 1505.02 594.45 1505.02 594.44"/><polygon class="b" points="1301.58 728.02 1301.65 728.02 1301.65 728.02 1335.21 728.02 1335.21 728.02 1365.3 728.02 1365.3 664.31 1301.58 664.31 1301.58 728.02"/><polygon class="b" points="1435.16 594.44 1371.45 594.44 1371.45 658.16 1401.6 658.16 1401.6 658.16 1435.16 658.16 1435.16 594.45 1435.16 594.45 1435.16 594.44"/><polygon class="b" points="1295.43 664.31 1231.72 664.31 1231.72 728.02 1231.79 728.02 1231.79 728.02 1295.5 728.02 1295.5 664.31 1295.43 664.31 1295.43 664.31"/><rect class="b" x="1441.31" y="1083.48" width="63.71" height="63.71"/><polygon class="b" points="1301.59 1077.33 1301.65 1077.33 1301.65 1077.33 1335.21 1077.33 1335.21 1077.33 1365.3 1077.33 1365.3 1013.62 1301.59 1013.62 1301.59 1077.33"/><rect class="b" x="1371.45" y="1083.48" width="63.71" height="63.71"/><polygon class="b" points="1574.88 1083.48 1511.17 1083.48 1511.17 1147.19 1574.88 1147.19 1574.88 1138.95 1574.88 1138.95 1574.88 1083.48 1574.88 1083.48 1574.88 1083.48"/><polygon class="b" points="1574.88 1013.62 1511.17 1013.62 1511.17 1077.33 1513.26 1077.33 1513.27 1077.33 1574.88 1077.33 1574.88 1013.62 1574.88 1013.62 1574.88 1013.62"/><polygon class="b" points="1574.88 943.75 1511.17 943.75 1511.17 1007.47 1511.17 1007.47 1511.17 1007.47 1574.88 1007.47 1574.88 943.76 1574.88 943.76 1574.88 943.75"/><polygon class="b" points="1225.57 734.17 1161.86 734.17 1161.86 797.88 1161.92 797.88 1161.92 797.88 1225.64 797.88 1225.64 734.17 1225.57 734.17 1225.57 734.17"/><polygon class="b" points="1301.58 867.74 1301.65 867.74 1301.65 867.75 1335.21 867.75 1335.21 867.74 1365.3 867.74 1365.3 804.03 1301.58 804.03 1301.58 867.74"/><polygon class="b" points="1435.16 943.75 1371.45 943.75 1371.45 1007.47 1435.16 1007.47 1435.16 999.23 1435.16 999.23 1435.16 943.76 1435.16 943.76 1435.16 943.75"/><polygon class="b" points="1301.59 937.61 1301.65 937.61 1301.65 937.61 1335.21 937.61 1335.21 937.61 1365.3 937.61 1365.3 873.89 1301.58 873.89 1301.59 937.61"/><polygon class="b" points="1435.16 873.89 1371.45 873.89 1371.45 937.61 1401.6 937.61 1401.6 937.61 1435.16 937.61 1435.16 873.9 1435.16 873.9 1435.16 873.89"/><polygon class="b" points="1435.16 734.17 1371.45 734.17 1371.45 797.88 1401.6 797.88 1401.6 797.88 1435.16 797.88 1435.16 734.17 1435.16 734.17 1435.16 734.17"/><polygon class="b" points="1435.16 804.03 1371.45 804.03 1371.45 867.74 1401.6 867.74 1401.6 867.75 1435.16 867.75 1435.16 804.03 1435.16 804.03 1435.16 804.03"/><polygon class="b" points="1225.57 1083.48 1170.11 1083.48 1170.11 1083.48 1161.92 1083.48 1161.92 1147.19 1225.64 1147.19 1225.64 1083.48 1225.57 1083.48 1225.57 1083.48"/><polygon class="b" points="1225.57 594.44 1161.86 594.44 1161.86 658.16 1161.92 658.16 1161.92 658.16 1225.64 658.16 1225.64 594.45 1225.57 594.45 1225.57 594.44"/><polygon class="b" points="1505.02 804.03 1441.31 804.03 1441.31 867.74 1441.31 867.74 1441.31 867.75 1505.02 867.75 1505.02 804.03 1505.02 804.03 1505.02 804.03"/><polygon class="b" points="1225.57 664.31 1161.86 664.31 1161.86 728.02 1161.92 728.02 1161.92 728.02 1225.64 728.02 1225.64 664.31 1225.57 664.31 1225.57 664.31"/><path class="b" d="M1225.57,1013.62h-63.71v61.61l.06.07v2h63.72v-63.71Z"/><polygon class="b" points="1155.71 1013.62 1100.24 1013.62 1100.25 1013.62 1092.06 1013.62 1092.06 1077.33 1155.78 1077.33 1155.78 1013.62 1155.71 1013.62 1155.71 1013.62"/><polygon class="b" points="1505.02 1013.62 1441.31 1013.62 1441.31 1077.33 1505.02 1077.33 1505.02 1069.09 1505.02 1069.09 1505.02 1013.62 1505.02 1013.62 1505.02 1013.62"/><rect class="b" x="1371.45" y="1013.62" width="63.71" height="63.71"/><polygon class="b" points="1301.59 1007.47 1301.65 1007.47 1301.65 1007.47 1335.21 1007.47 1335.21 1007.47 1365.3 1007.47 1365.3 943.75 1301.59 943.75 1301.59 1007.47"/><polygon class="b" points="1505.02 873.89 1441.31 873.89 1441.31 937.61 1441.31 937.61 1441.31 937.61 1505.02 937.61 1505.02 873.9 1505.02 873.9 1505.02 873.89"/><polygon class="b" points="1435.16 664.31 1371.45 664.31 1371.45 728.02 1401.6 728.02 1401.6 728.02 1435.16 728.02 1435.16 664.31 1435.16 664.31 1435.16 664.31"/><polygon class="b" points="1505.02 943.75 1441.31 943.75 1441.31 1007.47 1443.4 1007.47 1443.41 1007.47 1505.02 1007.47 1505.02 943.76 1505.02 943.76 1505.02 943.75"/><polygon class="b" points="1295.43 734.17 1231.72 734.17 1231.72 797.88 1231.79 797.88 1231.79 797.88 1295.5 797.88 1295.5 734.17 1295.43 734.17 1295.43 734.17"/><polygon class="b" points="1301.58 797.88 1301.65 797.88 1301.65 797.88 1335.21 797.88 1335.21 797.88 1365.3 797.88 1365.3 734.17 1301.58 734.17 1301.58 797.88"/><polygon class="b" points="1295.43 943.75 1231.72 943.75 1231.72 1007.47 1231.79 1007.47 1231.79 1007.47 1295.5 1007.47 1295.5 943.76 1295.43 943.76 1295.43 943.75"/><polygon class="b" points="1295.43 873.89 1231.72 873.89 1231.72 937.61 1231.79 937.61 1231.79 937.61 1295.5 937.61 1295.5 873.89 1295.43 873.89 1295.43 873.89"/><polygon class="b" points="1295.43 804.03 1231.72 804.03 1231.72 867.74 1231.79 867.74 1231.79 867.75 1295.5 867.75 1295.5 804.03 1295.43 804.03 1295.43 804.03"/><polygon class="b" points="1435.16 558.91 1371.45 558.91 1371.45 588.29 1401.6 588.29 1401.6 588.3 1435.16 588.3 1435.16 558.92 1435.16 558.92 1435.16 558.91"/><polygon class="b" points="1085.85 873.89 1052.29 873.89 1052.29 873.89 1022.2 873.89 1022.2 937.61 1085.91 937.61 1085.91 873.89 1085.85 873.89 1085.85 873.89"/><polygon class="b" points="1085.85 943.75 1052.29 943.75 1052.29 943.76 1022.2 943.76 1022.2 1007.47 1085.91 1007.47 1085.91 943.76 1085.85 943.76 1085.85 943.75"/><polygon class="b" points="1295.43 1153.34 1239.97 1153.34 1239.97 1153.34 1231.79 1153.34 1231.79 1188.88 1295.5 1188.88 1295.5 1153.34 1295.43 1153.34 1295.43 1153.34"/><polygon class="b" points="1301.58 588.29 1301.65 588.29 1301.65 588.3 1335.21 588.3 1335.21 588.29 1365.3 588.29 1365.3 558.91 1301.58 558.91 1301.58 588.29"/><polygon class="b" points="1301.59 1188.88 1301.65 1188.88 1301.65 1188.88 1335.21 1188.88 1335.21 1188.88 1365.3 1188.88 1365.3 1153.34 1301.59 1153.34 1301.59 1188.88"/><polygon class="b" points="1684.45 664.31 1650.89 664.31 1650.89 728.02 1650.9 728.02 1650.9 728.02 1714.61 728.02 1714.61 664.31 1684.45 664.31 1684.45 664.31"/><polygon class="b" points="1684.45 804.03 1650.89 804.03 1650.89 867.74 1650.9 867.74 1650.9 867.75 1714.61 867.75 1714.61 804.03 1684.45 804.03 1684.45 804.03"/><polygon class="b" points="1684.45 594.44 1650.89 594.44 1650.89 658.16 1650.9 658.16 1650.9 658.16 1714.61 658.16 1714.61 594.45 1684.45 594.45 1684.45 594.44"/><polygon class="b" points="1684.45 558.91 1650.89 558.91 1650.89 588.29 1650.9 588.29 1650.9 588.3 1714.61 588.3 1714.61 558.92 1684.45 558.92 1684.45 558.91"/><polygon class="b" points="1684.45 734.17 1650.89 734.17 1650.89 797.88 1650.9 797.88 1650.9 797.88 1714.61 797.88 1714.61 734.17 1684.45 734.17 1684.45 734.17"/><polygon class="b" points="1684.45 873.89 1650.9 873.89 1650.9 937.61 1650.9 937.61 1650.9 937.61 1714.61 937.61 1714.61 873.9 1684.45 873.9 1684.45 873.89"/><polygon class="b" points="1684.45 1153.34 1650.9 1153.34 1650.9 1188.88 1650.9 1188.88 1650.9 1188.88 1714.61 1188.88 1714.61 1153.35 1684.45 1153.35 1684.45 1153.34"/><polygon class="b" points="1684.45 1083.48 1650.9 1083.48 1650.9 1147.19 1650.9 1147.19 1650.9 1147.2 1714.61 1147.2 1714.61 1083.48 1684.45 1083.48 1684.45 1083.48"/><polygon class="b" points="1684.45 943.75 1650.9 943.75 1650.9 1007.47 1650.9 1007.47 1650.9 1007.47 1714.61 1007.47 1714.61 943.76 1684.45 943.76 1684.45 943.75"/><polygon class="b" points="1684.45 1013.62 1650.9 1013.62 1650.9 1077.33 1650.9 1077.33 1650.9 1077.33 1714.61 1077.33 1714.61 1013.62 1684.45 1013.62 1684.45 1013.62"/><polygon class="b" points="1155.71 664.31 1092 664.31 1092 728.02 1092.06 728.02 1092.06 728.02 1155.78 728.02 1155.78 664.31 1155.71 664.31 1155.71 664.31"/><polygon class="b" points="1155.71 734.17 1092 734.17 1092 797.88 1092.06 797.88 1092.06 797.88 1155.78 797.88 1155.78 734.17 1155.71 734.17 1155.71 734.17"/><polygon class="b" points="1155.71 873.89 1092 873.89 1092 937.61 1092.06 937.61 1092.06 937.61 1155.78 937.61 1155.78 873.89 1155.71 873.89 1155.71 873.89"/><polygon class="b" points="1155.71 594.44 1092 594.44 1092 658.16 1092.06 658.16 1092.06 658.16 1155.78 658.16 1155.78 594.45 1155.71 594.45 1155.71 594.44"/><polygon class="b" points="1155.71 804.03 1092 804.03 1092 867.74 1092.06 867.74 1092.06 867.75 1155.78 867.75 1155.78 804.03 1155.71 804.03 1155.71 804.03"/><polygon class="b" points="1295.43 558.91 1231.72 558.91 1231.72 588.29 1231.79 588.29 1231.79 588.3 1295.5 588.3 1295.5 558.92 1295.43 558.92 1295.43 558.91"/><polygon class="b" points="1301.58 658.16 1301.65 658.16 1301.65 658.16 1335.21 658.16 1335.21 658.16 1365.3 658.16 1365.3 594.44 1301.58 594.44 1301.58 658.16"/><polygon class="b" points="1295.43 594.44 1231.72 594.44 1231.72 658.16 1231.79 658.16 1231.79 658.16 1295.5 658.16 1295.5 594.45 1295.43 594.45 1295.43 594.44"/><path class="b" d="M1155.71,943.75H1092v61.62l.06.07v2h63.72V943.76h-.07Z"/><polygon class="b" points="1155.71 558.91 1092 558.91 1092 588.29 1092.06 588.29 1092.06 588.3 1155.78 588.3 1155.78 558.92 1155.71 558.92 1155.71 558.91"/><polygon class="b" points="1225.57 558.91 1161.86 558.91 1161.86 588.29 1161.92 588.29 1161.92 588.3 1225.64 588.3 1225.64 558.92 1225.57 558.92 1225.57 558.91"/><polygon class="b" points="1644.75 1153.34 1581.03 1153.34 1581.03 1188.88 1624.81 1188.88 1624.82 1188.88 1644.75 1188.88 1644.75 1153.35 1644.75 1153.35 1644.75 1153.34"/><polygon class="b" points="1644.75 943.75 1581.03 943.75 1581.03 1007.47 1581.04 1007.47 1581.04 1007.47 1644.75 1007.47 1644.75 943.76 1644.75 943.76 1644.75 943.75"/><polygon class="b" points="1644.75 1013.62 1581.03 1013.62 1581.03 1077.33 1581.04 1077.33 1581.04 1077.33 1644.75 1077.33 1644.75 1013.62 1644.75 1013.62 1644.75 1013.62"/><polygon class="b" points="1644.75 1083.48 1581.03 1083.48 1581.03 1147.19 1583.13 1147.19 1583.13 1147.2 1644.75 1147.2 1644.75 1083.48 1644.75 1083.48 1644.75 1083.48"/><path class="b" d="M1295.43,1083.48h-63.71v61.62l.07.06v2h63.71v-63.71Z"/><polygon class="b" points="1301.59 1147.19 1301.65 1147.19 1301.65 1147.19 1335.21 1147.19 1335.21 1147.19 1365.3 1147.19 1365.3 1083.48 1301.59 1083.48 1301.59 1147.19"/><rect class="b" x="1371.45" y="1153.34" width="63.71" height="35.54"/><rect class="b" x="1511.17" y="1153.34" width="63.71" height="35.54"/><rect class="b" x="1441.31" y="1153.34" width="63.71" height="35.54"/><polygon class="b" points="1085.91 594.45 1085.85 594.45 1085.85 594.44 1052.29 594.44 1052.29 594.45 1022.2 594.45 1022.2 658.16 1085.91 658.16 1085.91 594.45"/><rect class="b" x="1092.06" y="1083.48" width="63.71" height="63.71"/><rect class="b" x="1022.2" y="1083.48" width="63.71" height="63.71"/><polygon class="b" points="1085.91 734.17 1085.85 734.17 1085.85 734.17 1052.29 734.17 1052.29 734.17 1022.2 734.17 1022.2 797.88 1085.91 797.88 1085.91 734.17"/><polygon class="b" points="1085.91 804.03 1085.85 804.03 1085.85 804.03 1052.29 804.03 1052.29 804.03 1022.2 804.03 1022.2 867.75 1085.91 867.75 1085.91 804.03"/><rect class="b" x="1022.2" y="1013.62" width="63.71" height="63.71"/><polygon class="b" points="1085.91 664.31 1085.85 664.31 1085.85 664.31 1052.29 664.31 1052.29 664.31 1022.2 664.31 1022.2 728.02 1085.91 728.02 1085.91 664.31"/><polygon class="b" points="1085.91 558.92 1085.85 558.92 1085.85 558.91 1052.29 558.91 1052.29 558.92 1022.2 558.92 1022.2 588.3 1085.91 588.3 1085.91 558.92"/><rect class="b" x="1022.2" y="1153.34" width="63.71" height="35.54"/><rect class="b" x="1161.92" y="1153.34" width="63.71" height="35.54"/><rect class="b" x="1092.06" y="1153.34" width="63.71" height="35.54"/><polygon class="b" points="768.45 558.92 768.4 558.92 768.4 588.3 768.45 588.3 806.49 588.3 806.53 588.3 806.53 558.92 806.49 558.92 768.45 558.92"/><polygon class="b" points="768.45 734.17 768.4 734.17 768.4 797.88 768.45 797.88 806.49 797.88 806.53 797.88 806.53 734.17 806.49 734.17 768.45 734.17"/><polygon class="b" points="768.45 664.31 768.4 664.31 768.4 728.02 768.45 728.02 806.49 728.02 806.53 728.02 806.53 664.31 806.49 664.31 768.45 664.31"/><polygon class="b" points="768.45 594.45 768.4 594.45 768.4 658.16 768.45 658.16 806.49 658.16 806.53 658.16 806.53 594.45 806.49 594.45 768.45 594.45"/><rect class="b" x="768.45" y="1083.48" width="38.09" height="63.71"/><polygon class="b" points="812.68 873.89 812.61 873.89 812.61 937.61 812.68 937.61 876.33 937.61 876.4 937.61 876.4 873.89 876.33 873.89 812.68 873.89"/><polygon class="b" points="812.68 734.17 812.61 734.17 812.61 797.88 812.68 797.88 876.33 797.88 876.4 797.88 876.4 734.17 876.33 734.17 812.68 734.17"/><polygon class="b" points="812.68 804.03 812.61 804.03 812.61 867.75 812.68 867.75 876.33 867.75 876.4 867.75 876.4 804.03 876.33 804.03 812.68 804.03"/><polygon class="b" points="812.68 594.45 812.61 594.45 812.61 658.16 812.68 658.16 876.33 658.16 876.4 658.16 876.4 594.45 876.33 594.45 812.68 594.45"/><polygon class="b" points="812.68 664.31 812.61 664.31 812.61 728.02 812.68 728.02 876.33 728.02 876.4 728.02 876.4 664.31 876.33 664.31 812.68 664.31"/><polygon class="b" points="812.68 558.92 812.61 558.92 812.61 588.3 812.68 588.3 876.33 588.3 876.4 588.3 876.4 558.92 876.33 558.92 812.68 558.92"/><polygon class="b" points="820.86 1083.48 812.68 1083.48 812.68 1147.19 876.4 1147.19 876.4 1083.48 876.33 1083.48 820.86 1083.48"/><path class="b" d="M812.68,1013.62h-.07v61.62l.07.06v2H876.4v-63.71H812.68Z"/><polygon class="b" points="812.68 943.76 812.61 943.76 812.61 1007.47 812.68 1007.47 876.33 1007.47 876.4 1007.47 876.4 943.76 876.33 943.76 812.68 943.76"/><polygon class="b" points="768.45 804.03 768.4 804.03 768.4 867.75 768.45 867.75 806.49 867.75 806.53 867.75 806.53 804.03 806.49 804.03 768.45 804.03"/><polygon class="b" points="773.33 1013.62 768.45 1013.62 768.45 1077.33 806.53 1077.33 806.53 1013.62 806.49 1013.62 773.33 1013.62"/><polygon class="b" points="768.45 873.89 768.4 873.89 768.4 937.61 768.45 937.61 806.49 937.61 806.53 937.61 806.53 873.89 806.49 873.89 768.45 873.89"/><path class="b" d="M768.45,943.76h-.05v61.61l.05.07v2h38.08V943.76H768.45Z"/><polygon class="b" points="882.55 594.45 882.48 594.45 882.48 658.16 882.54 658.16 946.19 658.16 946.26 658.16 946.26 594.45 946.19 594.45 882.55 594.45"/><polygon class="b" points="882.55 558.92 882.48 558.92 882.48 588.3 882.55 588.3 946.19 588.3 946.26 588.3 946.26 558.92 946.19 558.92 882.55 558.92"/><polygon class="b" points="882.54 664.31 882.48 664.31 882.48 728.02 882.54 728.02 946.19 728.02 946.26 728.02 946.26 664.31 946.19 664.31 882.54 664.31"/><polygon class="b" points="952.41 664.31 952.34 664.31 952.34 728.02 952.41 728.02 985.96 728.02 1016.05 728.02 1016.05 664.31 985.96 664.31 952.41 664.31"/><polygon class="b" points="952.41 804.03 952.34 804.03 952.34 867.75 952.41 867.75 985.96 867.75 1016.05 867.75 1016.05 804.03 985.96 804.03 952.41 804.03"/><polygon class="b" points="952.41 594.45 952.34 594.45 952.34 658.16 952.41 658.16 985.96 658.16 1016.05 658.16 1016.05 594.45 985.96 594.45 952.41 594.45"/><polygon class="b" points="952.41 558.92 952.34 558.92 952.34 588.3 952.41 588.3 985.96 588.3 1016.05 588.3 1016.05 558.92 985.96 558.92 952.41 558.92"/><polygon class="b" points="952.41 734.17 952.34 734.17 952.34 797.88 952.41 797.88 985.96 797.88 1016.05 797.88 1016.05 734.17 985.96 734.17 952.41 734.17"/><polygon class="b" points="952.41 873.89 952.34 873.89 952.34 937.61 952.41 937.61 985.96 937.61 1016.05 937.61 1016.05 873.89 985.96 873.89 952.41 873.89"/><polygon class="b" points="952.41 1153.34 952.34 1153.34 952.34 1188.88 952.41 1188.88 985.96 1188.88 1016.05 1188.88 1016.05 1153.34 985.96 1153.34 952.41 1153.34"/><polygon class="b" points="952.41 1083.48 952.34 1083.48 952.34 1147.19 952.41 1147.19 985.96 1147.19 1016.05 1147.19 1016.05 1083.48 985.96 1083.48 952.41 1083.48"/><polygon class="b" points="952.41 943.76 952.34 943.76 952.34 1007.47 952.41 1007.47 985.96 1007.47 1016.05 1007.47 1016.05 943.76 985.96 943.76 952.41 943.76"/><polygon class="b" points="952.41 1013.62 952.34 1013.62 952.34 1077.33 952.41 1077.33 985.96 1077.33 1016.05 1077.33 1016.05 1013.62 985.96 1013.62 952.41 1013.62"/><polygon class="b" points="890.72 1153.34 882.54 1153.34 882.54 1188.88 926.26 1188.88 946.19 1188.88 946.26 1188.88 946.26 1153.34 946.19 1153.34 890.72 1153.34"/><polygon class="b" points="882.54 943.76 882.48 943.76 882.48 1007.47 882.54 1007.47 946.19 1007.47 946.26 1007.47 946.26 943.76 946.19 943.76 882.54 943.76"/><polygon class="b" points="882.54 1013.62 882.48 1013.62 882.48 1077.33 882.54 1077.33 946.19 1077.33 946.26 1077.33 946.26 1013.62 946.19 1013.62 882.54 1013.62"/><polygon class="b" points="882.54 804.03 882.48 804.03 882.48 867.75 882.54 867.75 946.19 867.75 946.26 867.75 946.26 804.03 946.19 804.03 882.54 804.03"/><path class="b" d="M882.55,1083.48h-.07v61.62l.07.07v2h63.71v-63.71H882.55Z"/><polygon class="b" points="882.54 873.89 882.48 873.89 882.48 937.61 882.54 937.61 946.19 937.61 946.26 937.61 946.26 873.89 946.19 873.89 882.54 873.89"/><rect class="b" x="812.68" y="1153.34" width="63.71" height="35.54"/><rect class="b" x="768.45" y="1153.34" width="38.09" height="35.54"/><polygon class="b" points="882.54 734.17 882.48 734.17 882.48 797.88 882.54 797.88 946.19 797.88 946.26 797.88 946.26 734.17 946.19 734.17 882.54 734.17"/><rect class="aa" x="768.4" width="1200" height="630"/><polygon class="b" points="1511.17 308.85 1574.88 308.85 1574.88 245.14 1574.88 245.14 1574.88 245.13 1511.17 245.13 1511.17 308.84 1511.17 308.84 1511.17 308.85"/><polygon class="b" points="1574.88 315 1574.88 314.99 1511.17 314.99 1511.17 378.71 1511.17 378.71 1511.17 378.71 1574.88 378.71 1574.88 315 1574.88 315"/><rect class="b" x="1790.62" y="0.02" width="63.71" height="29.38"/><rect class="b" x="1790.62" y="175.27" width="63.71" height="63.71"/><rect class="b" x="1790.62" y="105.41" width="63.71" height="63.71"/><rect class="b" x="1790.62" y="35.55" width="63.71" height="63.71"/><rect class="b" x="1720.76" y="35.55" width="63.71" height="63.71"/><polygon class="b" points="1581.03 169.12 1644.75 169.12 1644.75 105.41 1644.75 105.41 1644.75 105.41 1581.03 105.41 1581.03 169.12 1581.03 169.12 1581.03 169.12"/><rect class="b" x="1790.62" y="524.58" width="63.71" height="63.71"/><rect class="b" x="1860.48" y="315" width="63.71" height="63.71"/><rect class="b" x="1860.48" y="175.27" width="63.71" height="63.71"/><rect class="b" x="1860.48" y="245.14" width="63.71" height="63.71"/><rect class="b" x="1860.48" y="35.55" width="63.71" height="63.71"/><rect class="b" x="1860.48" y="105.41" width="63.71" height="63.71"/><rect class="b" x="1860.48" y="0.02" width="63.71" height="29.38"/><rect class="b" x="1720.76" y="524.58" width="63.71" height="63.71"/><rect class="b" x="1860.48" y="524.59" width="63.71" height="63.71"/><rect class="b" x="1860.48" y="454.72" width="63.71" height="63.71"/><rect class="b" x="1860.48" y="384.86" width="63.71" height="63.71"/><polygon class="b" points="1511.17 238.99 1574.88 238.99 1574.88 175.27 1574.88 175.27 1574.88 175.27 1511.17 175.27 1511.17 238.98 1511.17 238.98 1511.17 238.99"/><rect class="b" x="1720.76" y="384.86" width="63.71" height="63.71"/><rect class="b" x="1720.76" y="315" width="63.71" height="63.71"/><rect class="b" x="1720.76" y="175.27" width="63.71" height="63.71"/><rect class="b" x="1720.76" y="245.14" width="63.71" height="63.71"/><polygon class="b" points="1511.17 99.26 1574.88 99.26 1574.88 35.55 1574.88 35.55 1574.88 35.55 1511.17 35.55 1511.17 99.26 1511.17 99.26 1511.17 99.26"/><rect class="b" x="1790.62" y="245.14" width="63.71" height="63.71"/><polygon class="b" points="1511.17 169.12 1574.88 169.12 1574.88 105.41 1574.88 105.41 1574.88 105.41 1511.17 105.41 1511.17 169.12 1511.17 169.12 1511.17 169.12"/><rect class="b" x="1790.62" y="454.72" width="63.71" height="63.71"/><rect class="b" x="1720.76" y="454.72" width="63.71" height="63.71"/><rect class="b" x="1790.62" y="315" width="63.71" height="63.71"/><rect class="b" x="1720.76" y="105.41" width="63.71" height="63.71"/><rect class="b" x="1790.62" y="384.86" width="63.71" height="63.71"/><polygon class="b" points="1581.03 238.99 1644.75 238.99 1644.75 175.27 1644.75 175.27 1644.75 175.27 1581.03 175.27 1581.03 238.98 1581.03 238.98 1581.03 238.99"/><polygon class="b" points="1644.75 315 1644.75 314.99 1581.03 314.99 1581.03 378.71 1581.04 378.71 1581.04 378.71 1644.75 378.71 1644.75 315 1644.75 315"/><polygon class="b" points="1581.03 308.85 1644.75 308.85 1644.75 245.14 1644.75 245.14 1644.75 245.13 1581.03 245.13 1581.03 308.84 1581.03 308.84 1581.03 308.85"/><rect class="b" x="1720.76" y="0.02" width="63.71" height="29.38"/><rect class="b" x="1930.35" y="35.55" width="38.06" height="63.71"/><rect class="b" x="1930.35" y="0.02" width="38.06" height="29.38"/><rect class="b" x="1930.35" y="105.41" width="38.06" height="63.71"/><polygon class="b" points="1581.03 29.4 1644.75 29.4 1644.75 0.02 1644.75 0.02 1644.75 0.02 1581.03 0.02 1581.03 29.39 1581.03 29.39 1581.03 29.4"/><polygon class="b" points="1581.03 99.26 1644.75 99.26 1644.75 35.55 1644.75 35.55 1644.75 35.55 1581.03 35.55 1581.03 99.26 1581.03 99.26 1581.03 99.26"/><polygon class="b" points="1511.17 29.4 1574.88 29.4 1574.88 0.02 1574.88 0.02 1574.88 0.02 1511.17 0.02 1511.17 29.39 1511.17 29.39 1511.17 29.4"/><rect class="b" x="1930.35" y="594.45" width="38.06" height="35.54"/><rect class="b" x="1930.35" y="384.86" width="38.06" height="63.71"/><rect class="b" x="1930.35" y="454.72" width="38.06" height="63.71"/><rect class="b" x="1930.35" y="245.14" width="38.06" height="63.71"/><rect class="b" x="1930.35" y="524.59" width="38.06" height="63.71"/><rect class="b" x="1930.35" y="315" width="38.06" height="63.71"/><rect class="b" x="1720.76" y="594.45" width="63.71" height="35.54"/><rect class="b" x="1860.48" y="594.45" width="63.71" height="35.54"/><rect class="b" x="1790.62" y="594.45" width="63.71" height="35.54"/><rect class="b" x="1930.35" y="175.27" width="38.06" height="63.71"/><polygon class="b" points="1225.57 245.13 1161.86 245.13 1161.86 308.84 1161.92 308.84 1161.92 308.85 1225.64 308.85 1225.64 245.13 1225.57 245.13 1225.57 245.13"/><polygon class="b" points="1225.57 314.99 1161.86 314.99 1161.86 378.71 1161.92 378.71 1161.92 378.71 1225.64 378.71 1225.64 315 1225.57 315 1225.57 314.99"/><polygon class="b" points="1505.02 0.02 1441.31 0.02 1441.31 29.39 1441.31 29.39 1441.31 29.4 1505.02 29.4 1505.02 0.02 1505.02 0.02 1505.02 0.02"/><polygon class="b" points="1225.57 384.86 1161.86 384.86 1161.86 448.57 1161.92 448.57 1161.92 448.57 1225.64 448.57 1225.64 384.86 1225.57 384.86 1225.57 384.86"/><polygon class="b" points="1295.43 454.72 1231.72 454.72 1231.72 518.43 1231.79 518.43 1231.79 518.43 1295.5 518.43 1295.5 454.72 1295.43 454.72 1295.43 454.72"/><polygon class="b" points="1505.02 175.27 1441.31 175.27 1441.31 238.98 1441.31 238.98 1441.31 238.99 1505.02 238.99 1505.02 175.27 1505.02 175.27 1505.02 175.27"/><polygon class="b" points="1505.02 105.41 1441.31 105.41 1441.31 169.12 1441.31 169.12 1441.31 169.12 1505.02 169.12 1505.02 105.41 1505.02 105.41 1505.02 105.41"/><polygon class="b" points="1505.02 35.55 1441.31 35.55 1441.31 99.26 1441.31 99.26 1441.31 99.26 1505.02 99.26 1505.02 35.55 1505.02 35.55 1505.02 35.55"/><polygon class="b" points="1301.59 169.12 1301.65 169.12 1301.65 169.12 1335.21 169.12 1335.21 169.12 1365.3 169.12 1365.3 105.41 1301.59 105.41 1301.59 169.12"/><polygon class="b" points="1435.16 35.55 1371.45 35.55 1371.45 99.26 1401.61 99.26 1401.61 99.26 1435.16 99.26 1435.16 35.55 1435.16 35.55 1435.16 35.55"/><polygon class="b" points="1295.43 105.41 1231.72 105.41 1231.72 169.12 1231.79 169.12 1231.79 169.12 1295.5 169.12 1295.5 105.41 1295.43 105.41 1295.43 105.41"/><rect class="b" x="1441.31" y="524.58" width="63.71" height="63.71"/><polygon class="b" points="1301.59 518.43 1301.65 518.43 1301.65 518.43 1335.21 518.43 1335.21 518.43 1365.3 518.43 1365.3 454.72 1301.59 454.72 1301.59 518.43"/><rect class="b" x="1371.45" y="524.58" width="63.71" height="63.71"/><polygon class="b" points="1574.88 524.58 1511.17 524.58 1511.17 588.29 1574.88 588.29 1574.88 580.05 1574.88 580.05 1574.88 524.59 1574.88 524.59 1574.88 524.58"/><polygon class="b" points="1574.88 454.72 1511.17 454.72 1511.17 518.43 1513.26 518.43 1513.27 518.43 1574.88 518.43 1574.88 454.72 1574.88 454.72 1574.88 454.72"/><polygon class="b" points="1574.88 384.86 1511.17 384.86 1511.17 448.57 1511.17 448.57 1511.17 448.57 1574.88 448.57 1574.88 384.86 1574.88 384.86 1574.88 384.86"/><polygon class="b" points="1225.57 175.27 1161.86 175.27 1161.86 238.98 1161.92 238.98 1161.92 238.98 1225.64 238.98 1225.64 175.27 1225.57 175.27 1225.57 175.27"/><polygon class="b" points="1301.59 308.84 1301.65 308.84 1301.65 308.85 1335.21 308.85 1335.21 308.84 1365.3 308.84 1365.3 245.13 1301.59 245.13 1301.59 308.84"/><polygon class="b" points="1435.16 384.86 1371.45 384.86 1371.45 448.57 1435.16 448.57 1435.16 440.33 1435.16 440.33 1435.16 384.86 1435.16 384.86 1435.16 384.86"/><polygon class="b" points="1301.59 378.71 1301.65 378.71 1301.65 378.71 1335.21 378.71 1335.21 378.71 1365.3 378.71 1365.3 314.99 1301.59 314.99 1301.59 378.71"/><polygon class="b" points="1435.16 314.99 1371.45 314.99 1371.45 378.71 1401.6 378.71 1401.6 378.71 1435.16 378.71 1435.16 315 1435.16 315 1435.16 314.99"/><polygon class="b" points="1435.16 175.27 1371.45 175.27 1371.45 238.98 1401.61 238.98 1401.61 238.99 1435.16 238.99 1435.16 175.27 1435.16 175.27 1435.16 175.27"/><polygon class="b" points="1435.16 245.13 1371.45 245.13 1371.45 308.84 1401.61 308.84 1401.61 308.85 1435.16 308.85 1435.16 245.14 1435.16 245.14 1435.16 245.13"/><polygon class="b" points="1225.57 524.58 1170.11 524.58 1170.11 524.58 1161.92 524.58 1161.92 588.29 1225.64 588.29 1225.64 524.58 1225.57 524.58 1225.57 524.58"/><polygon class="b" points="1225.57 35.55 1161.86 35.54 1161.86 99.26 1161.92 99.26 1161.92 99.26 1225.64 99.26 1225.64 35.55 1225.57 35.55 1225.57 35.55"/><polygon class="b" points="1505.02 245.13 1441.31 245.13 1441.31 308.84 1441.31 308.84 1441.31 308.85 1505.02 308.85 1505.02 245.14 1505.02 245.14 1505.02 245.13"/><polygon class="b" points="1225.57 105.41 1161.86 105.41 1161.86 169.12 1161.92 169.12 1161.92 169.12 1225.64 169.12 1225.64 105.41 1225.57 105.41 1225.57 105.41"/><path class="b" d="M1225.57,454.72h-63.71v61.61l.06.07v2h63.72V454.72Z"/><polygon class="b" points="1155.71 454.72 1100.24 454.72 1100.25 454.72 1092.06 454.72 1092.06 518.43 1155.78 518.43 1155.78 454.72 1155.71 454.72 1155.71 454.72"/><polygon class="b" points="1505.02 454.72 1441.31 454.72 1441.31 518.43 1505.02 518.43 1505.02 510.19 1505.02 510.19 1505.02 454.72 1505.02 454.72 1505.02 454.72"/><rect class="b" x="1371.45" y="454.72" width="63.71" height="63.71"/><polygon class="b" points="1301.59 448.57 1301.65 448.57 1301.65 448.57 1335.21 448.57 1335.21 448.57 1365.3 448.57 1365.3 384.86 1301.59 384.86 1301.59 448.57"/><polygon class="b" points="1505.02 314.99 1441.31 314.99 1441.31 378.71 1441.31 378.71 1441.31 378.71 1505.02 378.71 1505.02 315 1505.02 315 1505.02 314.99"/><polygon class="b" points="1435.16 105.41 1371.45 105.41 1371.45 169.12 1401.61 169.12 1401.61 169.12 1435.16 169.12 1435.16 105.41 1435.16 105.41 1435.16 105.41"/><polygon class="b" points="1505.02 384.86 1441.31 384.86 1441.31 448.57 1443.4 448.57 1443.41 448.57 1505.02 448.57 1505.02 384.86 1505.02 384.86 1505.02 384.86"/><polygon class="b" points="1295.43 175.27 1231.72 175.27 1231.72 238.98 1231.79 238.98 1231.79 238.98 1295.5 238.98 1295.5 175.27 1295.43 175.27 1295.43 175.27"/><polygon class="b" points="1301.59 238.98 1301.65 238.98 1301.65 238.98 1335.21 238.98 1335.21 238.98 1365.3 238.98 1365.3 175.27 1301.59 175.27 1301.59 238.98"/><polygon class="b" points="1295.43 384.86 1231.72 384.86 1231.72 448.57 1231.79 448.57 1231.79 448.57 1295.5 448.57 1295.5 384.86 1295.43 384.86 1295.43 384.86"/><polygon class="b" points="1295.43 314.99 1231.72 314.99 1231.72 378.71 1231.79 378.71 1231.79 378.71 1295.5 378.71 1295.5 315 1295.43 315 1295.43 314.99"/><polygon class="b" points="1295.43 245.13 1231.72 245.13 1231.72 308.84 1231.79 308.84 1231.79 308.85 1295.5 308.85 1295.5 245.13 1295.43 245.13 1295.43 245.13"/><polygon class="b" points="1435.16 0.02 1371.45 0.02 1371.45 29.39 1401.61 29.39 1401.61 29.4 1435.16 29.4 1435.16 0.02 1435.16 0.02 1435.16 0.02"/><polygon class="b" points="1085.85 314.99 1052.29 314.99 1052.29 315 1022.2 315 1022.2 378.71 1085.91 378.71 1085.91 315 1085.85 315 1085.85 314.99"/><polygon class="b" points="1085.85 384.86 1052.29 384.86 1052.29 384.86 1022.2 384.86 1022.2 448.57 1085.91 448.57 1085.91 384.86 1085.85 384.86 1085.85 384.86"/><polygon class="b" points="1295.43 594.44 1239.97 594.44 1239.97 594.45 1231.79 594.45 1231.79 629.98 1295.5 629.98 1295.5 594.45 1295.43 594.45 1295.43 594.44"/><polygon class="b" points="1301.59 29.39 1301.65 29.39 1301.65 29.4 1335.21 29.4 1335.21 29.39 1365.3 29.39 1365.3 0.02 1301.59 0.02 1301.59 29.39"/><polygon class="b" points="1301.59 629.98 1301.65 629.98 1301.65 629.98 1335.21 629.98 1335.21 629.98 1365.3 629.98 1365.3 594.44 1301.59 594.44 1301.59 629.98"/><polygon class="b" points="1684.45 105.41 1650.9 105.41 1650.9 169.12 1650.9 169.12 1650.9 169.12 1714.61 169.12 1714.61 105.41 1684.45 105.41 1684.45 105.41"/><polygon class="b" points="1684.45 245.13 1650.89 245.13 1650.89 308.84 1650.9 308.84 1650.9 308.85 1714.61 308.85 1714.61 245.14 1684.45 245.14 1684.45 245.13"/><polygon class="b" points="1684.45 35.55 1650.9 35.55 1650.9 99.26 1650.9 99.26 1650.9 99.26 1714.61 99.26 1714.61 35.55 1684.45 35.55 1684.45 35.55"/><polygon class="b" points="1684.45 0.02 1650.9 0.02 1650.9 29.39 1650.9 29.39 1650.9 29.4 1714.61 29.4 1714.61 0.02 1684.45 0.02 1684.45 0.02"/><polygon class="b" points="1684.45 175.27 1650.9 175.27 1650.89 238.98 1650.9 238.98 1650.9 238.99 1714.61 238.99 1714.61 175.27 1684.45 175.27 1684.45 175.27"/><polygon class="b" points="1684.45 314.99 1650.9 314.99 1650.9 378.71 1650.9 378.71 1650.9 378.71 1714.61 378.71 1714.61 315 1684.45 315 1684.45 314.99"/><polygon class="b" points="1684.45 594.44 1650.9 594.44 1650.9 629.98 1650.9 629.98 1650.9 629.99 1714.61 629.99 1714.61 594.45 1684.45 594.45 1684.45 594.44"/><polygon class="b" points="1684.45 524.58 1650.9 524.58 1650.9 588.29 1650.9 588.29 1650.9 588.3 1714.61 588.3 1714.61 524.59 1684.45 524.59 1684.45 524.58"/><polygon class="b" points="1684.45 384.86 1650.9 384.86 1650.9 448.57 1650.9 448.57 1650.9 448.57 1714.61 448.57 1714.61 384.86 1684.45 384.86 1684.45 384.86"/><polygon class="b" points="1684.45 454.72 1650.9 454.72 1650.9 518.43 1650.9 518.43 1650.9 518.43 1714.61 518.43 1714.61 454.72 1684.45 454.72 1684.45 454.72"/><polygon class="b" points="1155.71 105.41 1092 105.41 1092 169.12 1092.06 169.12 1092.06 169.12 1155.78 169.12 1155.78 105.41 1155.71 105.41 1155.71 105.41"/><polygon class="b" points="1155.71 175.27 1092 175.27 1092 238.98 1092.06 238.98 1092.06 238.98 1155.78 238.98 1155.78 175.27 1155.71 175.27 1155.71 175.27"/><polygon class="b" points="1155.71 314.99 1092 314.99 1092 378.71 1092.06 378.71 1092.06 378.71 1155.78 378.71 1155.78 315 1155.71 315 1155.71 314.99"/><polygon class="b" points="1155.71 35.54 1092 35.54 1092 99.26 1092.06 99.26 1092.06 99.26 1155.78 99.26 1155.78 35.55 1155.71 35.55 1155.71 35.54"/><polygon class="b" points="1155.71 245.13 1092 245.13 1092 308.84 1092.06 308.84 1092.06 308.85 1155.78 308.85 1155.78 245.13 1155.71 245.13 1155.71 245.13"/><polygon class="b" points="1295.43 0.02 1231.72 0.02 1231.72 29.39 1231.79 29.39 1231.79 29.4 1295.5 29.4 1295.5 0.02 1295.43 0.02 1295.43 0.02"/><polygon class="b" points="1301.59 99.26 1301.65 99.26 1301.65 99.26 1335.21 99.26 1335.21 99.26 1365.3 99.26 1365.3 35.55 1301.59 35.55 1301.59 99.26"/><polygon class="b" points="1295.43 35.55 1231.72 35.55 1231.72 99.26 1231.79 99.26 1231.79 99.26 1295.5 99.26 1295.5 35.55 1295.43 35.55 1295.43 35.55"/><path class="b" d="M1155.71,384.86H1092v61.61l.06.07v2h63.72V384.86Z"/><polygon class="b" points="1155.71 0.02 1092 0.02 1092 29.39 1092.06 29.39 1092.06 29.4 1155.78 29.4 1155.78 0.02 1155.71 0.02 1155.71 0.02"/><polygon class="b" points="1225.57 0.02 1161.86 0.02 1161.86 29.39 1161.92 29.39 1161.92 29.4 1225.64 29.4 1225.64 0.02 1225.57 0.02 1225.57 0.02"/><polygon class="b" points="1644.75 594.44 1581.03 594.44 1581.03 629.98 1624.81 629.98 1624.82 629.99 1644.75 629.99 1644.75 594.45 1644.75 594.45 1644.75 594.44"/><polygon class="b" points="1644.75 384.86 1581.03 384.86 1581.03 448.57 1581.04 448.57 1581.04 448.57 1644.75 448.57 1644.75 384.86 1644.75 384.86 1644.75 384.86"/><polygon class="b" points="1644.75 454.72 1581.03 454.72 1581.03 518.43 1581.04 518.43 1581.04 518.43 1644.75 518.43 1644.75 454.72 1644.75 454.72 1644.75 454.72"/><polygon class="b" points="1644.75 524.58 1581.03 524.58 1581.03 588.29 1583.13 588.29 1583.13 588.3 1644.75 588.3 1644.75 524.59 1644.75 524.59 1644.75 524.58"/><path class="b" d="M1295.44,524.58h-63.72V586.2l.07.06v2h63.71V524.58Z"/><polygon class="b" points="1301.59 588.29 1301.65 588.29 1301.65 588.29 1335.21 588.29 1335.21 588.29 1365.3 588.29 1365.3 524.58 1301.59 524.58 1301.59 588.29"/><rect class="b" x="1371.45" y="594.44" width="63.71" height="35.54"/><rect class="b" x="1511.17" y="594.44" width="63.71" height="35.54"/><rect class="b" x="1441.31" y="594.44" width="63.71" height="35.54"/><polygon class="b" points="1085.91 35.55 1085.85 35.55 1085.85 35.54 1052.29 35.54 1052.29 35.55 1022.2 35.55 1022.2 99.26 1085.91 99.26 1085.91 35.55"/><rect class="b" x="1092.06" y="524.58" width="63.71" height="63.71"/><rect class="b" x="1022.2" y="524.58" width="63.71" height="63.71"/><polygon class="b" points="1085.91 175.27 1085.85 175.27 1085.85 175.27 1052.29 175.27 1052.29 175.27 1022.2 175.27 1022.2 238.98 1085.91 238.98 1085.91 175.27"/><polygon class="b" points="1085.91 245.13 1085.85 245.13 1085.85 245.13 1052.29 245.13 1052.29 245.13 1022.2 245.13 1022.2 308.85 1085.91 308.85 1085.91 245.13"/><rect class="b" x="1022.2" y="454.72" width="63.71" height="63.71"/><polygon class="b" points="1085.91 105.41 1085.85 105.41 1085.85 105.41 1052.29 105.41 1052.29 105.41 1022.2 105.41 1022.2 169.12 1085.91 169.12 1085.91 105.41"/><polygon class="b" points="1085.91 0.02 1085.85 0.02 1085.85 0.02 1052.29 0.02 1052.29 0.02 1022.2 0.02 1022.2 29.4 1085.91 29.4 1085.91 0.02"/><rect class="b" x="1022.2" y="594.44" width="63.71" height="35.54"/><rect class="b" x="1161.92" y="594.44" width="63.71" height="35.54"/><rect class="b" x="1092.06" y="594.44" width="63.71" height="35.54"/><polygon class="b" points="768.45 0.02 768.4 0.02 768.4 29.4 768.45 29.4 806.49 29.4 806.53 29.4 806.53 0.02 806.49 0.02 768.45 0.02"/><polygon class="b" points="768.45 175.27 768.4 175.27 768.4 238.98 768.45 238.98 806.49 238.98 806.53 238.98 806.53 175.27 806.49 175.27 768.45 175.27"/><polygon class="b" points="768.45 105.41 768.4 105.41 768.4 169.12 768.45 169.12 806.49 169.12 806.53 169.12 806.53 105.41 806.49 105.41 768.45 105.41"/><polygon class="b" points="768.45 35.55 768.4 35.55 768.4 99.26 768.45 99.26 806.49 99.26 806.53 99.26 806.53 35.55 806.49 35.55 768.45 35.55"/><rect class="b" x="768.45" y="524.58" width="38.09" height="63.71"/><polygon class="b" points="812.68 315 812.61 315 812.61 378.71 812.68 378.71 876.33 378.71 876.4 378.71 876.4 315 876.33 315 812.68 315"/><polygon class="b" points="812.68 175.27 812.61 175.27 812.61 238.98 812.68 238.98 876.33 238.98 876.4 238.98 876.4 175.27 876.33 175.27 812.68 175.27"/><polygon class="b" points="812.68 245.13 812.61 245.13 812.61 308.85 812.68 308.85 876.33 308.85 876.4 308.85 876.4 245.13 876.33 245.13 812.68 245.13"/><polygon class="b" points="812.68 35.55 812.61 35.55 812.61 99.26 812.68 99.26 876.33 99.26 876.4 99.26 876.4 35.55 876.33 35.55 812.68 35.55"/><polygon class="b" points="812.68 105.41 812.61 105.41 812.61 169.12 812.68 169.12 876.33 169.12 876.4 169.12 876.4 105.41 876.33 105.41 812.68 105.41"/><polygon class="b" points="812.68 0.02 812.61 0.02 812.61 29.4 812.68 29.4 876.33 29.4 876.4 29.4 876.4 0.02 876.33 0.02 812.68 0.02"/><polygon class="b" points="820.86 524.58 812.68 524.58 812.68 588.29 876.4 588.29 876.4 524.58 876.33 524.58 820.86 524.58"/><path class="b" d="M812.68,454.72h-.07v61.62l.07.07v2H876.4V454.72H812.68Z"/><polygon class="b" points="812.68 384.86 812.61 384.86 812.61 448.57 812.68 448.57 876.33 448.57 876.4 448.57 876.4 384.86 876.33 384.86 812.68 384.86"/><polygon class="b" points="768.45 245.13 768.4 245.13 768.4 308.85 768.45 308.85 806.49 308.85 806.53 308.85 806.53 245.13 806.49 245.13 768.45 245.13"/><polygon class="b" points="773.33 454.72 768.45 454.72 768.45 518.43 806.53 518.43 806.53 454.72 806.49 454.72 773.33 454.72"/><polygon class="b" points="768.45 315 768.4 315 768.4 378.71 768.45 378.71 806.49 378.71 806.53 378.71 806.53 315 806.49 315 768.45 315"/><path class="b" d="M768.45,384.86h-.05v61.61l.05.07v2h38.08V384.86H768.45Z"/><polygon class="b" points="882.55 35.55 882.48 35.55 882.48 99.26 882.55 99.26 946.19 99.26 946.26 99.26 946.26 35.55 946.19 35.55 882.55 35.55"/><polygon class="b" points="882.55 0.02 882.48 0.02 882.48 29.4 882.55 29.4 946.19 29.4 946.26 29.4 946.26 0.02 946.19 0.02 882.55 0.02"/><polygon class="b" points="882.55 105.41 882.48 105.41 882.48 169.12 882.55 169.12 946.19 169.12 946.26 169.12 946.26 105.41 946.19 105.41 882.55 105.41"/><polygon class="b" points="952.41 105.41 952.34 105.41 952.34 169.12 952.41 169.12 985.97 169.12 1016.05 169.12 1016.05 105.41 985.97 105.41 952.41 105.41"/><polygon class="b" points="952.41 245.13 952.34 245.13 952.34 308.85 952.41 308.85 985.97 308.85 1016.05 308.85 1016.05 245.13 985.97 245.13 952.41 245.13"/><polygon class="b" points="952.41 35.55 952.34 35.55 952.34 99.26 952.41 99.26 985.97 99.26 1016.05 99.26 1016.05 35.55 985.97 35.55 952.41 35.55"/><polygon class="b" points="952.41 0.02 952.34 0.02 952.34 29.4 952.41 29.4 985.97 29.4 1016.05 29.4 1016.05 0.02 985.97 0.02 952.41 0.02"/><polygon class="b" points="952.41 175.27 952.34 175.27 952.34 238.98 952.41 238.98 985.97 238.98 1016.05 238.98 1016.05 175.27 985.97 175.27 952.41 175.27"/><polygon class="b" points="952.41 315 952.34 315 952.34 378.71 952.41 378.71 985.97 378.71 1016.05 378.71 1016.05 315 985.97 315 952.41 315"/><polygon class="b" points="952.41 594.45 952.34 594.45 952.34 629.98 952.41 629.98 985.96 629.98 1016.05 629.98 1016.05 594.45 985.96 594.45 952.41 594.45"/><polygon class="b" points="952.41 524.58 952.34 524.58 952.34 588.29 952.41 588.29 985.96 588.29 1016.05 588.29 1016.05 524.58 985.96 524.58 952.41 524.58"/><polygon class="b" points="952.41 384.86 952.34 384.86 952.34 448.57 952.41 448.57 985.97 448.57 1016.05 448.57 1016.05 384.86 985.97 384.86 952.41 384.86"/><polygon class="b" points="952.41 454.72 952.34 454.72 952.34 518.43 952.41 518.43 985.96 518.43 1016.05 518.43 1016.05 454.72 985.97 454.72 952.41 454.72"/><polygon class="b" points="890.72 594.45 882.55 594.45 882.55 629.98 926.26 629.98 946.19 629.98 946.26 629.98 946.26 594.45 946.19 594.45 890.72 594.45"/><polygon class="b" points="882.55 384.86 882.48 384.86 882.48 448.57 882.55 448.57 946.19 448.57 946.26 448.57 946.26 384.86 946.19 384.86 882.55 384.86"/><polygon class="b" points="882.55 454.72 882.48 454.72 882.48 518.43 882.55 518.43 946.19 518.43 946.26 518.43 946.26 454.72 946.19 454.72 882.55 454.72"/><polygon class="b" points="882.55 245.13 882.48 245.13 882.48 308.85 882.55 308.85 946.19 308.85 946.26 308.85 946.26 245.13 946.19 245.13 882.55 245.13"/><path class="b" d="M882.55,524.58h-.07V586.2l.07.07v2h63.71V524.58H882.55Z"/><polygon class="b" points="882.55 315 882.48 315 882.48 378.71 882.55 378.71 946.19 378.71 946.26 378.71 946.26 315 946.19 315 882.55 315"/><rect class="b" x="812.68" y="594.44" width="63.71" height="35.54"/><rect class="b" x="768.45" y="594.44" width="38.09" height="35.54"/><polygon class="b" points="882.55 175.27 882.48 175.27 882.48 238.98 882.55 238.98 946.19 238.98 946.26 238.98 946.26 175.27 946.19 175.27 882.55 175.27"/></svg>