<svg xmlns="http://www.w3.org/2000/svg" viewBox="0 0 630 1200"><defs><style>.a{fill:#e5e5e5;}.b{fill:#fff;}.c{fill:#6d5fa9;}.d{fill:#5b8085;}.e,.g{fill:none;stroke:#231f20;stroke-miterlimit:10;}.e{stroke-width:1.75px;}.f{fill:#ec5b55;}.g{stroke-width:1.5px;}.h{fill:#ef8b33;}.i{fill:#f9dd6d;}.j{fill:#d8ab36;}</style></defs><rect class="a" x="-285" y="285" width="1200" height="630" transform="translate(915 285) rotate(90)"/><polygon class="b" points="321.15 742.77 321.15 806.48 384.86 806.48 384.86 806.48 384.87 806.48 384.87 742.77 321.16 742.77 321.16 742.77 321.15 742.77"/><polygon class="b" points="315 806.48 315.01 806.48 315.01 742.77 251.29 742.77 251.29 742.77 251.29 742.77 251.29 806.48 315 806.48 315 806.48"/><rect class="b" x="600.6" y="1022.22" width="29.38" height="63.71"/><rect class="b" x="391.01" y="1022.22" width="63.71" height="63.71"/><rect class="b" x="460.88" y="1022.22" width="63.71" height="63.71"/><rect class="b" x="530.74" y="1022.22" width="63.71" height="63.71"/><rect class="b" x="530.74" y="952.35" width="63.71" height="63.71"/><polygon class="b" points="460.88 812.63 460.88 876.34 524.59 876.34 524.59 876.34 524.59 876.34 524.59 812.63 460.88 812.63 460.88 812.63 460.88 812.63"/><rect class="b" x="41.7" y="1022.22" width="63.71" height="63.71"/><rect class="b" x="251.29" y="1092.08" width="63.71" height="63.71"/><rect class="b" x="391.01" y="1092.08" width="63.71" height="63.71"/><rect class="b" x="321.15" y="1092.08" width="63.71" height="63.71"/><rect class="b" x="530.74" y="1092.08" width="63.71" height="63.71"/><rect class="b" x="460.88" y="1092.08" width="63.71" height="63.71"/><rect class="b" x="600.6" y="1092.08" width="29.38" height="63.71"/><rect class="b" x="41.7" y="952.35" width="63.71" height="63.71"/><rect class="b" x="41.7" y="1092.08" width="63.71" height="63.71"/><rect class="b" x="111.57" y="1092.08" width="63.71" height="63.71"/><rect class="b" x="181.43" y="1092.08" width="63.71" height="63.71"/><polygon class="b" points="391.01 742.77 391.01 806.48 454.73 806.48 454.73 806.48 454.73 806.48 454.73 742.77 391.02 742.77 391.02 742.77 391.01 742.77"/><rect class="b" x="181.43" y="952.35" width="63.71" height="63.71"/><rect class="b" x="251.29" y="952.35" width="63.71" height="63.71"/><rect class="b" x="391.01" y="952.35" width="63.71" height="63.71"/><rect class="b" x="321.15" y="952.35" width="63.71" height="63.71"/><polygon class="b" points="530.74 742.77 530.74 806.48 594.45 806.48 594.45 806.48 594.46 806.48 594.46 742.77 530.74 742.77 530.74 742.77 530.74 742.77"/><rect class="b" x="321.15" y="1022.22" width="63.71" height="63.71"/><polygon class="b" points="460.88 742.77 460.88 806.48 524.59 806.48 524.59 806.48 524.59 806.48 524.59 742.77 460.88 742.77 460.88 742.77 460.88 742.77"/><rect class="b" x="111.57" y="1022.22" width="63.71" height="63.71"/><rect class="b" x="111.57" y="952.35" width="63.71" height="63.71"/><rect class="b" x="251.29" y="1022.22" width="63.71" height="63.71"/><rect class="b" x="460.88" y="952.35" width="63.71" height="63.71"/><rect class="b" x="181.43" y="1022.22" width="63.71" height="63.71"/><polygon class="b" points="391.01 812.63 391.01 876.34 454.73 876.34 454.73 876.34 454.73 876.34 454.73 812.63 391.02 812.63 391.02 812.63 391.01 812.63"/><polygon class="b" points="315 876.34 315.01 876.34 315.01 812.63 251.29 812.63 251.29 812.63 251.29 812.63 251.29 876.34 315 876.34 315 876.34"/><polygon class="b" points="321.15 812.63 321.15 876.34 384.86 876.34 384.86 876.34 384.87 876.34 384.87 812.63 321.16 812.63 321.16 812.63 321.15 812.63"/><rect class="b" x="600.6" y="952.35" width="29.38" height="63.71"/><rect class="b" x="530.74" y="1161.94" width="63.71" height="38.06"/><rect class="b" x="600.6" y="1161.94" width="29.38" height="38.06"/><rect class="b" x="460.88" y="1161.94" width="63.71" height="38.06"/><polygon class="b" points="600.6 812.63 600.6 876.34 629.98 876.34 629.98 876.34 629.99 876.34 629.99 812.63 600.61 812.63 600.61 812.63 600.6 812.63"/><polygon class="b" points="530.74 812.63 530.74 876.34 594.45 876.34 594.45 876.34 594.46 876.34 594.46 812.63 530.74 812.63 530.74 812.63 530.74 812.63"/><polygon class="b" points="600.6 742.77 600.6 806.48 629.98 806.48 629.98 806.48 629.99 806.48 629.99 742.77 600.61 742.77 600.61 742.77 600.6 742.77"/><rect class="b" x="0.02" y="1161.94" width="35.54" height="38.06"/><rect class="b" x="181.43" y="1161.94" width="63.71" height="38.06"/><rect class="b" x="111.57" y="1161.94" width="63.71" height="38.06"/><rect class="b" x="321.15" y="1161.94" width="63.71" height="38.06"/><rect class="b" x="41.7" y="1161.94" width="63.71" height="38.06"/><rect class="b" x="251.29" y="1161.94" width="63.71" height="38.06"/><rect class="b" x="0.02" y="952.35" width="35.54" height="63.71"/><rect class="b" x="0.02" y="1092.08" width="35.54" height="63.71"/><rect class="b" x="0.02" y="1022.22" width="35.54" height="63.71"/><rect class="b" x="391.01" y="1161.94" width="63.71" height="38.06"/><polygon class="b" points="384.87 457.17 384.87 393.45 321.16 393.45 321.16 393.52 321.15 393.52 321.15 457.23 384.87 457.23 384.87 457.17 384.87 457.17"/><polygon class="b" points="315.01 457.17 315.01 393.45 251.29 393.46 251.29 393.52 251.29 393.52 251.29 457.23 315 457.23 315 457.17 315.01 457.17"/><polygon class="b" points="629.99 736.62 629.99 672.9 600.61 672.9 600.61 672.9 600.6 672.9 600.6 736.62 629.98 736.62 629.98 736.62 629.99 736.62"/><polygon class="b" points="245.15 457.17 245.15 393.46 181.43 393.46 181.43 393.52 181.43 393.52 181.43 457.23 245.14 457.23 245.14 457.17 245.15 457.17"/><polygon class="b" points="175.28 527.03 175.28 463.32 111.57 463.32 111.57 463.38 111.57 463.38 111.57 527.1 175.28 527.1 175.28 527.03 175.28 527.03"/><polygon class="b" points="454.73 736.62 454.73 672.9 391.02 672.9 391.02 672.9 391.01 672.9 391.01 736.62 454.73 736.62 454.73 736.62 454.73 736.62"/><polygon class="b" points="524.59 736.62 524.59 672.9 460.88 672.9 460.88 672.9 460.88 672.9 460.88 736.62 524.59 736.62 524.59 736.62 524.59 736.62"/><polygon class="b" points="594.46 736.62 594.46 672.9 530.74 672.9 530.74 672.9 530.74 672.9 530.74 736.62 594.45 736.62 594.45 736.62 594.46 736.62"/><polygon class="b" points="460.88 533.18 460.88 533.24 460.88 533.24 460.88 566.8 460.88 566.8 460.88 596.89 524.59 596.89 524.59 533.18 460.88 533.18"/><polygon class="b" points="594.46 666.75 594.46 603.04 530.74 603.04 530.74 633.2 530.74 633.2 530.74 666.76 594.45 666.76 594.45 666.75 594.46 666.75"/><polygon class="b" points="524.59 527.03 524.59 463.32 460.88 463.32 460.88 463.38 460.88 463.38 460.88 527.1 524.59 527.1 524.59 527.03 524.59 527.03"/><rect class="b" x="41.71" y="672.9" width="63.71" height="63.71"/><polygon class="b" points="111.57 533.18 111.57 533.25 111.57 533.25 111.57 566.8 111.57 566.8 111.57 596.89 175.28 596.89 175.28 533.18 111.57 533.18"/><rect class="b" x="41.71" y="603.04" width="63.71" height="63.71"/><polygon class="b" points="105.42 806.48 105.42 742.77 41.71 742.77 41.71 806.48 49.95 806.48 49.95 806.48 105.42 806.48 105.42 806.48 105.42 806.48"/><polygon class="b" points="175.28 806.48 175.28 742.77 111.57 742.77 111.57 744.86 111.56 744.86 111.56 806.48 175.28 806.48 175.28 806.48 175.28 806.48"/><polygon class="b" points="245.15 806.48 245.15 742.77 181.43 742.77 181.43 742.77 181.43 742.77 181.43 806.48 245.14 806.48 245.14 806.48 245.15 806.48"/><polygon class="b" points="454.73 457.17 454.73 393.45 391.02 393.45 391.02 393.52 391.02 393.52 391.02 457.23 454.73 457.23 454.73 457.17 454.73 457.17"/><polygon class="b" points="321.16 533.18 321.16 533.24 321.15 533.24 321.15 566.8 321.16 566.8 321.16 596.89 384.87 596.89 384.87 533.18 321.16 533.18"/><polygon class="b" points="245.15 666.75 245.15 603.04 181.43 603.04 181.43 666.75 189.67 666.75 189.67 666.76 245.14 666.76 245.14 666.75 245.15 666.75"/><polygon class="b" points="251.29 533.18 251.29 533.25 251.29 533.25 251.29 566.8 251.29 566.8 251.29 596.89 315.01 596.89 315.01 533.18 251.29 533.18"/><polygon class="b" points="315.01 666.75 315.01 603.04 251.29 603.04 251.29 633.2 251.29 633.2 251.29 666.76 315 666.76 315 666.75 315.01 666.75"/><polygon class="b" points="454.73 666.75 454.73 603.04 391.02 603.04 391.02 633.2 391.01 633.2 391.01 666.76 454.73 666.76 454.73 666.75 454.73 666.75"/><polygon class="b" points="384.87 666.75 384.87 603.04 321.16 603.04 321.16 633.2 321.15 633.2 321.15 666.76 384.86 666.76 384.86 666.75 384.87 666.75"/><polygon class="b" points="105.42 457.17 105.42 401.7 105.42 401.7 105.42 393.52 41.7 393.52 41.7 457.23 105.42 457.23 105.42 457.17 105.42 457.17"/><polygon class="b" points="594.46 457.17 594.46 393.45 530.74 393.45 530.74 393.52 530.74 393.52 530.74 457.23 594.45 457.23 594.45 457.17 594.46 457.17"/><polygon class="b" points="384.87 736.62 384.87 672.9 321.16 672.9 321.16 672.9 321.15 672.9 321.15 736.62 384.86 736.62 384.86 736.62 384.87 736.62"/><polygon class="b" points="524.59 457.17 524.59 393.45 460.88 393.45 460.88 393.52 460.88 393.52 460.88 457.23 524.59 457.23 524.59 457.17 524.59 457.17"/><path class="b" d="M175.28,457.17V393.46H113.67l-.07.06h-2v63.71h63.71v-.06Z"/><polygon class="b" points="175.28 387.31 175.28 331.84 175.28 331.84 175.28 323.66 111.57 323.66 111.57 387.37 175.28 387.37 175.28 387.31 175.28 387.31"/><polygon class="b" points="175.28 736.62 175.28 672.9 111.57 672.9 111.57 736.62 119.81 736.62 119.81 736.62 175.28 736.62 175.28 736.62 175.28 736.62"/><rect class="b" x="111.57" y="603.04" width="63.71" height="63.71"/><polygon class="b" points="181.43 533.18 181.43 533.25 181.43 533.25 181.43 566.8 181.43 566.8 181.43 596.89 245.15 596.89 245.15 533.18 181.43 533.18"/><polygon class="b" points="315.01 736.62 315.01 672.9 251.29 672.9 251.29 672.91 251.29 672.91 251.29 736.62 315 736.62 315 736.62 315.01 736.62"/><polygon class="b" points="524.59 666.75 524.59 603.04 460.88 603.04 460.88 633.2 460.88 633.2 460.88 666.76 524.59 666.76 524.59 666.75 524.59 666.75"/><polygon class="b" points="245.15 736.62 245.15 672.9 181.43 672.9 181.43 675 181.43 675 181.43 736.62 245.14 736.62 245.14 736.62 245.15 736.62"/><polygon class="b" points="454.73 527.03 454.73 463.32 391.02 463.32 391.02 463.38 391.02 463.38 391.02 527.1 454.73 527.1 454.73 527.03 454.73 527.03"/><polygon class="b" points="391.02 533.18 391.02 533.24 391.02 533.24 391.02 566.8 391.02 566.8 391.02 596.89 454.73 596.89 454.73 533.18 391.02 533.18"/><polygon class="b" points="245.15 527.03 245.15 463.32 181.43 463.32 181.43 463.38 181.43 463.38 181.43 527.1 245.14 527.1 245.14 527.03 245.15 527.03"/><polygon class="b" points="315.01 527.03 315.01 463.32 251.29 463.32 251.29 463.38 251.29 463.38 251.29 527.1 315 527.1 315 527.03 315.01 527.03"/><polygon class="b" points="384.87 527.03 384.87 463.32 321.16 463.32 321.16 463.38 321.15 463.38 321.15 527.1 384.87 527.1 384.87 527.03 384.87 527.03"/><polygon class="b" points="629.99 666.75 629.99 603.04 600.61 603.04 600.61 633.2 600.6 633.2 600.6 666.76 629.98 666.76 629.98 666.75 629.99 666.75"/><polygon class="b" points="315.01 317.44 315.01 283.89 315 283.89 315 253.8 251.29 253.8 251.29 317.51 315 317.51 315 317.44 315.01 317.44"/><polygon class="b" points="245.15 317.44 245.15 283.89 245.14 283.89 245.14 253.8 181.43 253.8 181.43 317.51 245.14 317.51 245.14 317.44 245.15 317.44"/><polygon class="b" points="35.56 527.03 35.56 471.56 35.56 471.57 35.56 463.38 0.02 463.38 0.02 527.1 35.56 527.1 35.56 527.03 35.56 527.03"/><polygon class="b" points="600.61 533.18 600.61 533.24 600.6 533.24 600.6 566.8 600.61 566.8 600.61 596.89 629.99 596.89 629.99 533.18 600.61 533.18"/><polygon class="b" points="0.02 533.18 0.02 533.25 0.02 533.25 0.02 566.8 0.02 566.8 0.02 596.89 35.56 596.89 35.56 533.18 0.02 533.18"/><polygon class="b" points="524.59 916.05 524.59 882.49 460.88 882.49 460.88 882.49 460.88 882.49 460.88 946.2 524.59 946.2 524.59 916.05 524.59 916.05"/><polygon class="b" points="384.87 916.05 384.87 882.49 321.16 882.49 321.16 882.49 321.15 882.49 321.15 946.2 384.86 946.2 384.86 916.05 384.87 916.05"/><polygon class="b" points="594.46 916.05 594.46 882.49 530.74 882.49 530.74 882.49 530.74 882.49 530.74 946.2 594.45 946.2 594.45 916.05 594.46 916.05"/><polygon class="b" points="629.99 916.05 629.99 882.49 600.61 882.49 600.61 882.49 600.6 882.49 600.6 946.2 629.98 946.2 629.98 916.05 629.99 916.05"/><polygon class="b" points="454.73 916.05 454.73 882.49 391.02 882.49 391.02 882.49 391.01 882.49 391.01 946.2 454.73 946.2 454.73 916.05 454.73 916.05"/><polygon class="b" points="315.01 916.05 315.01 882.49 251.29 882.49 251.29 882.49 251.29 882.49 251.29 946.2 315 946.2 315 916.05 315.01 916.05"/><polygon class="b" points="35.56 916.05 35.56 882.49 0.02 882.49 0.02 882.49 0.01 882.49 0.01 946.2 35.55 946.2 35.55 916.05 35.56 916.05"/><polygon class="b" points="105.42 916.05 105.42 882.49 41.71 882.49 41.71 882.49 41.7 882.49 41.7 946.2 105.42 946.2 105.42 916.05 105.42 916.05"/><polygon class="b" points="245.15 916.05 245.15 882.49 181.43 882.49 181.43 882.49 181.43 882.49 181.43 946.2 245.14 946.2 245.14 916.05 245.15 916.05"/><polygon class="b" points="175.28 916.05 175.28 882.49 111.57 882.49 111.57 882.49 111.56 882.49 111.56 946.2 175.28 946.2 175.28 916.05 175.28 916.05"/><polygon class="b" points="524.59 387.31 524.59 323.59 460.88 323.59 460.88 323.66 460.88 323.66 460.88 387.37 524.59 387.37 524.59 387.31 524.59 387.31"/><polygon class="b" points="454.73 387.31 454.73 323.59 391.02 323.59 391.02 323.66 391.02 323.66 391.02 387.37 454.73 387.37 454.73 387.31 454.73 387.31"/><polygon class="b" points="315.01 387.31 315.01 323.59 251.29 323.59 251.29 323.66 251.29 323.66 251.29 387.37 315 387.37 315 387.31 315.01 387.31"/><polygon class="b" points="594.46 387.31 594.46 323.59 530.74 323.59 530.74 323.66 530.74 323.66 530.74 387.37 594.45 387.37 594.45 387.31 594.46 387.31"/><polygon class="b" points="384.87 387.31 384.87 323.59 321.16 323.59 321.16 323.66 321.15 323.66 321.15 387.37 384.87 387.37 384.87 387.31 384.87 387.31"/><polygon class="b" points="629.99 527.03 629.99 463.32 600.61 463.32 600.61 463.38 600.6 463.38 600.6 527.1 629.98 527.1 629.98 527.03 629.99 527.03"/><polygon class="b" points="530.74 533.18 530.74 533.24 530.74 533.24 530.74 566.8 530.74 566.8 530.74 596.89 594.46 596.89 594.46 533.18 530.74 533.18"/><polygon class="b" points="594.46 527.03 594.46 463.32 530.74 463.32 530.74 463.38 530.74 463.38 530.74 527.1 594.45 527.1 594.45 527.03 594.46 527.03"/><path class="b" d="M245.14,387.31V323.59H183.53l-.07.07h-2v63.71h63.71v-.06Z"/><polygon class="b" points="629.99 387.31 629.99 323.59 600.61 323.59 600.61 323.66 600.6 323.66 600.6 387.37 629.98 387.37 629.98 387.31 629.99 387.31"/><polygon class="b" points="629.99 457.17 629.99 393.45 600.61 393.45 600.61 393.52 600.6 393.52 600.6 457.23 629.98 457.23 629.98 457.17 629.99 457.17"/><polygon class="b" points="35.56 876.34 35.56 812.63 0.02 812.63 0.02 856.41 0.01 856.41 0.01 876.34 35.55 876.34 35.55 876.34 35.56 876.34"/><polygon class="b" points="245.15 876.34 245.15 812.63 181.43 812.63 181.43 812.63 181.43 812.63 181.43 876.34 245.14 876.34 245.14 876.34 245.15 876.34"/><polygon class="b" points="175.28 876.34 175.28 812.63 111.57 812.63 111.57 812.63 111.56 812.63 111.56 876.34 175.28 876.34 175.28 876.34 175.28 876.34"/><polygon class="b" points="105.42 876.34 105.42 812.63 41.71 812.63 41.71 814.72 41.7 814.73 41.7 876.34 105.42 876.34 105.42 876.34 105.42 876.34"/><path class="b" d="M105.42,527V463.32H43.8l-.06.06h-2v63.71h63.71V527Z"/><polygon class="b" points="41.71 533.18 41.71 533.25 41.7 533.25 41.7 566.8 41.71 566.8 41.71 596.89 105.42 596.89 105.42 533.18 41.71 533.18"/><rect class="b" x="0.02" y="603.04" width="35.54" height="63.71"/><rect class="b" x="0.02" y="742.77" width="35.54" height="63.71"/><rect class="b" x="0.02" y="672.9" width="35.54" height="63.71"/><polygon class="b" points="594.45 317.51 594.45 317.44 594.46 317.44 594.46 283.89 594.45 283.89 594.45 253.8 530.74 253.8 530.74 317.51 594.45 317.51"/><rect class="b" x="41.71" y="323.66" width="63.71" height="63.71"/><rect class="b" x="41.71" y="253.8" width="63.71" height="63.71"/><polygon class="b" points="454.73 317.51 454.73 317.44 454.73 317.44 454.73 283.89 454.73 283.89 454.73 253.8 391.02 253.8 391.02 317.51 454.73 317.51"/><polygon class="b" points="384.87 317.51 384.87 317.44 384.87 317.44 384.87 283.89 384.87 283.89 384.87 253.8 321.15 253.8 321.15 317.51 384.87 317.51"/><rect class="b" x="111.57" y="253.8" width="63.71" height="63.71"/><polygon class="b" points="524.59 317.51 524.59 317.44 524.59 317.44 524.59 283.89 524.59 283.89 524.59 253.8 460.88 253.8 460.88 317.51 524.59 317.51"/><polygon class="b" points="629.98 317.51 629.98 317.44 629.99 317.44 629.99 283.89 629.98 283.89 629.98 253.8 600.6 253.8 600.6 317.51 629.98 317.51"/><rect class="b" x="0.02" y="253.8" width="35.54" height="63.71"/><rect class="b" x="0.02" y="393.52" width="35.54" height="63.71"/><rect class="b" x="0.02" y="323.66" width="35.54" height="63.71"/><polygon class="b" points="629.98 0.04 629.98 0 600.6 0 600.6 0.04 600.6 38.09 600.6 38.13 629.98 38.13 629.98 38.09 629.98 0.04"/><polygon class="b" points="454.73 0.04 454.73 0 391.02 0 391.02 0.04 391.02 38.09 391.02 38.13 454.73 38.13 454.73 38.09 454.73 0.04"/><polygon class="b" points="524.59 0.04 524.59 0 460.88 0 460.88 0.04 460.88 38.09 460.88 38.13 524.59 38.13 524.59 38.09 524.59 0.04"/><polygon class="b" points="594.45 0.04 594.45 0 530.74 0 530.74 0.04 530.74 38.09 530.74 38.13 594.45 38.13 594.45 38.09 594.45 0.04"/><rect class="b" x="41.71" y="0.04" width="63.71" height="38.09"/><polygon class="b" points="315 44.28 315 44.21 251.29 44.21 251.29 44.28 251.29 107.92 251.29 107.99 315 107.99 315 107.92 315 44.28"/><polygon class="b" points="454.73 44.28 454.73 44.21 391.02 44.21 391.02 44.28 391.02 107.92 391.02 107.99 454.73 107.99 454.73 107.92 454.73 44.28"/><polygon class="b" points="384.87 44.28 384.87 44.21 321.15 44.21 321.15 44.28 321.15 107.92 321.15 107.99 384.87 107.99 384.87 107.92 384.87 44.28"/><polygon class="b" points="594.45 44.28 594.45 44.21 530.74 44.21 530.74 44.28 530.74 107.92 530.74 107.99 594.45 107.99 594.45 107.92 594.45 44.28"/><polygon class="b" points="524.59 44.28 524.59 44.21 460.88 44.21 460.88 44.28 460.88 107.92 460.88 107.99 524.59 107.99 524.59 107.92 524.59 44.28"/><polygon class="b" points="629.98 44.28 629.98 44.21 600.6 44.21 600.6 44.28 600.6 107.92 600.6 107.99 629.98 107.99 629.98 107.92 629.98 44.28"/><polygon class="b" points="105.42 52.45 105.42 44.28 41.7 44.28 41.7 107.99 105.42 107.99 105.42 107.92 105.42 52.45"/><path class="b" d="M175.28,44.28v-.07H113.66l-.07.07h-2V108h63.71V44.28Z"/><polygon class="b" points="245.14 44.28 245.14 44.21 181.43 44.21 181.43 44.28 181.43 107.92 181.43 107.99 245.14 107.99 245.14 107.92 245.14 44.28"/><polygon class="b" points="384.87 0.04 384.87 0 321.15 0 321.15 0.04 321.15 38.09 321.15 38.13 384.87 38.13 384.87 38.09 384.87 0.04"/><polygon class="b" points="175.28 4.93 175.28 0.04 111.57 0.04 111.57 38.13 175.28 38.13 175.28 38.09 175.28 4.93"/><polygon class="b" points="315 0.04 315 0 251.29 0 251.29 0.04 251.29 38.09 251.29 38.13 315 38.13 315 38.09 315 0.04"/><path class="b" d="M245.14,0V0H183.53l-.07,0h-2V38.13h63.71V0Z"/><polygon class="b" points="594.45 114.14 594.45 114.07 530.74 114.07 530.74 114.14 530.74 177.78 530.74 177.85 594.45 177.85 594.45 177.78 594.45 114.14"/><polygon class="b" points="629.98 114.14 629.98 114.07 600.6 114.07 600.6 114.14 600.6 177.78 600.6 177.85 629.98 177.85 629.98 177.78 629.98 114.14"/><polygon class="b" points="524.59 114.14 524.59 114.07 460.88 114.07 460.88 114.14 460.88 177.78 460.88 177.85 524.59 177.85 524.59 177.78 524.59 114.14"/><polygon class="b" points="524.59 184 524.59 183.93 460.88 183.93 460.88 184 460.88 217.56 460.88 247.65 524.59 247.65 524.59 217.56 524.59 184"/><polygon class="b" points="384.87 184 384.87 183.93 321.15 183.93 321.15 184 321.15 217.56 321.15 247.65 384.87 247.65 384.87 217.56 384.87 184"/><polygon class="b" points="594.45 184 594.45 183.93 530.74 183.93 530.74 184 530.74 217.56 530.74 247.65 594.45 247.65 594.45 217.56 594.45 184"/><polygon class="b" points="629.98 184 629.98 183.93 600.6 183.93 600.6 184 600.6 217.56 600.6 247.65 629.98 247.65 629.98 217.56 629.98 184"/><polygon class="b" points="454.73 184 454.73 183.93 391.02 183.93 391.02 184 391.02 217.56 391.02 247.65 454.73 247.65 454.73 217.56 454.73 184"/><polygon class="b" points="315 184 315 183.93 251.29 183.93 251.29 184 251.29 217.56 251.29 247.65 315 247.65 315 217.56 315 184"/><polygon class="b" points="35.56 184 35.56 183.93 0.02 183.93 0.02 184 0.02 217.56 0.02 247.65 35.56 247.65 35.56 217.56 35.56 184"/><polygon class="b" points="105.42 184 105.42 183.93 41.7 183.93 41.7 184 41.7 217.56 41.7 247.65 105.42 247.65 105.42 217.56 105.42 184"/><polygon class="b" points="245.14 184 245.14 183.93 181.43 183.93 181.43 184 181.43 217.56 181.43 247.65 245.14 247.65 245.14 217.56 245.14 184"/><polygon class="b" points="175.28 184 175.28 183.93 111.57 183.93 111.57 184 111.57 217.56 111.57 247.65 175.28 247.65 175.28 217.56 175.28 184"/><polygon class="b" points="35.56 122.32 35.56 114.14 0.02 114.14 0.02 157.86 0.02 177.78 0.02 177.85 35.56 177.85 35.56 177.78 35.56 122.32"/><polygon class="b" points="245.14 114.14 245.14 114.07 181.43 114.07 181.43 114.14 181.43 177.78 181.43 177.85 245.14 177.85 245.14 177.78 245.14 114.14"/><polygon class="b" points="175.28 114.14 175.28 114.07 111.57 114.07 111.57 114.14 111.57 177.78 111.57 177.85 175.28 177.85 175.28 177.78 175.28 114.14"/><polygon class="b" points="384.87 114.14 384.87 114.07 321.15 114.07 321.15 114.14 321.15 177.78 321.15 177.85 384.87 177.85 384.87 177.78 384.87 114.14"/><path class="b" d="M105.42,114.14v-.07H43.8l-.07.07h-2v63.71h63.71V114.14Z"/><polygon class="b" points="315 114.14 315 114.07 251.29 114.07 251.29 114.14 251.29 177.78 251.29 177.85 315 177.85 315 177.78 315 114.14"/><rect class="b" x="0.02" y="44.28" width="35.54" height="63.71"/><rect class="b" x="0.02" y="0.04" width="35.54" height="38.09"/><polygon class="b" points="454.73 114.14 454.73 114.07 391.02 114.07 391.02 114.14 391.02 177.78 391.02 177.85 454.73 177.85 454.73 177.78 454.73 114.14"/><rect class="b" x="100.93" y="82.39" width="291.86" height="373.11"/><rect class="c" x="100.93" y="82.78" width="291.86" height="186.55"/><path class="d" d="M310.32,173.8l-.47-1.59c-2.74-9.25-11-16-19.68-16-5.19,0-13.31-2.34-21.15-4.6-8.45-2.43-16.43-4.73-22.15-4.73s-13.36,2.3-21.51,4.74c-7.94,2.38-16.15,4.84-21.81,4.84-8.71,0-17,6.61-19.68,15.71l-.47,1.59a5.8,5.8,0,0,0,3.92,7.21,4.54,4.54,0,0,0,.75.16l.24.18c.4.27.8.52,1.2.77l4.31,21a2.56,2.56,0,0,0,2.49,2H297.4a2.54,2.54,0,0,0,2.49-2l4.32-21c.5-.29,1-.61,1.5-1a5.8,5.8,0,0,0,4.77-6.67A5.47,5.47,0,0,0,310.32,173.8Zm-15,26.32H198.38l-3.23-15.7a20.3,20.3,0,0,0,15.67-2.65l.29.19a20.23,20.23,0,0,0,22.69-.2l1.31.82a20.4,20.4,0,0,0,21.9-.1l1.19-.77L260,182.8a20.48,20.48,0,0,0,21.6-.09l1.53-1a20.23,20.23,0,0,0,15.45,2.62Zm10-24.24a.72.72,0,0,1-.58.29,2.5,2.5,0,0,0-1.53.52,15.24,15.24,0,0,1-17.91.42l-.72-.49a2.54,2.54,0,0,0-2.8-.06l-2.93,1.86a15.36,15.36,0,0,1-16.2.07l-3.12-2a2.55,2.55,0,0,0-2.72,0l-2.54,1.65a15.28,15.28,0,0,1-16.42.07l-2.74-1.74a2.54,2.54,0,0,0-2.82.07l-1.17.83a15.19,15.19,0,0,1-17.19.26l-1.72-1.13a2.53,2.53,0,0,0-2.91.08l-.34.24a15.24,15.24,0,0,1-17.76.25l-.8-.55a2.52,2.52,0,0,0-1.45-.46.69.69,0,0,1-.6-.25.73.73,0,0,1-.11-.64l.47-1.59c2.07-7,8.3-12.07,14.81-12.07s15-2.57,23.27-5.05c7.43-2.24,15.12-4.53,20.05-4.53s13,2.3,20.75,4.53c8.19,2.36,16.66,4.8,22.57,4.8,6.36,0,12.73,5.3,14.81,12.32l.47,1.59A.73.73,0,0,1,305.34,175.88Z"/><path class="d" d="M242.36,157.58a2.53,2.53,0,0,0-3.14-1.74h0l-13.11,3.78a2.54,2.54,0,1,0,1.34,4.9l.07,0,13.12-3.78A2.53,2.53,0,0,0,242.36,157.58Z"/><path class="d" d="M267.6,159.63l-13.11-3.78a2.54,2.54,0,0,0-1.41,4.88l13.11,3.78a2.8,2.8,0,0,0,.7.09,2.54,2.54,0,0,0,.71-5Z"/><path class="d" d="M246.86,160.28a2.54,2.54,0,0,0-2.54,2.54v3.28a2.54,2.54,0,1,0,5.08,0v-3.28a2.54,2.54,0,0,0-2.54-2.54Z"/><path class="d" d="M279.13,192.3H266a2.54,2.54,0,1,0,0,5.08h13.11a2.54,2.54,0,1,0,0-5.08Z"/><path class="d" d="M290.22,192.3h-3a2.54,2.54,0,0,0,0,5.08h3a2.54,2.54,0,0,0,0-5.08Z"/><rect class="e" x="100.93" y="82.39" width="291.86" height="373.11"/><path class="f" d="M142.2,405.69c9.44-9.7,33,7.27,0,29.1C109.17,413,132.77,396,142.2,405.69Z"/><line class="g" x1="131.55" y1="319.67" x2="362.17" y2="319.67"/><rect class="a" x="142.08" y="278.86" width="209.55" height="31.28" rx="15.64"/><rect class="b" x="151.5" y="107.95" width="291.86" height="373.11"/><rect class="f" x="151.5" y="108.34" width="291.86" height="186.55"/><path class="d" d="M360.89,199.36l-.47-1.59c-2.74-9.25-11-16-19.68-16-5.19,0-13.31-2.34-21.15-4.6-8.44-2.43-16.43-4.73-22.15-4.73s-13.36,2.3-21.51,4.74c-7.94,2.38-16.15,4.84-21.81,4.84-8.71,0-17,6.61-19.68,15.71l-.47,1.59a5.81,5.81,0,0,0,3.92,7.21,6.27,6.27,0,0,0,.75.17l.25.17c.39.27.79.52,1.2.77l4.31,21a2.54,2.54,0,0,0,2.48,2H348a2.56,2.56,0,0,0,2.49-2l4.32-21c.49-.29,1-.61,1.49-1a5.8,5.8,0,0,0,4.77-6.67A5.47,5.47,0,0,0,360.89,199.36Zm-15,26.32H249L245.72,210a20.33,20.33,0,0,0,15.68-2.65l.28.19a20.23,20.23,0,0,0,22.69-.2l1.31.82a20.4,20.4,0,0,0,21.9-.1l1.19-.77,1.77,1.1a20.49,20.49,0,0,0,21.59-.1l1.53-1a20.29,20.29,0,0,0,15.45,2.63Zm10-24.24a.72.72,0,0,1-.57.29,2.51,2.51,0,0,0-1.54.52,15.24,15.24,0,0,1-17.91.42l-.72-.49a2.54,2.54,0,0,0-2.8-.06L329.44,204a15.36,15.36,0,0,1-16.2.07l-3.12-2a2.53,2.53,0,0,0-2.71,0l-2.55,1.65a15.28,15.28,0,0,1-16.42.07l-2.74-1.74a2.54,2.54,0,0,0-2.82.07l-1.17.83a15.19,15.19,0,0,1-17.19.26l-1.72-1.13a2.51,2.51,0,0,0-2.9.08l-.35.24a15.24,15.24,0,0,1-17.76.25l-.8-.55a2.5,2.5,0,0,0-1.45-.46.67.67,0,0,1-.59-.25.73.73,0,0,1-.12-.64l.47-1.59c2.07-7,8.3-12.07,14.81-12.07s15-2.57,23.27-5c7.44-2.24,15.12-4.53,20.05-4.53s13,2.3,20.75,4.53c8.19,2.36,16.66,4.8,22.57,4.8,6.37,0,12.73,5.3,14.81,12.32l.47,1.59A.7.7,0,0,1,355.91,201.44Z"/><path class="d" d="M292.93,183.14a2.52,2.52,0,0,0-3.13-1.74h0l-13.11,3.78a2.54,2.54,0,0,0,1.34,4.9l.07,0,13.12-3.78A2.53,2.53,0,0,0,292.93,183.14Z"/><path class="d" d="M318.17,185.19l-13.1-3.78a2.54,2.54,0,0,0-1.42,4.88l13.11,3.78a2.83,2.83,0,0,0,.71.1,2.54,2.54,0,0,0,.7-5Z"/><path class="d" d="M297.43,185.85a2.54,2.54,0,0,0-2.54,2.53v3.28a2.54,2.54,0,1,0,5.08,0v-3.28a2.54,2.54,0,0,0-2.54-2.53Z"/><path class="d" d="M329.7,217.86H316.59a2.54,2.54,0,1,0,0,5.08H329.7a2.54,2.54,0,1,0,0-5.08Z"/><path class="d" d="M340.79,217.86h-3a2.54,2.54,0,1,0,0,5.08h3a2.54,2.54,0,0,0,0-5.08Z"/><rect class="e" x="151.5" y="107.95" width="291.86" height="373.11"/><path class="f" d="M192.77,431.25c9.44-9.7,33,7.27,0,29.1C159.74,438.53,183.34,421.55,192.77,431.25Z"/><line class="g" x1="182.12" y1="345.23" x2="412.74" y2="345.23"/><rect class="a" x="192.65" y="304.42" width="209.55" height="31.28" rx="15.64"/><rect class="b" x="202.65" y="133.51" width="291.86" height="373.11"/><rect class="h" x="202.65" y="133.9" width="291.86" height="186.55"/><path class="d" d="M412,224.92l-.47-1.59c-2.74-9.25-11-16-19.68-16-5.19,0-13.31-2.34-21.15-4.6-8.44-2.43-16.42-4.73-22.15-4.73s-13.36,2.3-21.5,4.74c-7.95,2.38-16.16,4.84-21.82,4.84-8.71,0-17,6.61-19.67,15.71l-.48,1.59a5.81,5.81,0,0,0,3.92,7.21,6.74,6.74,0,0,0,.75.17l.25.17c.39.27.79.52,1.2.77l4.31,21a2.54,2.54,0,0,0,2.49,2H399.13a2.55,2.55,0,0,0,2.49-2l4.32-21c.5-.29,1-.61,1.49-1a5.79,5.79,0,0,0,4.77-6.67A5.47,5.47,0,0,0,412,224.92Zm-15,26.32h-97l-3.23-15.7a20.36,20.36,0,0,0,15.68-2.64l.28.18a20.2,20.2,0,0,0,22.69-.2l1.31.82a20.4,20.4,0,0,0,21.9-.1l1.19-.77,1.77,1.1a20.49,20.49,0,0,0,21.59-.1l1.53-1a20.29,20.29,0,0,0,15.45,2.63Zm10-24.24a.73.73,0,0,1-.58.29,2.51,2.51,0,0,0-1.54.52,15.21,15.21,0,0,1-17.9.42l-.73-.49a2.54,2.54,0,0,0-2.8-.06l-2.93,1.86a15.36,15.36,0,0,1-16.2.07l-3.12-2a2.53,2.53,0,0,0-2.71,0L356,229.33a15.3,15.3,0,0,1-16.43.07l-2.74-1.74a2.52,2.52,0,0,0-2.81.07l-1.18.83a15.17,15.17,0,0,1-17.19.26L314,227.69a2.51,2.51,0,0,0-2.9.08l-.34.25a15.26,15.26,0,0,1-17.76.24l-.81-.55a2.49,2.49,0,0,0-1.44-.46.68.68,0,0,1-.6-.25.72.72,0,0,1-.12-.63l.48-1.6c2.06-7,8.29-12.07,14.8-12.07s15-2.57,23.28-5c7.43-2.24,15.12-4.53,20-4.53s13,2.3,20.76,4.53c8.18,2.36,16.65,4.8,22.56,4.8,6.37,0,12.73,5.3,14.81,12.32l.47,1.6A.68.68,0,0,1,407.07,227Z"/><path class="d" d="M344.09,208.7A2.55,2.55,0,0,0,341,207h0l-13.11,3.78a2.54,2.54,0,0,0,1.34,4.9l.06,0,13.12-3.78A2.54,2.54,0,0,0,344.09,208.7Z"/><path class="d" d="M369.33,210.75,356.22,207a2.54,2.54,0,1,0-1.42,4.88l13.11,3.78a2.83,2.83,0,0,0,.71.1,2.54,2.54,0,0,0,.7-5Z"/><path class="d" d="M348.58,211.41a2.54,2.54,0,0,0-2.54,2.53v3.28a2.54,2.54,0,0,0,5.08,0v-3.28a2.54,2.54,0,0,0-2.54-2.53Z"/><path class="d" d="M380.85,243.42H367.74a2.54,2.54,0,0,0,0,5.08h13.11a2.54,2.54,0,0,0,0-5.08Z"/><path class="d" d="M391.94,243.42h-3a2.54,2.54,0,0,0,0,5.08h3a2.54,2.54,0,1,0,0-5.08Z"/><rect class="e" x="202.65" y="133.51" width="291.86" height="373.11"/><path class="g" d="M243.93,456.81c9.43-9.7,33,7.28,0,29.1C210.9,464.09,234.49,447.11,243.93,456.81Z"/><line class="g" x1="233.27" y1="370.79" x2="463.89" y2="370.79"/><rect class="a" x="243.81" y="329.98" width="209.55" height="31.28" rx="15.64"/><rect class="b" x="254.33" y="158.68" width="291.86" height="373.11"/><rect class="i" x="254.33" y="159.07" width="291.86" height="186.55"/><path class="j" d="M463.72,250.09l-.47-1.59c-2.74-9.25-11-16-19.67-16-5.2,0-13.32-2.34-21.16-4.6-8.44-2.43-16.42-4.73-22.15-4.73s-13.36,2.3-21.5,4.74c-7.94,2.38-16.16,4.84-21.82,4.84-8.71,0-17,6.61-19.67,15.71l-.48,1.59a5.81,5.81,0,0,0,3.92,7.21,5,5,0,0,0,.75.16l.25.18c.39.27.79.52,1.2.77l4.31,21a2.54,2.54,0,0,0,2.49,2H450.81a2.54,2.54,0,0,0,2.49-2l4.32-21c.5-.29,1-.61,1.49-1a5.8,5.8,0,0,0,4.77-6.67A4.18,4.18,0,0,0,463.72,250.09Zm-15,26.32H351.79l-3.24-15.7a20.32,20.32,0,0,0,15.68-2.65l.28.19a20.25,20.25,0,0,0,22.7-.2l1.3.82a20.4,20.4,0,0,0,21.9-.1l1.2-.77,1.76,1.09A20.46,20.46,0,0,0,435,259l1.53-1A20.3,20.3,0,0,0,452,260.66Zm10-24.24a.73.73,0,0,1-.58.29,2.51,2.51,0,0,0-1.54.52,15.22,15.22,0,0,1-17.9.42l-.73-.49a2.53,2.53,0,0,0-2.79-.06l-2.93,1.86a15.37,15.37,0,0,1-16.21.07L413,252.83a2.55,2.55,0,0,0-2.72,0l-2.54,1.65a15.3,15.3,0,0,1-16.43.07l-2.74-1.74a2.52,2.52,0,0,0-2.81.07l-1.17.83a15.2,15.2,0,0,1-17.2.26l-1.72-1.13a2.51,2.51,0,0,0-2.9.08l-.34.24a15.24,15.24,0,0,1-17.76.25l-.8-.55a2.55,2.55,0,0,0-1.45-.46.68.68,0,0,1-.6-.25.7.7,0,0,1-.11-.64l.47-1.59c2.07-7,8.3-12.07,14.81-12.07s15-2.57,23.27-5.05c7.43-2.24,15.12-4.53,20-4.53s13,2.3,20.75,4.53c8.19,2.36,16.66,4.8,22.57,4.8,6.36,0,12.73,5.3,14.8,12.32l.47,1.59A.7.7,0,0,1,458.75,252.17Z"/><path class="j" d="M395.77,233.87a2.53,2.53,0,0,0-3.14-1.74h0l-13.11,3.78a2.54,2.54,0,1,0,1.34,4.9l.06,0L394,237A2.53,2.53,0,0,0,395.77,233.87Z"/><path class="j" d="M421,235.92l-13.11-3.78a2.54,2.54,0,1,0-1.41,4.88l13.11,3.78a3.19,3.19,0,0,0,.7.1,2.55,2.55,0,0,0,2.54-2.55,2.53,2.53,0,0,0-1.84-2.43Z"/><path class="j" d="M400.26,236.57a2.54,2.54,0,0,0-2.54,2.54v3.28a2.54,2.54,0,0,0,5.08,0v-3.28a2.54,2.54,0,0,0-2.54-2.54Z"/><path class="j" d="M432.53,268.59h-13.1a2.54,2.54,0,0,0,0,5.08h13.12a2.54,2.54,0,0,0,0-5.08Z"/><path class="j" d="M443.63,268.59h-3a2.54,2.54,0,0,0,0,5.08h3a2.54,2.54,0,0,0,0-5.08Z"/><rect class="e" x="254.33" y="158.68" width="291.86" height="373.11"/><path class="f" d="M295.61,482c9.43-9.7,33,7.27,0,29.1C262.58,489.26,286.17,472.28,295.61,482Z"/><line class="g" x1="284.95" y1="395.96" x2="515.57" y2="395.96"/><rect class="a" x="295.49" y="355.15" width="209.55" height="31.28" rx="15.64"/></svg>