<svg xmlns="http://www.w3.org/2000/svg" viewBox="0 0 645.85 651.83"><defs><style>.a{fill:#fff;}.b{fill:#6d5fa9;}.c{fill:#5b8085;}.d,.f{fill:none;stroke:#231f20;stroke-miterlimit:10;}.d{stroke-width:1.75px;}.e{fill:#ec5b55;}.f{stroke-width:1.5px;}.g{fill:#e5e5e5;}.h{fill:#ef8b33;}.i{fill:#f9dd6d;}.j{fill:#d8ab36;}</style></defs><rect class="a" x="0.88" y="0.87" width="422.19" height="539.72"/><rect class="b" x="0.88" y="1.44" width="422.19" height="269.86"/><path class="c" d="M303.77,133.11l-.69-2.31c-4-13.38-15.92-23.08-28.46-23.08-7.51,0-19.25-3.39-30.6-6.66-12.21-3.51-23.76-6.84-32-6.84s-19.33,3.33-31.1,6.86c-11.5,3.44-23.38,7-31.56,7-12.6,0-24.57,9.56-28.46,22.72l-.69,2.31a8.37,8.37,0,0,0,6.75,10.66l.36.25q.85.58,1.74,1.11l6.23,30.46a3.67,3.67,0,0,0,3.6,2.93H285.09a3.67,3.67,0,0,0,3.6-2.93l6.25-30.45c.72-.42,1.44-.88,2.16-1.37a8.4,8.4,0,0,0,6.9-9.66A8.52,8.52,0,0,0,303.77,133.11Zm-21.68,38.07H141.84l-4.68-22.72a29.39,29.39,0,0,0,22.68-3.82l.41.27a29.27,29.27,0,0,0,32.83-.29l1.89,1.19a29.53,29.53,0,0,0,31.68-.15l1.73-1.11,2.55,1.58a29.59,29.59,0,0,0,31.23-.14l2.22-1.4a29.33,29.33,0,0,0,22.35,3.8Zm14.48-35.07a1,1,0,0,1-.84.42,3.65,3.65,0,0,0-2.22.75,22,22,0,0,1-25.9.62l-1.05-.72a3.64,3.64,0,0,0-4-.08l-4.24,2.68a22.23,22.23,0,0,1-23.44.11l-4.51-2.82a3.67,3.67,0,0,0-3.93,0l-3.68,2.38a22.16,22.16,0,0,1-23.76.11l-4-2.52a3.68,3.68,0,0,0-4.07.1l-1.7,1.2a22,22,0,0,1-24.87.38l-2.49-1.64a3.67,3.67,0,0,0-4.2.11l-.49.36a22.06,22.06,0,0,1-25.69.36l-1.16-.81a3.75,3.75,0,0,0-2.1-.65,1,1,0,0,1-.86-.37,1,1,0,0,1-.17-.92l.69-2.3c3-10.12,12-17.46,21.42-17.46,9.26,0,21.67-3.71,33.66-7.31,10.75-3.24,21.87-6.55,29-6.55,7.28,0,18.84,3.33,30,6.55,11.85,3.42,24.1,6.94,32.65,6.94,9.2,0,18.41,7.67,21.42,17.83l.68,2.3A1,1,0,0,1,296.57,136.11Z"/><path class="c" d="M205.47,109.65a3.68,3.68,0,0,0-4.54-2.53h0l-19,5.47a3.67,3.67,0,1,0,1.94,7.08l.09,0,19-5.46A3.68,3.68,0,0,0,205.47,109.65Z"/><path class="c" d="M242,112.6l-19-5.46a3.67,3.67,0,1,0-2.05,7l19,5.47a3.54,3.54,0,0,0,1,.14,3.67,3.67,0,0,0,1-7.2Z"/><path class="c" d="M212,113.55a3.67,3.67,0,0,0-3.67,3.68V122a3.67,3.67,0,0,0,7.34,0v-4.74a3.67,3.67,0,0,0-3.67-3.68Z"/><path class="c" d="M258.65,159.87h-19a3.67,3.67,0,1,0,0,7.34h19a3.67,3.67,0,1,0,0-7.34Z"/><path class="c" d="M274.69,159.87h-4.37a3.67,3.67,0,1,0,0,7.34h4.37a3.67,3.67,0,1,0,0-7.34Z"/><rect class="d" x="0.88" y="0.87" width="422.19" height="539.72"/><path class="e" d="M60.58,468.55c13.65-14,47.78,10.52,0,42.09C12.8,479.07,46.93,454.52,60.58,468.55Z"/><line class="f" x1="45.17" y1="344.12" x2="378.77" y2="344.12"/><rect class="g" x="60.4" y="285.08" width="303.13" height="45.25" rx="15.64"/><rect class="a" x="74.03" y="37.85" width="422.19" height="539.72"/><rect class="e" x="74.03" y="38.42" width="422.19" height="269.86"/><path class="c" d="M376.92,170.08l-.68-2.31c-4-13.37-15.93-23.08-28.46-23.08-7.52,0-19.26-3.38-30.6-6.65-12.21-3.52-23.76-6.84-32-6.84s-19.33,3.33-31.11,6.86c-11.49,3.44-23.37,7-31.56,7-12.6,0-24.56,9.56-28.46,22.72l-.69,2.31A8.4,8.4,0,0,0,199,180.51a9.41,9.41,0,0,0,1.08.24l.36.25c.57.39,1.15.76,1.73,1.11l6.24,30.45a3.65,3.65,0,0,0,3.6,2.93H358.24a3.65,3.65,0,0,0,3.6-2.93l6.25-30.44c.72-.43,1.44-.88,2.16-1.38a8.4,8.4,0,0,0,6.91-9.65A8.72,8.72,0,0,0,376.92,170.08Zm-21.67,38.07H215l-4.68-22.71A29.48,29.48,0,0,0,233,181.62l.41.26a29.24,29.24,0,0,0,32.82-.29l1.89,1.2a29.53,29.53,0,0,0,31.68-.15l1.73-1.12,2.56,1.59a29.61,29.61,0,0,0,31.23-.14l2.21-1.4a29.38,29.38,0,0,0,22.35,3.79Zm14.47-35.06a1,1,0,0,1-.83.41,3.66,3.66,0,0,0-2.23.76,22,22,0,0,1-25.89.61l-1-.72a3.7,3.7,0,0,0-4.05-.08l-4.24,2.69a22.2,22.2,0,0,1-23.44.1L303.48,174a3.66,3.66,0,0,0-3.92,0l-3.68,2.38a22.14,22.14,0,0,1-23.76.1l-4-2.52a3.67,3.67,0,0,0-4.08.11l-1.69,1.19a22,22,0,0,1-24.87.38L235,174.08a3.67,3.67,0,0,0-4.2.12l-.49.36a22.1,22.1,0,0,1-25.7.36l-1.16-.81a3.7,3.7,0,0,0-2.09-.66,1,1,0,0,1-.87-.36,1,1,0,0,1-.16-.92l.68-2.31c3-10.11,12-17.46,21.42-17.46s21.67-3.71,33.67-7.3c10.75-3.24,21.87-6.55,29-6.55s18.84,3.33,30,6.55C327,148.51,339.24,152,347.79,152c9.21,0,18.42,7.66,21.42,17.82l.68,2.31A1,1,0,0,1,369.72,173.09Z"/><path class="c" d="M278.62,146.62a3.67,3.67,0,0,0-4.54-2.52h0l-19,5.47a3.68,3.68,0,0,0,1.94,7.09l.1,0,19-5.47A3.66,3.66,0,0,0,278.62,146.62Z"/><path class="c" d="M315.13,149.58l-19-5.47a3.68,3.68,0,0,0-2.05,7.06l19,5.47a3.86,3.86,0,0,0,1,.14,3.67,3.67,0,0,0,1-7.2Z"/><path class="c" d="M285.12,150.53a3.67,3.67,0,0,0-3.67,3.67v4.74a3.68,3.68,0,0,0,7.35,0V154.2a3.67,3.67,0,0,0-3.68-3.67Z"/><path class="c" d="M331.8,196.84h-19a3.68,3.68,0,0,0,0,7.35h19a3.68,3.68,0,0,0,0-7.35Z"/><path class="c" d="M347.85,196.84h-4.38a3.68,3.68,0,0,0,0,7.35h4.38a3.68,3.68,0,0,0,0-7.35Z"/><rect class="d" x="74.03" y="37.85" width="422.19" height="539.72"/><path class="e" d="M133.73,505.52c13.65-14,47.78,10.52,0,42.1C86,516.05,120.08,491.49,133.73,505.52Z"/><line class="f" x1="118.32" y1="381.09" x2="451.93" y2="381.09"/><rect class="g" x="133.56" y="322.06" width="303.13" height="45.25" rx="15.64"/><rect class="a" x="148.02" y="74.82" width="422.19" height="539.72"/><rect class="h" x="148.02" y="75.39" width="422.19" height="269.86"/><path class="c" d="M450.92,207.06l-.69-2.31c-4-13.38-15.92-23.08-28.46-23.08-7.51,0-19.25-3.39-30.6-6.66-12.21-3.51-23.76-6.84-32-6.84S339.8,171.5,328,175c-11.5,3.44-23.38,7-31.56,7-12.6,0-24.57,9.56-28.46,22.72l-.69,2.31a8.37,8.37,0,0,0,6.75,10.66l.36.25q.85.59,1.74,1.11l6.23,30.46a3.68,3.68,0,0,0,3.6,2.93H432.24a3.68,3.68,0,0,0,3.6-2.93l6.25-30.45c.72-.42,1.44-.88,2.16-1.37a8.4,8.4,0,0,0,6.9-9.66A8.52,8.52,0,0,0,450.92,207.06Zm-21.68,38.07H289l-4.68-22.72A29.39,29.39,0,0,0,307,218.59l.41.27a29.27,29.27,0,0,0,32.83-.29l1.89,1.19a29.53,29.53,0,0,0,31.68-.15l1.73-1.11,2.55,1.58a29.59,29.59,0,0,0,31.23-.14l2.22-1.4a29.33,29.33,0,0,0,22.35,3.8Zm14.48-35.07a1,1,0,0,1-.84.42,3.65,3.65,0,0,0-2.22.75,22,22,0,0,1-25.9.62l-1.05-.72a3.64,3.64,0,0,0-4-.08l-4.25,2.68a22.21,22.21,0,0,1-23.43.11L377.48,211a3.67,3.67,0,0,0-3.93,0l-3.68,2.38a22.16,22.16,0,0,1-23.76.11l-4-2.52a3.68,3.68,0,0,0-4.07.1l-1.7,1.2a22,22,0,0,1-24.87.38L309,211.06a3.67,3.67,0,0,0-4.2.11l-.49.36a22.06,22.06,0,0,1-25.69.36l-1.16-.81a3.75,3.75,0,0,0-2.1-.65,1,1,0,0,1-.86-.37,1,1,0,0,1-.17-.92l.69-2.3c3-10.12,12-17.46,21.42-17.46,9.26,0,21.67-3.72,33.66-7.31,10.75-3.24,21.87-6.55,29-6.55s18.84,3.33,30,6.55c11.85,3.41,24.1,6.94,32.65,6.94,9.2,0,18.41,7.67,21.42,17.83l.68,2.3A1,1,0,0,1,443.72,210.06Z"/><path class="c" d="M352.62,183.59a3.69,3.69,0,0,0-4.54-2.52h0l-19,5.48a3.67,3.67,0,1,0,1.94,7.08l.09,0,19-5.46A3.68,3.68,0,0,0,352.62,183.59Z"/><path class="c" d="M389.13,186.55l-19-5.46a3.67,3.67,0,1,0-2.05,7l19,5.47a3.92,3.92,0,0,0,1,.14,3.67,3.67,0,0,0,1-7.2Z"/><path class="c" d="M359.12,187.5a3.67,3.67,0,0,0-3.67,3.68v4.74a3.67,3.67,0,0,0,7.34,0v-4.74a3.67,3.67,0,0,0-3.67-3.68Z"/><path class="c" d="M405.8,233.82h-19a3.67,3.67,0,1,0,0,7.34h19a3.67,3.67,0,1,0,0-7.34Z"/><path class="c" d="M421.84,233.82h-4.37a3.67,3.67,0,0,0,0,7.34h4.37a3.67,3.67,0,1,0,0-7.34Z"/><rect class="d" x="148.02" y="74.82" width="422.19" height="539.72"/><path class="f" d="M207.73,542.5c13.65-14,47.78,10.52,0,42.09C160,553,194.08,528.47,207.73,542.5Z"/><line class="f" x1="192.32" y1="418.07" x2="525.92" y2="418.07"/><rect class="g" x="207.55" y="359.03" width="303.13" height="45.25" rx="15.64"/><rect class="a" x="222.79" y="111.23" width="422.19" height="539.72"/><rect class="i" x="222.79" y="111.8" width="422.19" height="269.86"/><path class="j" d="M525.68,243.46l-.69-2.3c-4-13.38-15.92-23.09-28.46-23.09-7.51,0-19.25-3.38-30.6-6.65-12.21-3.52-23.76-6.84-32-6.84s-19.33,3.33-31.1,6.86c-11.5,3.44-23.38,7-31.56,7-12.6,0-24.57,9.55-28.46,22.72l-.69,2.3a8.4,8.4,0,0,0,5.67,10.43,10.46,10.46,0,0,0,1.08.24l.36.25q.85.59,1.74,1.11l6.23,30.45a3.68,3.68,0,0,0,3.6,2.94H507a3.68,3.68,0,0,0,3.6-2.94l6.25-30.44c.72-.43,1.44-.88,2.16-1.38a8.39,8.39,0,0,0,6.9-9.65A8.68,8.68,0,0,0,525.68,243.46ZM504,281.53H363.75l-4.68-22.71A29.39,29.39,0,0,0,381.75,255l.41.26A29.23,29.23,0,0,0,415,255l1.89,1.2a29.53,29.53,0,0,0,31.68-.15l1.73-1.12,2.55,1.59a29.61,29.61,0,0,0,31.23-.14l2.22-1.4a29.33,29.33,0,0,0,22.35,3.8Zm14.48-35.06a1,1,0,0,1-.84.42,3.65,3.65,0,0,0-2.22.75,22,22,0,0,1-25.9.62l-1-.72a3.64,3.64,0,0,0-4-.08l-4.24,2.68a22.23,22.23,0,0,1-23.44.11l-4.51-2.83a3.69,3.69,0,0,0-3.93,0l-3.68,2.38a22.16,22.16,0,0,1-23.76.11l-4-2.52a3.66,3.66,0,0,0-4.07.1l-1.7,1.19a22,22,0,0,1-24.87.39l-2.49-1.64a3.66,3.66,0,0,0-4.2.11l-.49.36a22.06,22.06,0,0,1-25.69.36l-1.16-.81a3.75,3.75,0,0,0-2.1-.65,1,1,0,0,1-.86-.37,1,1,0,0,1-.17-.92l.69-2.31c3-10.11,12-17.46,21.42-17.46,9.26,0,21.67-3.71,33.66-7.3,10.75-3.24,21.87-6.55,29-6.55,7.28,0,18.84,3.33,30,6.55,11.85,3.41,24.1,6.94,32.65,6.94,9.2,0,18.41,7.67,21.42,17.82l.68,2.31A1,1,0,0,1,518.48,246.47Z"/><path class="j" d="M427.38,220a3.67,3.67,0,0,0-4.54-2.52h0l-19,5.47a3.68,3.68,0,0,0,1.94,7.09l.09,0,19-5.46A3.68,3.68,0,0,0,427.38,220Z"/><path class="j" d="M463.89,223l-19-5.47a3.68,3.68,0,1,0-2.05,7.06l19,5.47a3.92,3.92,0,0,0,1,.14,3.67,3.67,0,0,0,1-7.2Z"/><path class="j" d="M433.88,223.91a3.67,3.67,0,0,0-3.67,3.67v4.75a3.67,3.67,0,0,0,7.34,0v-4.75a3.67,3.67,0,0,0-3.67-3.67Z"/><path class="j" d="M480.56,270.23h-19a3.67,3.67,0,1,0,0,7.34h19a3.67,3.67,0,1,0,0-7.34Z"/><path class="j" d="M496.6,270.23h-4.37a3.67,3.67,0,1,0,0,7.34h4.37a3.67,3.67,0,1,0,0-7.34Z"/><rect class="d" x="222.79" y="111.23" width="422.19" height="539.72"/><path class="e" d="M282.49,578.9c13.65-14,47.78,10.53,0,42.1C234.71,589.43,268.84,564.87,282.49,578.9Z"/><line class="f" x1="267.08" y1="454.47" x2="600.68" y2="454.47"/><rect class="g" x="282.32" y="395.44" width="303.13" height="45.25" rx="15.64"/></svg>