<svg xmlns="http://www.w3.org/2000/svg" viewBox="0 0 1200 630"><defs><style>.a{fill:#e5e5e5;}.b{fill:#fff;}.c{fill:#231f20;}.d{fill:#ffce06;}.e{fill:#6d5fa9;}.f{fill:#5b8085;}.g,.i{fill:none;stroke:#231f20;stroke-miterlimit:10;}.g{stroke-width:1.75px;}.h{fill:#ec5b55;}.i{stroke-width:1.5px;}.j{fill:#ef8b33;}.k{fill:#f9dd6d;}.l{fill:#d8ab36;}</style></defs><rect class="a" width="1200" height="630"/><polygon class="b" points="742.77 308.85 806.48 308.85 806.48 245.14 806.48 245.14 806.48 245.13 742.77 245.13 742.77 308.84 742.77 308.84 742.77 308.85"/><polygon class="b" points="806.48 315 806.48 314.99 742.77 314.99 742.77 378.71 742.77 378.71 742.77 378.71 806.48 378.71 806.48 315 806.48 315"/><rect class="b" x="1022.22" y="0.02" width="63.71" height="29.38"/><rect class="b" x="1022.22" y="175.27" width="63.71" height="63.71"/><rect class="b" x="1022.22" y="105.41" width="63.71" height="63.71"/><rect class="b" x="1022.22" y="35.55" width="63.71" height="63.71"/><rect class="b" x="952.35" y="35.55" width="63.71" height="63.71"/><polygon class="b" points="812.63 169.12 876.34 169.12 876.34 105.41 876.34 105.41 876.34 105.41 812.63 105.41 812.63 169.12 812.63 169.12 812.63 169.12"/><rect class="b" x="1022.22" y="524.58" width="63.71" height="63.71"/><rect class="b" x="1092.08" y="315" width="63.71" height="63.71"/><rect class="b" x="1092.08" y="175.27" width="63.71" height="63.71"/><rect class="b" x="1092.08" y="245.14" width="63.71" height="63.71"/><rect class="b" x="1092.08" y="35.55" width="63.71" height="63.71"/><rect class="b" x="1092.08" y="105.41" width="63.71" height="63.71"/><rect class="b" x="1092.08" y="0.02" width="63.71" height="29.38"/><rect class="b" x="952.35" y="524.58" width="63.71" height="63.71"/><rect class="b" x="1092.08" y="524.58" width="63.71" height="63.71"/><rect class="b" x="1092.08" y="454.72" width="63.71" height="63.71"/><rect class="b" x="1092.08" y="384.86" width="63.71" height="63.71"/><polygon class="b" points="742.77 238.99 806.48 238.99 806.48 175.27 806.48 175.27 806.48 175.27 742.77 175.27 742.77 238.98 742.77 238.98 742.77 238.99"/><rect class="b" x="952.35" y="384.86" width="63.71" height="63.71"/><rect class="b" x="952.35" y="315" width="63.71" height="63.71"/><rect class="b" x="952.35" y="175.27" width="63.71" height="63.71"/><rect class="b" x="952.35" y="245.14" width="63.71" height="63.71"/><polygon class="b" points="742.77 99.26 806.48 99.26 806.48 35.55 806.48 35.55 806.48 35.54 742.77 35.54 742.77 99.26 742.77 99.26 742.77 99.26"/><rect class="b" x="1022.22" y="245.14" width="63.71" height="63.71"/><polygon class="b" points="742.77 169.12 806.48 169.12 806.48 105.41 806.48 105.41 806.48 105.41 742.77 105.41 742.77 169.12 742.77 169.12 742.77 169.12"/><rect class="b" x="1022.22" y="454.72" width="63.71" height="63.71"/><rect class="b" x="952.35" y="454.72" width="63.71" height="63.71"/><rect class="b" x="1022.22" y="315" width="63.71" height="63.71"/><rect class="b" x="952.35" y="105.41" width="63.71" height="63.71"/><rect class="b" x="1022.22" y="384.86" width="63.71" height="63.71"/><polygon class="b" points="812.63 238.99 876.34 238.99 876.34 175.27 876.34 175.27 876.34 175.27 812.63 175.27 812.63 238.98 812.63 238.98 812.63 238.99"/><polygon class="b" points="876.34 315 876.34 314.99 812.63 314.99 812.63 378.71 812.63 378.71 812.63 378.71 876.34 378.71 876.34 315 876.34 315"/><polygon class="b" points="812.63 308.85 876.34 308.85 876.34 245.14 876.34 245.14 876.34 245.13 812.63 245.13 812.63 308.84 812.63 308.84 812.63 308.85"/><rect class="b" x="952.35" y="0.02" width="63.71" height="29.38"/><rect class="b" x="1161.94" y="35.55" width="38.06" height="63.71"/><rect class="b" x="1161.94" y="0.02" width="38.06" height="29.38"/><rect class="b" x="1161.94" y="105.41" width="38.06" height="63.71"/><polygon class="b" points="812.63 29.4 876.34 29.4 876.34 0.02 876.34 0.02 876.34 0.01 812.63 0.01 812.63 29.39 812.63 29.39 812.63 29.4"/><polygon class="b" points="812.63 99.26 876.34 99.26 876.34 35.55 876.34 35.55 876.34 35.54 812.63 35.54 812.63 99.26 812.63 99.26 812.63 99.26"/><polygon class="b" points="742.77 29.4 806.48 29.4 806.48 0.02 806.48 0.02 806.48 0.01 742.77 0.01 742.77 29.39 742.77 29.39 742.77 29.4"/><rect class="b" x="1161.94" y="594.45" width="38.06" height="35.54"/><rect class="b" x="1161.94" y="384.86" width="38.06" height="63.71"/><rect class="b" x="1161.94" y="454.72" width="38.06" height="63.71"/><rect class="b" x="1161.94" y="245.14" width="38.06" height="63.71"/><rect class="b" x="1161.94" y="524.58" width="38.06" height="63.71"/><rect class="b" x="1161.94" y="315" width="38.06" height="63.71"/><rect class="b" x="952.35" y="594.45" width="63.71" height="35.54"/><rect class="b" x="1092.08" y="594.45" width="63.71" height="35.54"/><rect class="b" x="1022.22" y="594.45" width="63.71" height="35.54"/><rect class="b" x="1161.94" y="175.27" width="38.06" height="63.71"/><polygon class="b" points="457.17 245.13 393.45 245.13 393.45 308.84 393.52 308.84 393.52 308.85 457.23 308.85 457.23 245.13 457.17 245.13 457.17 245.13"/><polygon class="b" points="457.17 314.99 393.45 314.99 393.46 378.71 393.52 378.71 393.52 378.71 457.23 378.71 457.23 315 457.17 315 457.17 314.99"/><polygon class="b" points="736.62 0.01 672.9 0.01 672.9 29.39 672.9 29.39 672.9 29.4 736.62 29.4 736.62 0.02 736.62 0.02 736.62 0.01"/><polygon class="b" points="457.17 384.86 393.46 384.86 393.46 448.57 393.52 448.57 393.52 448.57 457.23 448.57 457.23 384.86 457.17 384.86 457.17 384.86"/><polygon class="b" points="527.03 454.72 463.32 454.72 463.32 518.43 463.38 518.43 463.38 518.43 527.1 518.43 527.1 454.72 527.03 454.72 527.03 454.72"/><polygon class="b" points="736.62 175.27 672.9 175.27 672.9 238.98 672.9 238.98 672.9 238.99 736.62 238.99 736.62 175.27 736.62 175.27 736.62 175.27"/><polygon class="b" points="736.62 105.41 672.9 105.41 672.9 169.12 672.9 169.12 672.9 169.12 736.62 169.12 736.62 105.41 736.62 105.41 736.62 105.41"/><polygon class="b" points="736.62 35.54 672.9 35.54 672.9 99.26 672.9 99.26 672.9 99.26 736.62 99.26 736.62 35.55 736.62 35.55 736.62 35.54"/><polygon class="b" points="533.18 169.12 533.24 169.12 533.24 169.12 566.8 169.12 566.8 169.12 596.89 169.12 596.89 105.41 533.18 105.41 533.18 169.12"/><polygon class="b" points="666.75 35.54 603.04 35.54 603.04 99.26 633.2 99.26 633.2 99.26 666.76 99.26 666.76 35.55 666.75 35.55 666.75 35.54"/><polygon class="b" points="527.03 105.41 463.32 105.41 463.32 169.12 463.38 169.12 463.38 169.12 527.1 169.12 527.1 105.41 527.03 105.41 527.03 105.41"/><rect class="b" x="672.9" y="524.58" width="63.71" height="63.71"/><polygon class="b" points="533.18 518.43 533.25 518.43 533.25 518.43 566.8 518.43 566.8 518.43 596.89 518.43 596.89 454.72 533.18 454.72 533.18 518.43"/><rect class="b" x="603.04" y="524.58" width="63.71" height="63.71"/><polygon class="b" points="806.48 524.58 742.77 524.58 742.77 588.29 806.48 588.29 806.48 580.05 806.48 580.05 806.48 524.58 806.48 524.58 806.48 524.58"/><polygon class="b" points="806.48 454.72 742.77 454.72 742.77 518.43 744.86 518.43 744.86 518.43 806.48 518.43 806.48 454.72 806.48 454.72 806.48 454.72"/><polygon class="b" points="806.48 384.86 742.77 384.86 742.77 448.57 742.77 448.57 742.77 448.57 806.48 448.57 806.48 384.86 806.48 384.86 806.48 384.86"/><polygon class="b" points="457.17 175.27 393.45 175.27 393.45 238.98 393.52 238.98 393.52 238.98 457.23 238.98 457.23 175.27 457.17 175.27 457.17 175.27"/><polygon class="b" points="533.18 308.84 533.24 308.84 533.24 308.85 566.8 308.85 566.8 308.84 596.89 308.84 596.89 245.13 533.18 245.13 533.18 308.84"/><polygon class="b" points="666.75 384.86 603.04 384.86 603.04 448.57 666.75 448.57 666.75 440.33 666.76 440.33 666.76 384.86 666.75 384.86 666.75 384.86"/><polygon class="b" points="533.18 378.71 533.25 378.71 533.25 378.71 566.8 378.71 566.8 378.71 596.89 378.71 596.89 314.99 533.18 314.99 533.18 378.71"/><polygon class="b" points="666.75 314.99 603.04 314.99 603.04 378.71 633.2 378.71 633.2 378.71 666.76 378.71 666.76 315 666.75 315 666.75 314.99"/><polygon class="b" points="666.75 175.27 603.04 175.27 603.04 238.98 633.2 238.98 633.2 238.99 666.76 238.99 666.76 175.27 666.75 175.27 666.75 175.27"/><polygon class="b" points="666.75 245.13 603.04 245.13 603.04 308.84 633.2 308.84 633.2 308.85 666.76 308.85 666.76 245.14 666.75 245.14 666.75 245.13"/><polygon class="b" points="457.17 524.58 401.7 524.58 401.7 524.58 393.52 524.58 393.52 588.29 457.23 588.29 457.23 524.58 457.17 524.58 457.17 524.58"/><polygon class="b" points="457.17 35.54 393.45 35.54 393.45 99.26 393.52 99.26 393.52 99.26 457.23 99.26 457.23 35.55 457.17 35.55 457.17 35.54"/><polygon class="b" points="736.62 245.13 672.9 245.13 672.9 308.84 672.9 308.84 672.9 308.85 736.62 308.85 736.62 245.14 736.62 245.14 736.62 245.13"/><polygon class="b" points="457.17 105.41 393.45 105.41 393.45 169.12 393.52 169.12 393.52 169.12 457.23 169.12 457.23 105.41 457.17 105.41 457.17 105.41"/><path class="b" d="M457.17,454.72H393.46v61.61l.06.07v2h63.71V454.72Z"/><polygon class="b" points="387.31 454.72 331.84 454.72 331.84 454.72 323.66 454.72 323.66 518.43 387.37 518.43 387.37 454.72 387.31 454.72 387.31 454.72"/><polygon class="b" points="736.62 454.72 672.9 454.72 672.9 518.43 736.62 518.43 736.62 510.19 736.62 510.19 736.62 454.72 736.62 454.72 736.62 454.72"/><rect class="b" x="603.04" y="454.72" width="63.71" height="63.71"/><polygon class="b" points="533.18 448.57 533.25 448.57 533.25 448.57 566.8 448.57 566.8 448.57 596.89 448.57 596.89 384.86 533.18 384.86 533.18 448.57"/><polygon class="b" points="736.62 314.99 672.9 314.99 672.9 378.71 672.91 378.71 672.91 378.71 736.62 378.71 736.62 315 736.62 315 736.62 314.99"/><polygon class="b" points="666.75 105.41 603.04 105.41 603.04 169.12 633.2 169.12 633.2 169.12 666.76 169.12 666.76 105.41 666.75 105.41 666.75 105.41"/><polygon class="b" points="736.62 384.86 672.9 384.86 672.9 448.57 675 448.57 675 448.57 736.62 448.57 736.62 384.86 736.62 384.86 736.62 384.86"/><polygon class="b" points="527.03 175.27 463.32 175.27 463.32 238.98 463.38 238.98 463.38 238.98 527.1 238.98 527.1 175.27 527.03 175.27 527.03 175.27"/><polygon class="b" points="533.18 238.98 533.24 238.98 533.24 238.98 566.8 238.98 566.8 238.98 596.89 238.98 596.89 175.27 533.18 175.27 533.18 238.98"/><polygon class="b" points="527.03 384.86 463.32 384.86 463.32 448.57 463.38 448.57 463.38 448.57 527.1 448.57 527.1 384.86 527.03 384.86 527.03 384.86"/><polygon class="b" points="527.03 314.99 463.32 314.99 463.32 378.71 463.38 378.71 463.38 378.71 527.1 378.71 527.1 315 527.03 315 527.03 314.99"/><polygon class="b" points="527.03 245.13 463.32 245.13 463.32 308.84 463.38 308.84 463.38 308.85 527.1 308.85 527.1 245.13 527.03 245.13 527.03 245.13"/><polygon class="b" points="666.75 0.01 603.04 0.01 603.04 29.39 633.2 29.39 633.2 29.4 666.76 29.4 666.76 0.02 666.75 0.02 666.75 0.01"/><polygon class="b" points="317.44 314.99 283.89 314.99 283.89 315 253.8 315 253.8 378.71 317.51 378.71 317.51 315 317.44 315 317.44 314.99"/><polygon class="b" points="317.44 384.86 283.89 384.86 283.89 384.86 253.8 384.86 253.8 448.57 317.51 448.57 317.51 384.86 317.44 384.86 317.44 384.86"/><polygon class="b" points="527.03 594.44 471.56 594.44 471.57 594.44 463.38 594.44 463.38 629.98 527.1 629.98 527.1 594.44 527.03 594.44 527.03 594.44"/><polygon class="b" points="533.18 29.39 533.24 29.39 533.24 29.4 566.8 29.4 566.8 29.39 596.89 29.39 596.89 0.01 533.18 0.01 533.18 29.39"/><polygon class="b" points="533.18 629.98 533.25 629.98 533.25 629.98 566.8 629.98 566.8 629.98 596.89 629.98 596.89 594.44 533.18 594.44 533.18 629.98"/><polygon class="b" points="916.05 105.41 882.49 105.41 882.49 169.12 882.49 169.12 882.49 169.12 946.2 169.12 946.2 105.41 916.05 105.41 916.05 105.41"/><polygon class="b" points="916.05 245.13 882.49 245.13 882.49 308.84 882.49 308.84 882.49 308.85 946.2 308.85 946.2 245.14 916.05 245.14 916.05 245.13"/><polygon class="b" points="916.05 35.54 882.49 35.54 882.49 99.26 882.49 99.26 882.49 99.26 946.2 99.26 946.2 35.55 916.05 35.55 916.05 35.54"/><polygon class="b" points="916.05 0.01 882.49 0.01 882.49 29.39 882.49 29.39 882.49 29.4 946.2 29.4 946.2 0.02 916.05 0.02 916.05 0.01"/><polygon class="b" points="916.05 175.27 882.49 175.27 882.49 238.98 882.49 238.98 882.49 238.99 946.2 238.99 946.2 175.27 916.05 175.27 916.05 175.27"/><polygon class="b" points="916.05 314.99 882.49 314.99 882.49 378.71 882.49 378.71 882.49 378.71 946.2 378.71 946.2 315 916.05 315 916.05 314.99"/><polygon class="b" points="916.05 594.44 882.49 594.44 882.49 629.98 882.49 629.98 882.49 629.99 946.2 629.99 946.2 594.45 916.05 594.45 916.05 594.44"/><polygon class="b" points="916.05 524.58 882.49 524.58 882.49 588.29 882.49 588.29 882.49 588.3 946.2 588.3 946.2 524.58 916.05 524.58 916.05 524.58"/><polygon class="b" points="916.05 384.86 882.49 384.86 882.49 448.57 882.49 448.57 882.49 448.57 946.2 448.57 946.2 384.86 916.05 384.86 916.05 384.86"/><polygon class="b" points="916.05 454.72 882.49 454.72 882.49 518.43 882.49 518.43 882.49 518.43 946.2 518.43 946.2 454.72 916.05 454.72 916.05 454.72"/><polygon class="b" points="387.31 105.41 323.59 105.41 323.59 169.12 323.66 169.12 323.66 169.12 387.37 169.12 387.37 105.41 387.31 105.41 387.31 105.41"/><polygon class="b" points="387.31 175.27 323.59 175.27 323.59 238.98 323.66 238.98 323.66 238.98 387.37 238.98 387.37 175.27 387.31 175.27 387.31 175.27"/><polygon class="b" points="387.31 314.99 323.59 314.99 323.59 378.71 323.66 378.71 323.66 378.71 387.37 378.71 387.37 315 387.31 315 387.31 314.99"/><polygon class="b" points="387.31 35.54 323.59 35.54 323.59 99.26 323.66 99.26 323.66 99.26 387.37 99.26 387.37 35.55 387.31 35.55 387.31 35.54"/><polygon class="b" points="387.31 245.13 323.59 245.13 323.59 308.84 323.66 308.84 323.66 308.85 387.37 308.85 387.37 245.13 387.31 245.13 387.31 245.13"/><polygon class="b" points="527.03 0.01 463.32 0.01 463.32 29.39 463.38 29.39 463.38 29.4 527.1 29.4 527.1 0.02 527.03 0.02 527.03 0.01"/><polygon class="b" points="533.18 99.26 533.24 99.26 533.24 99.26 566.8 99.26 566.8 99.26 596.89 99.26 596.89 35.54 533.18 35.54 533.18 99.26"/><polygon class="b" points="527.03 35.54 463.32 35.54 463.32 99.26 463.38 99.26 463.38 99.26 527.1 99.26 527.1 35.55 527.03 35.55 527.03 35.54"/><path class="b" d="M387.31,384.86H323.59v61.61l.07.07v2h63.71V384.86Z"/><polygon class="b" points="387.31 0.01 323.59 0.01 323.59 29.39 323.66 29.39 323.66 29.4 387.37 29.4 387.37 0.02 387.31 0.02 387.31 0.01"/><polygon class="b" points="457.17 0.01 393.45 0.01 393.45 29.39 393.52 29.39 393.52 29.4 457.23 29.4 457.23 0.02 457.17 0.02 457.17 0.01"/><polygon class="b" points="876.34 594.44 812.63 594.44 812.63 629.98 856.41 629.98 856.41 629.99 876.34 629.99 876.34 594.45 876.34 594.45 876.34 594.44"/><polygon class="b" points="876.34 384.86 812.63 384.86 812.63 448.57 812.63 448.57 812.63 448.57 876.34 448.57 876.34 384.86 876.34 384.86 876.34 384.86"/><polygon class="b" points="876.34 454.72 812.63 454.72 812.63 518.43 812.63 518.43 812.63 518.43 876.34 518.43 876.34 454.72 876.34 454.72 876.34 454.72"/><polygon class="b" points="876.34 524.58 812.63 524.58 812.63 588.29 814.72 588.29 814.73 588.3 876.34 588.3 876.34 524.58 876.34 524.58 876.34 524.58"/><path class="b" d="M527,524.58H463.32V586.2l.06.06v2h63.71V524.58Z"/><polygon class="b" points="533.18 588.29 533.25 588.29 533.25 588.29 566.8 588.29 566.8 588.29 596.89 588.29 596.89 524.58 533.18 524.58 533.18 588.29"/><rect class="b" x="603.04" y="594.44" width="63.71" height="35.54"/><rect class="b" x="742.77" y="594.44" width="63.71" height="35.54"/><rect class="b" x="672.9" y="594.44" width="63.71" height="35.54"/><polygon class="b" points="317.51 35.55 317.44 35.55 317.44 35.54 283.89 35.54 283.89 35.55 253.8 35.55 253.8 99.26 317.51 99.26 317.51 35.55"/><rect class="b" x="323.66" y="524.58" width="63.71" height="63.71"/><rect class="b" x="253.8" y="524.58" width="63.71" height="63.71"/><polygon class="b" points="317.51 175.27 317.44 175.27 317.44 175.27 283.89 175.27 283.89 175.27 253.8 175.27 253.8 238.98 317.51 238.98 317.51 175.27"/><polygon class="b" points="317.51 245.13 317.44 245.13 317.44 245.13 283.89 245.13 283.89 245.13 253.8 245.13 253.8 308.85 317.51 308.85 317.51 245.13"/><rect class="b" x="253.8" y="454.72" width="63.71" height="63.71"/><polygon class="b" points="317.51 105.41 317.44 105.41 317.44 105.41 283.89 105.41 283.89 105.41 253.8 105.41 253.8 169.12 317.51 169.12 317.51 105.41"/><polygon class="b" points="317.51 0.02 317.44 0.02 317.44 0.01 283.89 0.01 283.89 0.02 253.8 0.02 253.8 29.4 317.51 29.4 317.51 0.02"/><rect class="b" x="253.8" y="594.44" width="63.71" height="35.54"/><rect class="b" x="393.52" y="594.44" width="63.71" height="35.54"/><rect class="b" x="323.66" y="594.44" width="63.71" height="35.54"/><polygon class="b" points="0.04 0.02 0 0.02 0 29.4 0.04 29.4 38.09 29.4 38.13 29.4 38.13 0.02 38.09 0.02 0.04 0.02"/><polygon class="b" points="0.04 175.27 0 175.27 0 238.98 0.04 238.98 38.09 238.98 38.13 238.98 38.13 175.27 38.09 175.27 0.04 175.27"/><polygon class="b" points="0.04 105.41 0 105.41 0 169.12 0.04 169.12 38.09 169.12 38.13 169.12 38.13 105.41 38.09 105.41 0.04 105.41"/><polygon class="b" points="0.04 35.55 0 35.55 0 99.26 0.04 99.26 38.09 99.26 38.13 99.26 38.13 35.55 38.09 35.55 0.04 35.55"/><rect class="b" x="0.04" y="524.58" width="38.09" height="63.71"/><polygon class="b" points="44.28 315 44.21 315 44.21 378.71 44.28 378.71 107.92 378.71 107.99 378.71 107.99 315 107.92 315 44.28 315"/><polygon class="b" points="44.28 175.27 44.21 175.27 44.21 238.98 44.28 238.98 107.92 238.98 107.99 238.98 107.99 175.27 107.92 175.27 44.28 175.27"/><polygon class="b" points="44.28 245.13 44.21 245.13 44.21 308.85 44.28 308.85 107.92 308.85 107.99 308.85 107.99 245.13 107.92 245.13 44.28 245.13"/><polygon class="b" points="44.28 35.55 44.21 35.55 44.21 99.26 44.28 99.26 107.92 99.26 107.99 99.26 107.99 35.55 107.92 35.55 44.28 35.55"/><polygon class="b" points="44.28 105.41 44.21 105.41 44.21 169.12 44.28 169.12 107.92 169.12 107.99 169.12 107.99 105.41 107.92 105.41 44.28 105.41"/><polygon class="b" points="44.28 0.02 44.21 0.02 44.21 29.4 44.28 29.4 107.92 29.4 107.99 29.4 107.99 0.02 107.92 0.02 44.28 0.02"/><polygon class="b" points="52.45 524.58 44.28 524.58 44.28 588.29 107.99 588.29 107.99 524.58 107.92 524.58 52.45 524.58"/><path class="b" d="M44.28,454.72h-.07v61.62l.07.07v2H108V454.72H44.28Z"/><polygon class="b" points="44.28 384.86 44.21 384.86 44.21 448.57 44.28 448.57 107.92 448.57 107.99 448.57 107.99 384.86 107.92 384.86 44.28 384.86"/><polygon class="b" points="0.04 245.13 0 245.13 0 308.85 0.04 308.85 38.09 308.85 38.13 308.85 38.13 245.13 38.09 245.13 0.04 245.13"/><polygon class="b" points="4.93 454.72 0.04 454.72 0.04 518.43 38.13 518.43 38.13 454.72 38.09 454.72 4.93 454.72"/><polygon class="b" points="0.04 315 0 315 0 378.71 0.04 378.71 38.09 378.71 38.13 378.71 38.13 315 38.09 315 0.04 315"/><path class="b" d="M0,384.86H0v61.61l0,.07v2H38.13V384.86H0Z"/><polygon class="b" points="114.14 35.55 114.07 35.55 114.07 99.26 114.14 99.26 177.78 99.26 177.85 99.26 177.85 35.55 177.78 35.55 114.14 35.55"/><polygon class="b" points="114.14 0.02 114.07 0.02 114.07 29.4 114.14 29.4 177.78 29.4 177.85 29.4 177.85 0.02 177.78 0.02 114.14 0.02"/><polygon class="b" points="114.14 105.41 114.07 105.41 114.07 169.12 114.14 169.12 177.78 169.12 177.85 169.12 177.85 105.41 177.78 105.41 114.14 105.41"/><polygon class="b" points="184 105.41 183.93 105.41 183.93 169.12 184 169.12 217.56 169.12 247.65 169.12 247.65 105.41 217.56 105.41 184 105.41"/><polygon class="b" points="184 245.13 183.93 245.13 183.93 308.85 184 308.85 217.56 308.85 247.65 308.85 247.65 245.13 217.56 245.13 184 245.13"/><polygon class="b" points="184 35.55 183.93 35.55 183.93 99.26 184 99.26 217.56 99.26 247.65 99.26 247.65 35.55 217.56 35.55 184 35.55"/><polygon class="b" points="184 0.02 183.93 0.02 183.93 29.4 184 29.4 217.56 29.4 247.65 29.4 247.65 0.02 217.56 0.02 184 0.02"/><polygon class="b" points="184 175.27 183.93 175.27 183.93 238.98 184 238.98 217.56 238.98 247.65 238.98 247.65 175.27 217.56 175.27 184 175.27"/><polygon class="b" points="184 315 183.93 315 183.93 378.71 184 378.71 217.56 378.71 247.65 378.71 247.65 315 217.56 315 184 315"/><polygon class="b" points="184 594.44 183.93 594.44 183.93 629.98 184 629.98 217.56 629.98 247.65 629.98 247.65 594.44 217.56 594.44 184 594.44"/><polygon class="b" points="184 524.58 183.93 524.58 183.93 588.29 184 588.29 217.56 588.29 247.65 588.29 247.65 524.58 217.56 524.58 184 524.58"/><polygon class="b" points="184 384.86 183.93 384.86 183.93 448.57 184 448.57 217.56 448.57 247.65 448.57 247.65 384.86 217.56 384.86 184 384.86"/><polygon class="b" points="184 454.72 183.93 454.72 183.93 518.43 184 518.43 217.56 518.43 247.65 518.43 247.65 454.72 217.56 454.72 184 454.72"/><polygon class="b" points="122.32 594.44 114.14 594.44 114.14 629.98 157.86 629.98 177.78 629.98 177.85 629.98 177.85 594.44 177.78 594.44 122.32 594.44"/><polygon class="b" points="114.14 384.86 114.07 384.86 114.07 448.57 114.14 448.57 177.78 448.57 177.85 448.57 177.85 384.86 177.78 384.86 114.14 384.86"/><polygon class="b" points="114.14 454.72 114.07 454.72 114.07 518.43 114.14 518.43 177.78 518.43 177.85 518.43 177.85 454.72 177.78 454.72 114.14 454.72"/><polygon class="b" points="114.14 245.13 114.07 245.13 114.07 308.85 114.14 308.85 177.78 308.85 177.85 308.85 177.85 245.13 177.78 245.13 114.14 245.13"/><path class="b" d="M114.14,524.58h-.07V586.2l.07.07v2h63.71V524.58H114.14Z"/><polygon class="b" points="114.14 315 114.07 315 114.07 378.71 114.14 378.71 177.78 378.71 177.85 378.71 177.85 315 177.78 315 114.14 315"/><rect class="b" x="44.28" y="594.44" width="63.71" height="35.54"/><rect class="b" x="0.04" y="594.44" width="38.09" height="35.54"/><polygon class="b" points="114.14 175.27 114.07 175.27 114.07 238.98 114.14 238.98 177.78 238.98 177.85 238.98 177.85 175.27 177.78 175.27 114.14 175.27"/><path class="c" d="M657.2,512.73V439.55h14.74l3.22,9.38h1.07a21.4,21.4,0,0,1,5.49-6,23.3,23.3,0,0,1,7.44-3.55,33.14,33.14,0,0,1,9.18-1.21q12.33,0,18.77,6.9t6.43,19.9v47.72H704.11V470q0-8-3.22-11.86t-9.25-3.82q-7.9,0-11.46,6.44t-3.55,17.55v34.45Z"/><path class="c" d="M760.13,514.07q-11.53,0-17.36-6.1t-5.83-16.42q0-8.18,3.49-13.4a20.46,20.46,0,0,1,10.32-7.77,51.82,51.82,0,0,1,16.62-2.82l16.08-.4v-3.22q0-5.08-3.62-7.64t-11-2.54a50,50,0,0,0-10,1.07,68.79,68.79,0,0,0-11.19,3.35l-6.3-13.54a57.4,57.4,0,0,1,13.34-4.82,66.43,66.43,0,0,1,14.81-1.61q15.54,0,24,6.37t8.44,19.36v48.79H787.2l-3.08-9.25h-.54a31.37,31.37,0,0,1-7.1,6.23,26.67,26.67,0,0,1-7.84,3.35A35.54,35.54,0,0,1,760.13,514.07ZM767,498.79a20.1,20.1,0,0,0,8.31-1.68,14.17,14.17,0,0,0,6-4.82,12.65,12.65,0,0,0,2.21-7.44v-6l-11.13.27a31.72,31.72,0,0,0-9,1.34,11.63,11.63,0,0,0-5.56,3.48,8.94,8.94,0,0,0-1.88,5.9c0,3.21,1.07,5.52,3.22,6.9A14.19,14.19,0,0,0,767,498.79Z"/><path class="c" d="M816.15,512.73V500.66l19-4v-41l-15.41-2.28v-13.8h30.15l2.82,12.33h.94a29.72,29.72,0,0,1,8.84-9.92q5.36-3.75,13.54-3.75a51.4,51.4,0,0,1,5.76.4,25.11,25.11,0,0,1,7,1.88l-5.23,18.09A33.09,33.09,0,0,0,873,456.84a18,18,0,0,0-10.26,2.75,16.69,16.69,0,0,0-6.1,7.43,26.66,26.66,0,0,0-2,10.59v19l19.17,4v12.07Z"/><path class="c" d="M898.44,512.73V439.55h14.74l3.22,9.38h1.07a21.28,21.28,0,0,1,5.5-6,23.15,23.15,0,0,1,7.43-3.55,33.16,33.16,0,0,1,9.19-1.21q12.31,0,18.76,6.9t6.43,19.9v47.72H945.35V470q0-8-3.22-11.86t-9.25-3.82q-7.9,0-11.46,6.44t-3.55,17.55v34.45Z"/><path class="c" d="M1018.52,514.07q-12.85,0-21.84-4.43a30.88,30.88,0,0,1-13.74-13q-4.76-8.56-4.76-20.9a45.71,45.71,0,0,1,4-19.84A29.66,29.66,0,0,1,994,442.83q7.77-4.62,18.76-4.62,10.32,0,17.56,4.09A27.1,27.1,0,0,1,1041.38,454q3.81,7.57,3.81,18.16v9.65H997.08a15,15,0,0,0,3.28,9,18,18,0,0,0,8.11,5.5,33.23,33.23,0,0,0,11.13,1.81,51.76,51.76,0,0,0,11.05-1.28,93.1,93.1,0,0,0,12.4-3.68v15.68a45,45,0,0,1-12.13,4.09A68.77,68.77,0,0,1,1018.52,514.07Zm9.25-45.57a16.44,16.44,0,0,0-1.94-8.24,14.06,14.06,0,0,0-5.16-5.3,14.66,14.66,0,0,0-7.51-1.87,15.29,15.29,0,0,0-10.58,4q-4.43,4-5.1,11.46Z"/><path class="c" d="M657.87,424.72V322.86H677.3v47c0,1.79,0,3.51-.13,5.16s-.2,3.29-.34,4.9-.33,3.35-.6,5.22h.27q1.88-2.81,4.15-5.76t4.69-5.9l18.63-22h22.52L699.68,382l28.55,42.75H707.32l-19.7-30.42-10.32,7.9v22.52Z"/><path class="c" d="M761.6,426.06q-11.65,0-18.16-6.9t-6.5-19.9V351.54h19.44V394.3q0,7.36,2.54,11.52t9.25,4.16q6.44,0,9.78-3a15.49,15.49,0,0,0,4.63-8.38A56.41,56.41,0,0,0,783.85,386V351.54h19.43v73.18H788.54l-3.22-9.38h-1.07a20.69,20.69,0,0,1-5.56,5.76,26.06,26.06,0,0,1-7.77,3.69A33.06,33.06,0,0,1,761.6,426.06Z"/><path class="c" d="M818.7,424.72V412.66l24.12-4v-69.7l-19.43-4V322.86h38.86v85.78l22.12,4v12.06Z"/><path class="c" d="M899.11,424.72V412.66l24.39-4v-41l-20.77-2.28V351.54h40.21v57.1l21.84,4v12.06Zm34.18-81.49c-3.85,0-6.75-.93-8.72-2.81s-2.94-4.69-2.94-8.44,1-6.46,2.94-8.38,5-2.88,9-2.88,6.88.94,8.85,2.81,3,4.65,3,8.31-1,6.48-3,8.44S937.31,343.23,933.29,343.23Z"/><ellipse class="d" cx="933.71" cy="332.17" rx="13.34" ry="12.36"/><path class="c" d="M679.71,219.91q-11.52,0-17.35-6.1t-5.83-16.42q0-8.17,3.48-13.4a20.62,20.62,0,0,1,10.32-7.78A52.21,52.21,0,0,1,687,173.4L703,173v-3.22q0-5.09-3.61-7.64t-11-2.54a50,50,0,0,0-10,1.07A68.79,68.79,0,0,0,667.25,164L661,150.48a57.4,57.4,0,0,1,13.34-4.82,65.79,65.79,0,0,1,14.81-1.61q15.54,0,24,6.36t8.44,19.37v48.79H706.79l-3.09-9.25h-.53a31.58,31.58,0,0,1-7.1,6.23,27,27,0,0,1-7.85,3.35A35.48,35.48,0,0,1,679.71,219.91Zm6.84-15.28a20.1,20.1,0,0,0,8.31-1.68,14.08,14.08,0,0,0,6-4.82,12.58,12.58,0,0,0,2.21-7.44v-6l-11.12.27a31.85,31.85,0,0,0-9,1.34,11.68,11.68,0,0,0-5.56,3.48,9,9,0,0,0-1.87,5.9c0,3.21,1.07,5.52,3.21,6.9A14.25,14.25,0,0,0,686.55,204.63Z"/><path class="c" d="M735.74,218.57V206.5l19-4v-41l-15.42-2.28v-13.8h30.16l2.81,12.33h.94a29.64,29.64,0,0,1,8.85-9.92q5.35-3.75,13.53-3.75a51.71,51.71,0,0,1,5.77.4,25.2,25.2,0,0,1,7,1.88l-5.23,18.09a31.76,31.76,0,0,0-4.69-1.21,32.13,32.13,0,0,0-5.9-.53,17.9,17.9,0,0,0-10.25,2.75,16.63,16.63,0,0,0-6.1,7.43,26.66,26.66,0,0,0-2,10.59v19l19.17,4v12.07Z"/><path class="c" d="M856.09,219.91q-12.33,0-20.31-4.16a26.2,26.2,0,0,1-11.86-12.4Q820,195.12,820,182.92q0-12.73,4.08-21.38a28.15,28.15,0,0,1,12.27-13.07q8.18-4.42,20.37-4.42a72.61,72.61,0,0,1,11.66,1,48.88,48.88,0,0,1,11.93,3.56L874.72,164a45,45,0,0,0-9.79-2.82,50.63,50.63,0,0,0-7.1-.67A19.23,19.23,0,0,0,847.78,163a14.71,14.71,0,0,0-6,7.23,31.54,31.54,0,0,0-2,12.07,29.17,29.17,0,0,0,2.14,12.06,14.29,14.29,0,0,0,6.23,6.9,20.83,20.83,0,0,0,10,2.21,37.57,37.57,0,0,0,9.18-1.27,40.45,40.45,0,0,0,10.79-4.76v17.42a43.17,43.17,0,0,1-11,4A54.26,54.26,0,0,1,856.09,219.91Z"/><path class="c" d="M898.44,218.57V116.71h19.43v20.77q0,4.29-.06,8.65t-.34,8.64h1.07a27.64,27.64,0,0,1,5.1-5.9,18.58,18.58,0,0,1,6.7-3.62,30.46,30.46,0,0,1,9-1.2q12.33,0,18.89,6.9t6.57,19.9v47.72H945.35V175.81q0-9-3.35-12.33t-9.12-3.35a13.82,13.82,0,0,0-8.44,2.48,14.61,14.61,0,0,0-5,7.77,48.5,48.5,0,0,0-1.61,13.74v34.45Z"/><path class="c" d="M979.52,218.57V206.5l24.4-4v-41l-20.78-2.28v-13.8h40.21v57.09l21.84,4v12.07Zm34.18-81.49c-3.84,0-6.75-.94-8.71-2.82s-3-4.69-3-8.44,1-6.45,3-8.38,5-2.88,9-2.88,6.88.94,8.84,2.82,3,4.64,3,8.31-1,6.48-3,8.44S1017.72,137.08,1013.7,137.08Z"/><ellipse class="d" cx="1013.88" cy="125.4" rx="13.34" ry="12.36"/><path class="c" d="M660.55,306.57l-10.32-73.18h17.69l3.35,37.8c.18,1.87.36,3.71.54,5.49s.35,3.73.53,5.83.41,4.58.67,7.44h.54c.35-2.86.67-5.29.94-7.3s.55-3.93.87-5.77.69-3.82,1.14-6l5.36-26.81h16.62l5.36,26.94q.52,2.55,1.07,5.5t1.07,6.23q.54,3.29,1.08,7.17h.53q.4-3.88.67-7.17c.18-2.19.36-4.24.54-6.17s.31-3.72.4-5.42l3.35-37.8H730l-10.32,73.18H697.54l-5.09-28.41q-.81-4.43-1.21-7.31t-.94-6.23h-.53q-.54,3.48-.94,6.3t-1.21,7.24l-5.23,28.41Z"/><path class="c" d="M761.6,307.91q-11.65,0-18.16-6.9t-6.5-19.91V233.39h19.44v42.76q0,7.37,2.54,11.52t9.25,4.16q6.44,0,9.78-2.95a15.49,15.49,0,0,0,4.63-8.38,56.41,56.41,0,0,0,1.27-12.66V233.39h19.43v73.18H788.54l-3.22-9.38h-1.07a20.69,20.69,0,0,1-5.56,5.76,26.06,26.06,0,0,1-7.77,3.69A33.42,33.42,0,0,1,761.6,307.91Z"/><path class="c" d="M814.67,306.57V233.39h13.14l2.14,9.12H831a21.14,21.14,0,0,1,3.15-5.9,11.43,11.43,0,0,1,4.35-3.42,14.68,14.68,0,0,1,6-1.14q5.9,0,9,3.08t4.16,9h.67a24.88,24.88,0,0,1,5.76-9q3.35-3.07,9.11-3.08t8.72,3q2.94,3,4,9A87.42,87.42,0,0,1,887.05,259v47.58H870.3V255.1a15.33,15.33,0,0,0-.41-3.82,4.26,4.26,0,0,0-1.4-2.34,4.75,4.75,0,0,0-3-.81,5.6,5.6,0,0,0-3.62,1.08,6,6,0,0,0-1.87,3.55,31.6,31.6,0,0,0-.54,6.5v47.31h-17V255.1a15.87,15.87,0,0,0-.4-3.82,4.09,4.09,0,0,0-1.48-2.34,5,5,0,0,0-3.08-.81,5.6,5.6,0,0,0-3.62,1.08,5.94,5.94,0,0,0-1.88,3.48,32.3,32.3,0,0,0-.53,6.57v47.31Z"/><rect class="b" x="101.03" y="87.83" width="291.86" height="373.11"/><rect class="e" x="101.03" y="88.22" width="291.86" height="186.55"/><path class="f" d="M310.42,179.24l-.48-1.59c-2.73-9.25-11-16-19.67-16-5.2,0-13.31-2.34-21.16-4.6-8.44-2.43-16.42-4.73-22.15-4.73s-13.36,2.3-21.5,4.74c-7.94,2.38-16.16,4.84-21.82,4.84-8.71,0-17,6.61-19.67,15.71l-.48,1.59a5.81,5.81,0,0,0,3.93,7.21,6.11,6.11,0,0,0,.74.17l.25.17c.39.27.79.52,1.2.77l4.31,21.05a2.54,2.54,0,0,0,2.49,2H297.5a2.54,2.54,0,0,0,2.49-2l4.32-21.05c.5-.29,1-.61,1.49-.95a5.81,5.81,0,0,0,4.78-6.67C310.54,179.7,310.48,179.47,310.42,179.24Zm-15,26.32h-97l-3.24-15.7a20.36,20.36,0,0,0,15.68-2.64l.28.18a20.21,20.21,0,0,0,22.7-.2l1.3.82a20.4,20.4,0,0,0,21.9-.1l1.2-.77,1.76,1.1a20.49,20.49,0,0,0,21.59-.1l1.53-1a20.31,20.31,0,0,0,15.46,2.63Zm10-24.24a.73.73,0,0,1-.58.29,2.53,2.53,0,0,0-1.54.52,15.21,15.21,0,0,1-17.9.42l-.72-.49a2.54,2.54,0,0,0-2.8-.06L279,183.86a15.36,15.36,0,0,1-16.2.07l-3.12-2a2.55,2.55,0,0,0-2.72,0l-2.54,1.65a15.3,15.3,0,0,1-16.43.07L235.23,182a2.54,2.54,0,0,0-2.82.07l-1.17.83a15.19,15.19,0,0,1-17.2.26L212.32,182a2.51,2.51,0,0,0-2.9.08l-.34.25a15.26,15.26,0,0,1-17.76.24l-.8-.55a2.52,2.52,0,0,0-1.45-.46.69.69,0,0,1-.6-.25.68.68,0,0,1-.11-.63l.47-1.6c2.07-7,8.3-12.07,14.81-12.07s15-2.57,23.27-5.05c7.43-2.24,15.12-4.53,20.05-4.53s13,2.3,20.75,4.53c8.19,2.36,16.66,4.8,22.57,4.8,6.36,0,12.73,5.3,14.8,12.32l.48,1.6A.72.72,0,0,1,305.44,181.32Z"/><path class="f" d="M242.46,163a2.55,2.55,0,0,0-3.14-1.74h0l-13.11,3.78a2.54,2.54,0,1,0,1.34,4.9l.07,0,13.11-3.78A2.53,2.53,0,0,0,242.46,163Z"/><path class="f" d="M267.7,165.07l-13.11-3.78a2.54,2.54,0,0,0-1.41,4.88L266.29,170a2.75,2.75,0,0,0,.7.1,2.54,2.54,0,0,0,.7-5Z"/><path class="f" d="M247,165.73a2.53,2.53,0,0,0-2.53,2.53v3.28a2.54,2.54,0,1,0,5.07,0v-3.28a2.53,2.53,0,0,0-2.54-2.53Z"/><path class="f" d="M279.23,197.74H266.12a2.54,2.54,0,0,0,0,5.08h13.12a2.54,2.54,0,0,0,0-5.08Z"/><path class="f" d="M290.32,197.74h-3a2.54,2.54,0,0,0,0,5.08h3a2.54,2.54,0,0,0,0-5.08Z"/><rect class="g" x="101.03" y="87.83" width="291.86" height="373.11"/><path class="h" d="M142.3,411.13c9.44-9.7,33,7.28,0,29.1C109.27,418.41,132.86,401.43,142.3,411.13Z"/><line class="i" x1="131.64" y1="325.11" x2="362.27" y2="325.11"/><rect class="a" x="142.18" y="284.3" width="209.55" height="31.28" rx="15.64"/><rect class="b" x="151.6" y="113.39" width="291.86" height="373.11"/><rect class="h" x="151.6" y="113.78" width="291.86" height="186.55"/><path class="f" d="M361,204.8l-.47-1.59c-2.74-9.25-11-16-19.68-16-5.19,0-13.31-2.34-21.15-4.6-8.45-2.43-16.43-4.73-22.15-4.73s-13.36,2.3-21.51,4.74c-7.94,2.38-16.15,4.84-21.81,4.84-8.71,0-17,6.61-19.68,15.71l-.47,1.59A5.79,5.79,0,0,0,238,212a6.11,6.11,0,0,0,.74.17l.25.17c.4.27.8.53,1.2.77l4.31,21a2.56,2.56,0,0,0,2.49,2H348.07a2.54,2.54,0,0,0,2.49-2l4.32-21c.5-.3,1-.61,1.5-1a5.8,5.8,0,0,0,4.77-6.67A5.47,5.47,0,0,0,361,204.8Zm-15,26.32H249.05l-3.23-15.7a20.34,20.34,0,0,0,15.67-2.64l.28.18a20.21,20.21,0,0,0,22.7-.2l1.31.83a20.42,20.42,0,0,0,21.9-.11l1.19-.77,1.76,1.1a20.48,20.48,0,0,0,21.6-.1l1.53-1a20.28,20.28,0,0,0,15.45,2.63Zm10-24.24a.72.72,0,0,1-.58.29,2.5,2.5,0,0,0-1.53.52,15.24,15.24,0,0,1-17.91.43l-.72-.5a2.54,2.54,0,0,0-2.8-.06l-2.93,1.86a15.36,15.36,0,0,1-16.2.07l-3.12-2a2.53,2.53,0,0,0-2.72,0L305,209.21a15.3,15.3,0,0,1-16.42.08l-2.74-1.75a2.54,2.54,0,0,0-2.82.08l-1.17.82a15.17,15.17,0,0,1-17.19.26l-1.72-1.13a2.54,2.54,0,0,0-2.91.08l-.34.25a15.28,15.28,0,0,1-17.76.25l-.8-.56a2.6,2.6,0,0,0-1.45-.46.69.69,0,0,1-.6-.25.71.71,0,0,1-.11-.63l.47-1.6c2.07-7,8.3-12.07,14.81-12.07s15-2.56,23.27-5.05c7.43-2.24,15.12-4.53,20-4.53s13,2.3,20.75,4.53c8.19,2.36,16.66,4.8,22.57,4.8,6.36,0,12.73,5.3,14.81,12.32l.47,1.6A.72.72,0,0,1,356,206.88Z"/><path class="f" d="M293,188.58a2.55,2.55,0,0,0-3.14-1.74h0l-13.11,3.79a2.54,2.54,0,1,0,1.34,4.89l.07,0,13.12-3.77A2.55,2.55,0,0,0,293,188.58Z"/><path class="f" d="M318.27,190.63l-13.11-3.78a2.54,2.54,0,0,0-1.41,4.88l13.11,3.78a2.82,2.82,0,0,0,.7.1,2.54,2.54,0,0,0,.71-5Z"/><path class="f" d="M297.53,191.29a2.54,2.54,0,0,0-2.54,2.54v3.27a2.54,2.54,0,0,0,5.08,0v-3.27a2.54,2.54,0,0,0-2.54-2.54Z"/><path class="f" d="M329.8,223.3H316.69a2.54,2.54,0,0,0,0,5.08H329.8a2.54,2.54,0,0,0,0-5.08Z"/><path class="f" d="M340.89,223.3h-3a2.54,2.54,0,0,0,0,5.08h3a2.54,2.54,0,1,0,0-5.08Z"/><rect class="g" x="151.6" y="113.39" width="291.86" height="373.11"/><path class="h" d="M192.87,436.69c9.44-9.7,33,7.28,0,29.1C159.84,444,183.44,427,192.87,436.69Z"/><line class="i" x1="182.22" y1="350.67" x2="412.84" y2="350.67"/><rect class="a" x="192.75" y="309.86" width="209.55" height="31.28" rx="15.64"/><rect class="b" x="202.75" y="138.95" width="291.86" height="373.11"/><rect class="j" x="202.75" y="139.34" width="291.86" height="186.55"/><path class="f" d="M412.14,230.36l-.47-1.59c-2.74-9.25-11-16-19.68-16-5.19,0-13.31-2.34-21.15-4.6-8.44-2.43-16.43-4.73-22.15-4.73s-13.36,2.31-21.51,4.74c-7.94,2.38-16.15,4.84-21.81,4.84-8.71,0-17,6.61-19.68,15.71l-.47,1.59a5.81,5.81,0,0,0,4.67,7.38l.25.17c.39.27.79.53,1.2.77l4.31,21.05a2.54,2.54,0,0,0,2.48,2h101.1a2.56,2.56,0,0,0,2.49-2l4.32-21c.49-.3,1-.61,1.49-1a5.79,5.79,0,0,0,4.77-6.67A5.47,5.47,0,0,0,412.14,230.36Zm-15,26.32h-97L297,241a20.37,20.37,0,0,0,15.68-2.64l.28.18a20.2,20.2,0,0,0,22.69-.2l1.31.83a20.42,20.42,0,0,0,21.9-.11l1.19-.77,1.77,1.1a20.46,20.46,0,0,0,21.59-.1l1.53-1a20.29,20.29,0,0,0,15.45,2.63Zm10-24.24a.69.69,0,0,1-.57.29,2.51,2.51,0,0,0-1.54.52,15.24,15.24,0,0,1-17.91.43l-.72-.5a2.54,2.54,0,0,0-2.8-.06L380.69,235a15.36,15.36,0,0,1-16.2.07l-3.12-2a2.51,2.51,0,0,0-2.71,0l-2.55,1.64a15.3,15.3,0,0,1-16.42.08L337,233.1a2.54,2.54,0,0,0-2.82.08L333,234a15.17,15.17,0,0,1-17.19.26l-1.72-1.13a2.54,2.54,0,0,0-2.9.08l-.35.25a15.28,15.28,0,0,1-17.76.25l-.8-.56a2.49,2.49,0,0,0-1.45-.45.7.7,0,0,1-.59-.26.69.69,0,0,1-.12-.63l.47-1.6c2.07-7,8.3-12.07,14.81-12.07s15-2.56,23.27-5c7.44-2.24,15.12-4.53,20.05-4.53s13,2.31,20.75,4.53c8.19,2.36,16.66,4.8,22.57,4.8,6.37,0,12.73,5.3,14.81,12.32l.47,1.6A.68.68,0,0,1,407.16,232.44Z"/><path class="f" d="M344.18,214.15a2.54,2.54,0,0,0-3.13-1.75h0l-13.11,3.79a2.54,2.54,0,1,0,1.34,4.89l.07,0,13.12-3.77A2.54,2.54,0,0,0,344.18,214.15Z"/><path class="f" d="M369.42,216.19l-13.1-3.78a2.54,2.54,0,0,0-1.42,4.88L368,221.07a2.83,2.83,0,0,0,.71.1,2.54,2.54,0,0,0,.7-5Z"/><path class="f" d="M348.68,216.85a2.54,2.54,0,0,0-2.54,2.54v3.27a2.54,2.54,0,1,0,5.08,0v-3.27a2.54,2.54,0,0,0-2.54-2.54Z"/><path class="f" d="M381,248.86H367.84a2.54,2.54,0,1,0,0,5.08H381a2.54,2.54,0,1,0,0-5.08Z"/><path class="f" d="M392,248.86h-3a2.54,2.54,0,1,0,0,5.08h3a2.54,2.54,0,0,0,0-5.08Z"/><rect class="g" x="202.75" y="138.95" width="291.86" height="373.11"/><path class="i" d="M244,462.25c9.44-9.7,33,7.28,0,29.1C211,469.53,234.59,452.55,244,462.25Z"/><line class="i" x1="233.37" y1="376.23" x2="463.99" y2="376.23"/><rect class="a" x="243.9" y="335.43" width="209.55" height="31.28" rx="15.64"/><rect class="b" x="254.43" y="164.12" width="291.86" height="373.11"/><rect class="k" x="254.43" y="164.51" width="291.86" height="186.55"/><path class="l" d="M463.82,255.53l-.47-1.59c-2.74-9.25-11-16-19.68-16-5.19,0-13.31-2.34-21.15-4.6-8.44-2.43-16.43-4.73-22.15-4.73s-13.36,2.3-21.5,4.74c-7.95,2.38-16.16,4.84-21.82,4.84-8.71,0-17,6.61-19.67,15.71l-.48,1.59a5.8,5.8,0,0,0,3.92,7.21,6.74,6.74,0,0,0,.75.17l.25.17c.39.27.79.52,1.2.77l4.31,21a2.54,2.54,0,0,0,2.49,2H450.91a2.56,2.56,0,0,0,2.49-2l4.32-21c.49-.29,1-.61,1.49-1a5.79,5.79,0,0,0,4.77-6.67A5.47,5.47,0,0,0,463.82,255.53Zm-15,26.32h-97l-3.23-15.7a20.36,20.36,0,0,0,15.68-2.64l.28.18a20.2,20.2,0,0,0,22.69-.2l1.31.82a20.4,20.4,0,0,0,21.9-.1l1.19-.77,1.77,1.1a20.49,20.49,0,0,0,21.59-.1l1.53-1A20.29,20.29,0,0,0,452,266.1Zm10-24.24a.72.72,0,0,1-.57.29,2.51,2.51,0,0,0-1.54.52,15.21,15.21,0,0,1-17.9.42l-.73-.49a2.54,2.54,0,0,0-2.8-.06l-2.93,1.86a15.36,15.36,0,0,1-16.2.07l-3.12-2a2.53,2.53,0,0,0-2.71,0l-2.55,1.65a15.28,15.28,0,0,1-16.42.07l-2.74-1.74a2.54,2.54,0,0,0-2.82.07l-1.17.83a15.17,15.17,0,0,1-17.19.26l-1.72-1.13a2.53,2.53,0,0,0-2.9.08l-.34.25a15.28,15.28,0,0,1-17.77.24l-.8-.55a2.5,2.5,0,0,0-1.45-.46.68.68,0,0,1-.59-.25.72.72,0,0,1-.12-.63l.48-1.6c2.06-7,8.29-12.07,14.8-12.07s15-2.57,23.27-5.05c7.44-2.24,15.13-4.53,20.05-4.53s13,2.3,20.76,4.53c8.18,2.36,16.65,4.8,22.56,4.8,6.37,0,12.73,5.3,14.81,12.32L459,257A.69.69,0,0,1,458.84,257.61Z"/><path class="l" d="M395.87,239.31a2.55,2.55,0,0,0-3.14-1.74h0l-13.11,3.78a2.54,2.54,0,1,0,1.34,4.9l.06,0,13.12-3.78A2.54,2.54,0,0,0,395.87,239.31Z"/><path class="l" d="M421.11,241.36,408,237.58a2.54,2.54,0,0,0-1.42,4.88l13.11,3.78a2.83,2.83,0,0,0,.71.1,2.54,2.54,0,0,0,.7-5Z"/><path class="l" d="M400.36,242a2.54,2.54,0,0,0-2.54,2.53v3.28a2.54,2.54,0,1,0,5.08,0v-3.28a2.54,2.54,0,0,0-2.54-2.53Z"/><path class="l" d="M432.63,274H419.52a2.54,2.54,0,1,0,0,5.08h13.11a2.54,2.54,0,0,0,0-5.08Z"/><path class="l" d="M443.72,274h-3a2.54,2.54,0,1,0,0,5.08h3a2.54,2.54,0,0,0,0-5.08Z"/><rect class="g" x="254.43" y="164.12" width="291.86" height="373.11"/><path class="h" d="M295.71,487.42c9.43-9.7,33,7.28,0,29.1C262.68,494.7,286.27,477.72,295.71,487.42Z"/><line class="i" x1="285.05" y1="401.4" x2="515.67" y2="401.4"/><rect class="a" x="295.59" y="360.59" width="209.55" height="31.28" rx="15.64"/></svg>