<svg xmlns="http://www.w3.org/2000/svg" viewBox="0 0 351.57 450"><defs><style>.a{fill:none;}.b{fill:#010101;}</style></defs><path class="a" d="M18.28,292.59a10.87,10.87,0,0,0,10.85,10.86H177.44a10.87,10.87,0,0,0,10.84-10.86v-4h-170Z"/><path class="a" d="M83.46,411.91a19.83,19.83,0,0,0,39.65,0V321.73H83.46Z"/><path class="a" d="M103.28,21.72a85.25,85.25,0,0,0-85,85V270.34h170V106.72a85.25,85.25,0,0,0-85-85Z"/><path class="a" d="M182.9,39.09l-1,.77.78.94a103,103,0,0,1,23.83,65.91v37.42H327.31v-1a92.11,92.11,0,0,0-144.41-104Z"/><path class="a" d="M206.56,292.59a28.71,28.71,0,0,1-1.37,8.82l-.11.36L240.3,411.06,319.92,164l.51-1.57H206.56Z"/><path class="b" d="M241.23,0h-.34a109.43,109.43,0,0,0-71.24,26.37l-.76.65-.78-.63a102.44,102.44,0,0,0-64.7-23A105.81,105.81,0,0,0,92.34,4,103.22,103.22,0,0,0,0,106.72V292.59a29.2,29.2,0,0,0,29.13,29.13H65.18V411.9a38.1,38.1,0,1,0,76.2,0V321.72h36.07A29.29,29.29,0,0,0,190,318.89l1.24-.59,40.41,125.38a9.14,9.14,0,0,0,11.53,5.82,9.2,9.2,0,0,0,5.82-5.83l92.59-287.36,0-.07A110.36,110.36,0,0,0,241.23,0ZM123.11,411.91a19.83,19.83,0,0,1-39.65,0V321.73h39.65Zm65.17-119.32a10.87,10.87,0,0,1-10.84,10.86H29.13a10.87,10.87,0,0,1-10.85-10.86v-4h170Zm0-22.25h-170V106.72a85,85,0,0,1,170,0ZM319.92,164,240.3,411.06,205.08,301.77l.11-.36a28.71,28.71,0,0,0,1.37-8.82V162.41H320.43Zm7.39-20.85v1H206.56V106.71A103,103,0,0,0,182.73,40.8l-.78-.94,1-.77a92.11,92.11,0,0,1,144.41,104Z"/></svg>