<svg xmlns="http://www.w3.org/2000/svg" viewBox="0 0 159.73 159.18"><defs><style>.a{fill:#231f20;}.b{fill:#e5e5e5;}.c{fill:#fff;}.d{fill:#ffce06;}</style></defs><path class="a" d="M56.4,159.18H159.73V0H0V102.78H0Z"/><path class="b" d="M57.28,156.2h99.46V3H3v98.93Z"/><rect class="c" x="29.64" y="62.6" width="15.5" height="15.5"/><rect class="c" x="29.64" y="79.59" width="15.5" height="15.5"/><rect class="c" x="97.6" y="2.98" width="15.5" height="7.15"/><rect class="c" x="29.64" y="96.58" width="15.5" height="15.5"/><rect class="c" x="46.63" y="113.57" width="15.5" height="15.5"/><rect class="c" x="97.6" y="45.6" width="15.5" height="15.5"/><rect class="c" x="97.6" y="28.61" width="15.5" height="15.5"/><rect class="c" x="97.6" y="11.62" width="15.5" height="15.5"/><rect class="c" x="63.62" y="28.61" width="15.5" height="15.5"/><rect class="c" x="80.61" y="11.62" width="15.5" height="15.5"/><rect class="c" x="46.63" y="28.61" width="15.5" height="15.5"/><rect class="c" x="97.6" y="130.56" width="15.5" height="15.5"/><rect class="c" x="114.6" y="79.59" width="15.5" height="15.5"/><rect class="c" x="114.6" y="45.6" width="15.5" height="15.5"/><rect class="c" x="114.6" y="62.6" width="15.5" height="15.5"/><rect class="c" x="63.62" y="113.57" width="15.5" height="15.5"/><rect class="c" x="114.6" y="11.62" width="15.5" height="15.5"/><rect class="c" x="114.6" y="28.61" width="15.5" height="15.5"/><rect class="c" x="114.6" y="2.98" width="15.5" height="7.15"/><rect class="c" x="80.61" y="130.56" width="15.5" height="15.5"/><rect class="c" x="114.6" y="130.56" width="15.5" height="15.5"/><rect class="c" x="114.6" y="113.57" width="15.5" height="15.5"/><rect class="c" x="114.6" y="96.58" width="15.5" height="15.5"/><rect class="c" x="29.64" y="45.6" width="15.5" height="15.5"/><rect class="c" x="63.62" y="62.6" width="15.5" height="15.5"/><rect class="c" x="80.61" y="96.58" width="15.5" height="15.5"/><rect class="c" x="63.62" y="79.59" width="15.5" height="15.5"/><rect class="c" x="80.61" y="79.59" width="15.5" height="15.5"/><rect class="c" x="80.61" y="45.6" width="15.5" height="15.5"/><rect class="c" x="80.61" y="62.6" width="15.5" height="15.5"/><path class="c" d="M31.64,130.56l13.5,13.49V130.56Z"/><rect class="c" x="29.64" y="11.62" width="15.5" height="15.5"/><rect class="c" x="97.6" y="62.6" width="15.5" height="15.5"/><rect class="c" x="29.64" y="28.61" width="15.5" height="15.5"/><path class="c" d="M29.64,113.57v15l.51.51h15v-15.5Z"/><path class="c" d="M14.65,113.57l13.49,13.49V113.57Z"/><rect class="c" x="97.6" y="113.57" width="15.5" height="15.5"/><rect class="c" x="80.61" y="113.57" width="15.5" height="15.5"/><rect class="c" x="63.62" y="96.58" width="15.5" height="15.5"/><rect class="c" x="97.6" y="79.59" width="15.5" height="15.5"/><rect class="c" x="80.61" y="28.61" width="15.5" height="15.5"/><rect class="c" x="97.6" y="96.58" width="15.5" height="15.5"/><rect class="c" x="46.63" y="45.6" width="15.5" height="15.5"/><rect class="c" x="63.62" y="45.6" width="15.5" height="15.5"/><rect class="c" x="46.63" y="96.58" width="15.5" height="15.5"/><rect class="c" x="46.63" y="79.59" width="15.5" height="15.5"/><rect class="c" x="46.63" y="62.6" width="15.5" height="15.5"/><rect class="c" x="2.99" y="62.6" width="8.16" height="15.5"/><rect class="c" x="80.61" y="2.98" width="15.5" height="7.15"/><rect class="c" x="2.99" y="45.6" width="8.16" height="15.5"/><rect class="c" x="2.99" y="79.59" width="8.16" height="15.5"/><path class="c" d="M11.15,96.58H3v5.33l8.16,8.16Z"/><rect class="c" x="131.59" y="11.62" width="15.5" height="15.5"/><rect class="c" x="131.59" y="2.98" width="15.5" height="7.15"/><path class="c" d="M62.13,147.55H48.64l8.64,8.65h4.85Z"/><rect class="c" x="2.99" y="2.98" width="8.16" height="7.15"/><rect class="c" x="63.62" y="2.98" width="15.5" height="7.15"/><rect class="c" x="2.99" y="11.62" width="8.16" height="15.5"/><rect class="c" x="63.62" y="147.55" width="15.5" height="8.64"/><rect class="c" x="131.59" y="28.61" width="15.5" height="15.5"/><rect class="c" x="148.58" y="28.61" width="8.16" height="15.5"/><rect class="c" x="148.58" y="62.6" width="8.16" height="15.5"/><rect class="c" x="148.58" y="11.62" width="8.16" height="15.5"/><rect class="c" x="148.58" y="2.98" width="8.16" height="7.15"/><rect class="c" x="148.58" y="45.6" width="8.16" height="15.5"/><rect class="c" x="148.58" y="79.59" width="8.16" height="15.5"/><rect class="c" x="148.58" y="147.55" width="8.16" height="8.64"/><rect class="c" x="148.58" y="130.56" width="8.16" height="15.5"/><rect class="c" x="148.58" y="96.58" width="8.16" height="15.5"/><rect class="c" x="148.58" y="113.57" width="8.16" height="15.5"/><rect class="c" x="2.99" y="28.61" width="8.16" height="15.5"/><rect class="c" x="12.65" y="28.61" width="15.5" height="15.5"/><rect class="c" x="12.65" y="45.6" width="15.5" height="15.5"/><rect class="c" x="12.65" y="79.59" width="15.5" height="15.5"/><rect class="c" x="12.65" y="11.62" width="15.5" height="15.5"/><rect class="c" x="12.65" y="62.6" width="15.5" height="15.5"/><rect class="c" x="46.63" y="2.98" width="15.5" height="7.15"/><rect class="c" x="63.62" y="11.62" width="15.5" height="15.5"/><rect class="c" x="46.63" y="11.62" width="15.5" height="15.5"/><path class="c" d="M13.16,112.07h15V96.58H12.65v15Z"/><rect class="c" x="12.65" y="2.98" width="15.5" height="7.15"/><rect class="c" x="29.64" y="2.98" width="15.5" height="7.15"/><rect class="c" x="131.59" y="147.55" width="15.5" height="8.64"/><rect class="c" x="131.59" y="96.58" width="15.5" height="15.5"/><rect class="c" x="131.59" y="113.57" width="15.5" height="15.5"/><rect class="c" x="131.59" y="62.6" width="15.5" height="15.5"/><rect class="c" x="131.59" y="130.56" width="15.5" height="15.5"/><rect class="c" x="131.59" y="79.59" width="15.5" height="15.5"/><path class="c" d="M62.13,130.56H46.63v15l.51.51h15Z"/><rect class="c" x="63.62" y="130.56" width="15.5" height="15.5"/><rect class="c" x="80.61" y="147.55" width="15.5" height="8.64"/><rect class="c" x="114.6" y="147.55" width="15.5" height="8.64"/><rect class="c" x="97.6" y="147.55" width="15.5" height="8.64"/><rect class="c" x="131.59" y="45.6" width="15.5" height="15.5"/><path class="d" d="M57.28,156.2V101.91H3Z"/><path class="a" d="M36.75,124.13V103.55h4.14l.91,2.64h.3a6.07,6.07,0,0,1,1.54-1.68,6.69,6.69,0,0,1,2.1-1,9.58,9.58,0,0,1,2.58-.34,6.86,6.86,0,0,1,5.27,1.94,7.91,7.91,0,0,1,1.81,5.6v13.42H49.94v-12a5.13,5.13,0,0,0-.91-3.33,3.19,3.19,0,0,0-2.6-1.07,3.4,3.4,0,0,0-3.22,1.8,10.25,10.25,0,0,0-1,4.94v9.69Z"/><path class="a" d="M65.69,124.5a6.45,6.45,0,0,1-4.88-1.71,6.38,6.38,0,0,1-1.64-4.62,6.62,6.62,0,0,1,1-3.77,5.72,5.72,0,0,1,2.9-2.18,14.52,14.52,0,0,1,4.67-.79l4.52-.12v-.9a2.44,2.44,0,0,0-1-2.15,5.38,5.38,0,0,0-3.09-.72,13.57,13.57,0,0,0-2.81.31,19.36,19.36,0,0,0-3.15.94L60.41,105a16.12,16.12,0,0,1,3.75-1.35,18.19,18.19,0,0,1,4.17-.46A11,11,0,0,1,75.07,105a6.4,6.4,0,0,1,2.37,5.45v13.72H73.3l-.87-2.61h-.15a9,9,0,0,1-2,1.76,7.63,7.63,0,0,1-2.21.94A9.9,9.9,0,0,1,65.69,124.5Zm1.92-4.29a5.79,5.79,0,0,0,2.34-.47,4,4,0,0,0,1.67-1.36,3.51,3.51,0,0,0,.62-2.09v-1.7l-3.12.08a9.06,9.06,0,0,0-2.55.37A3.36,3.36,0,0,0,65,116a2.54,2.54,0,0,0-.53,1.66,2.12,2.12,0,0,0,.91,1.94A4,4,0,0,0,67.61,120.21Z"/><path class="a" d="M81.44,124.13v-3.4l5.35-1.13V108.07l-4.33-.64v-3.88h8.48l.79,3.47H92a8.21,8.21,0,0,1,2.49-2.79,6.48,6.48,0,0,1,3.8-1.06,13.71,13.71,0,0,1,1.62.12,7,7,0,0,1,2,.52l-1.47,5.09a9.77,9.77,0,0,0-1.31-.34,8.91,8.91,0,0,0-1.66-.15,5.12,5.12,0,0,0-2.89.77,4.78,4.78,0,0,0-1.71,2.1,7.39,7.39,0,0,0-.57,3v5.35l5.39,1.13v3.4Z"/><path class="a" d="M104.58,124.13V103.55h4.14l.91,2.64h.3a5.93,5.93,0,0,1,1.54-1.68,6.75,6.75,0,0,1,2.09-1,9.71,9.71,0,0,1,2.59-.34,6.87,6.87,0,0,1,5.27,1.94,7.91,7.91,0,0,1,1.81,5.6v13.42h-5.46v-12a5.13,5.13,0,0,0-.91-3.33,3.19,3.19,0,0,0-2.6-1.07,3.4,3.4,0,0,0-3.22,1.8,10.25,10.25,0,0,0-1,4.94v9.69Z"/><path class="a" d="M138.34,124.5a13.77,13.77,0,0,1-6.14-1.24,8.73,8.73,0,0,1-3.87-3.66,11.94,11.94,0,0,1-1.33-5.88,12.73,12.73,0,0,1,1.13-5.57,8.34,8.34,0,0,1,3.31-3.68,10.23,10.23,0,0,1,5.28-1.3,10,10,0,0,1,4.94,1.15,7.7,7.7,0,0,1,3.11,3.28,11.31,11.31,0,0,1,1.07,5.11v2.71H132.31a4.24,4.24,0,0,0,.92,2.54,5,5,0,0,0,2.28,1.55,9.3,9.3,0,0,0,3.13.51,14.5,14.5,0,0,0,3.11-.36,26.3,26.3,0,0,0,3.49-1V123a12.48,12.48,0,0,1-3.41,1.15A19.7,19.7,0,0,1,138.34,124.5Zm2.6-12.81a4.58,4.58,0,0,0-.55-2.32,3.92,3.92,0,0,0-1.45-1.49,4.1,4.1,0,0,0-2.11-.52,4.29,4.29,0,0,0-3,1.11,4.7,4.7,0,0,0-1.44,3.22Z"/><path class="a" d="M36.94,99.38V70.74H42.4V84c0,.5,0,1,0,1.45s0,.92-.09,1.38-.1.94-.17,1.46h.07c.36-.52.74-1.06,1.17-1.62s.87-1.1,1.32-1.65l5.24-6.18h6.33l-7.54,8.55,8,12H50.84L45.3,90.83l-2.9,2.22v6.33Z"/><path class="a" d="M66.1,99.76A6.67,6.67,0,0,1,61,97.82a7.87,7.87,0,0,1-1.83-5.6V78.81h5.46v12a6.18,6.18,0,0,0,.72,3.24A2.8,2.8,0,0,0,68,95.24a4.07,4.07,0,0,0,2.75-.83A4.39,4.39,0,0,0,72,92.05a15.62,15.62,0,0,0,.36-3.56V78.81h5.46V99.38H73.68l-.91-2.64h-.3a5.72,5.72,0,0,1-1.56,1.62,7.15,7.15,0,0,1-2.19,1A9.27,9.27,0,0,1,66.1,99.76Z"/><path class="a" d="M82.16,99.38V96l6.78-1.13V75.26l-5.47-1.13V70.74H94.4V94.86L100.62,96v3.39Z"/><path class="a" d="M104.76,99.38V96l6.86-1.13V83.33l-5.84-.64V78.81h11.31v16L123.23,96v3.39Zm9.61-22.91a3.42,3.42,0,0,1-2.45-.79,3.82,3.82,0,0,1,0-4.73,4.34,4.34,0,0,1,5,0,3.11,3.11,0,0,1,.83,2.34,3.18,3.18,0,0,1-.85,2.37A3.54,3.54,0,0,1,114.37,76.47Z"/><ellipse class="d" cx="114.49" cy="73.36" rx="3.75" ry="3.47"/><path class="a" d="M43.08,41.79a6.45,6.45,0,0,1-4.88-1.71,6.41,6.41,0,0,1-1.64-4.62,6.62,6.62,0,0,1,1-3.77,5.77,5.77,0,0,1,2.9-2.18,14.52,14.52,0,0,1,4.67-.79l4.52-.12v-.9a2.46,2.46,0,0,0-1-2.15,5.39,5.39,0,0,0-3.09-.71,14.24,14.24,0,0,0-2.81.3,19.36,19.36,0,0,0-3.15.94L37.8,22.27a16.12,16.12,0,0,1,3.75-1.35,18.76,18.76,0,0,1,4.17-.46,11,11,0,0,1,6.74,1.79,6.4,6.4,0,0,1,2.37,5.45V41.42H50.69l-.87-2.6h-.15a8.9,8.9,0,0,1-2,1.75,7.63,7.63,0,0,1-2.21.94A9.9,9.9,0,0,1,43.08,41.79ZM45,37.5A5.79,5.79,0,0,0,47.34,37,4,4,0,0,0,49,35.67a3.51,3.51,0,0,0,.62-2.09v-1.7L46.51,32a9.06,9.06,0,0,0-2.55.37,3.29,3.29,0,0,0-1.56,1A2.49,2.49,0,0,0,41.87,35a2.12,2.12,0,0,0,.91,1.94A4,4,0,0,0,45,37.5Z"/><path class="a" d="M58.83,41.42V38l5.35-1.14V25.36l-4.33-.64V20.84h8.48l.79,3.47h.26a8.21,8.21,0,0,1,2.49-2.79,6.48,6.48,0,0,1,3.8-1.06,13.71,13.71,0,0,1,1.62.12,6.73,6.73,0,0,1,2,.53l-1.47,5.08a9.57,9.57,0,0,0-1.32-.34,8.8,8.8,0,0,0-1.65-.15,5,5,0,0,0-2.89.78,4.7,4.7,0,0,0-1.71,2.09,7.42,7.42,0,0,0-.57,3v5.35L75,38v3.39Z"/><path class="a" d="M92.67,41.79A12.42,12.42,0,0,1,87,40.63a7.39,7.39,0,0,1-3.34-3.49,13.59,13.59,0,0,1-1.09-5.75,14.13,14.13,0,0,1,1.15-6,7.93,7.93,0,0,1,3.45-3.67,11.91,11.91,0,0,1,5.73-1.25,20.34,20.34,0,0,1,3.28.29,13.73,13.73,0,0,1,3.35,1l-1.58,4.33a12.42,12.42,0,0,0-2.75-.79,13.5,13.5,0,0,0-2-.19,5.46,5.46,0,0,0-2.83.68,4.12,4.12,0,0,0-1.69,2,8.83,8.83,0,0,0-.57,3.39,8.25,8.25,0,0,0,.6,3.4,4.08,4.08,0,0,0,1.76,1.94,5.85,5.85,0,0,0,2.8.62,10.64,10.64,0,0,0,2.59-.36,11.18,11.18,0,0,0,3-1.34v4.9a12.28,12.28,0,0,1-3.09,1.13A15.43,15.43,0,0,1,92.67,41.79Z"/><path class="a" d="M104.58,41.42V12.78H110v5.84c0,.8,0,1.61,0,2.43s0,1.63-.09,2.43h.3a7.79,7.79,0,0,1,1.43-1.66,5.42,5.42,0,0,1,1.88-1,8.8,8.8,0,0,1,2.53-.34,7,7,0,0,1,5.31,1.95A7.8,7.8,0,0,1,123.23,28V41.42h-5.46v-12c0-1.69-.32-2.84-1-3.47a3.44,3.44,0,0,0-2.56-.94,3.89,3.89,0,0,0-2.37.69,4.12,4.12,0,0,0-1.4,2.19,13.66,13.66,0,0,0-.45,3.86v9.69Z"/><path class="a" d="M127.37,41.42V38l6.86-1.14V25.36l-5.84-.64V20.84H139.7V36.89L145.84,38v3.39ZM137,18.51a3.42,3.42,0,0,1-2.45-.8,3.11,3.11,0,0,1-.82-2.37,3.14,3.14,0,0,1,.82-2.35,4.29,4.29,0,0,1,5,0,3.06,3.06,0,0,1,.82,2.33,3.21,3.21,0,0,1-.84,2.38A3.54,3.54,0,0,1,137,18.51Z"/><ellipse class="d" cx="137.03" cy="15.22" rx="3.75" ry="3.47"/><path class="a" d="M37.69,66.16l-2.9-20.57h5l.94,10.62c0,.53.1,1,.15,1.55S41,58.81,41,59.4l.18,2.09h.15c.11-.81.19-1.49.27-2.06s.16-1.1.24-1.62.2-1.07.32-1.67l1.51-7.54h4.67l1.51,7.57c.1.48.2,1,.3,1.55s.2,1.14.3,1.75.21,1.29.31,2h.15c.07-.73.13-1.4.18-2s.11-1.19.16-1.73.08-1.05.11-1.53l.94-10.62h4.9l-2.9,20.57H48.09l-1.43-8c-.15-.83-.27-1.51-.34-2.05s-.16-1.13-.26-1.75H45.9c-.1.65-.18,1.24-.26,1.77s-.19,1.2-.34,2l-1.47,8Z"/><path class="a" d="M66.1,66.54A6.67,6.67,0,0,1,61,64.6,7.87,7.87,0,0,1,59.17,59V45.59h5.46v12a6.18,6.18,0,0,0,.72,3.24A2.8,2.8,0,0,0,68,62a4.07,4.07,0,0,0,2.75-.83A4.39,4.39,0,0,0,72,58.83a15.62,15.62,0,0,0,.36-3.56V45.59h5.46V66.16H73.68l-.91-2.64h-.3a5.72,5.72,0,0,1-1.56,1.62,7.15,7.15,0,0,1-2.19,1A9.27,9.27,0,0,1,66.1,66.54Z"/><path class="a" d="M81,66.16V45.59h3.69l.6,2.56h.3a6,6,0,0,1,.89-1.66,3.14,3.14,0,0,1,1.22-1,4.19,4.19,0,0,1,1.7-.32,3.41,3.41,0,0,1,2.52.87,4.57,4.57,0,0,1,1.17,2.52h.19a6.78,6.78,0,0,1,1.62-2.52,3.63,3.63,0,0,1,2.56-.87,3.26,3.26,0,0,1,2.45.85,4.73,4.73,0,0,1,1.13,2.54,24.49,24.49,0,0,1,.3,4.18V66.16H96.66V51.69a4.09,4.09,0,0,0-.11-1.07,1.21,1.21,0,0,0-.39-.66,1.37,1.37,0,0,0-.85-.23,1.59,1.59,0,0,0-1,.3,1.71,1.71,0,0,0-.53,1,9.08,9.08,0,0,0-.15,1.83v13.3H88.83V51.69a4,4,0,0,0-.12-1.07A1.12,1.12,0,0,0,88.3,50a1.43,1.43,0,0,0-.87-.23,1.61,1.61,0,0,0-1,.3,1.67,1.67,0,0,0-.52,1,9,9,0,0,0-.15,1.85v13.3Z"/></svg>